<svg width="125" height="50" viewBox="0 0 125 50" fill="none" xmlns="http://www.w3.org/2000/svg">
<path d="M9.78906 41H3.21484V15.4062H9.78906V41ZM26.6113 41H20.0195V15.4062H26.6113V41ZM34.1699 20.7324H12.6191V15.4062H34.1699V20.7324ZM56.3711 38.2578C56.1016 38.6445 55.5918 39.0781 54.8418 39.5586C54.1035 40.0391 53.1309 40.4609 51.9238 40.8242C50.7285 41.1758 49.2988 41.3516 47.6348 41.3516C45.6895 41.3516 43.9727 40.877 42.4844 39.9277C41.0078 38.9785 39.8535 37.6602 39.0215 35.9727C38.1895 34.2852 37.7734 32.3281 37.7734 30.1016V25.918C37.7734 23.7617 38.1777 21.8691 38.9863 20.2402C39.7949 18.6113 40.9199 17.3398 42.3613 16.4258C43.8027 15.5117 45.4609 15.0547 47.3359 15.0547C49.1875 15.0547 50.752 15.377 52.0293 16.0215C53.3066 16.666 54.3027 17.5391 55.0176 18.6406C55.7441 19.7305 56.1836 20.9609 56.3359 22.332H55.3867C55.2109 21.2188 54.8301 20.1816 54.2441 19.2207C53.6582 18.2598 52.8027 17.4863 51.6777 16.9004C50.5645 16.3027 49.1172 16.0039 47.3359 16.0039C45.6016 16.0039 44.084 16.4258 42.7832 17.2695C41.4941 18.1133 40.4922 19.2793 39.7773 20.7676C39.0742 22.2559 38.7227 23.9609 38.7227 25.8828V30.1016C38.7227 32.1055 39.0859 33.8867 39.8125 35.4453C40.5508 36.9922 41.5879 38.2051 42.9238 39.084C44.2598 39.9629 45.8301 40.4023 47.6348 40.4023C49.0293 40.4023 50.2598 40.2617 51.3262 39.9805C52.4043 39.6875 53.2891 39.3418 53.9805 38.9434C54.6836 38.5332 55.1641 38.1582 55.4219 37.8184V30.3652H47.5996V29.3984H56.3711V38.2578ZM75.3027 21.9805H76.2695V41H75.3027V36.6055V21.9805ZM76.2695 33.5293C76.2695 35.0293 76.0059 36.3711 75.4785 37.5547C74.9512 38.7266 74.1309 39.6523 73.0176 40.332C71.916 41.0117 70.4922 41.3516 68.7461 41.3516C66.8828 41.3516 65.3711 40.8008 64.2109 39.6992C63.0625 38.5859 62.4883 36.7051 62.4883 34.0566V21.9805H63.4375V34.0918C63.4375 35.6387 63.666 36.875 64.123 37.8008C64.5801 38.7266 65.207 39.3945 66.0039 39.8047C66.8008 40.2031 67.7031 40.4023 68.7109 40.4023C70.4219 40.4023 71.7695 40.0742 72.7539 39.418C73.7383 38.7617 74.4355 37.9121 74.8457 36.8691C75.2559 35.8145 75.4609 34.7129 75.4609 33.5645L76.2695 33.5293ZM83.459 41H82.5098V21.9805H83.459V41ZM82.0176 16.0391C82.0176 15.7695 82.1113 15.541 82.2988 15.3535C82.4863 15.1543 82.7148 15.0547 82.9844 15.0547C83.2539 15.0547 83.4824 15.1543 83.6699 15.3535C83.8691 15.541 83.9688 15.7695 83.9688 16.0391C83.9688 16.3086 83.8691 16.5371 83.6699 16.7246C83.4824 16.9121 83.2539 17.0059 82.9844 17.0059C82.7148 17.0059 82.4863 16.9121 82.2988 16.7246C82.1113 16.5371 82.0176 16.3086 82.0176 16.0391ZM102.443 14H103.393V41H102.443V37.3086V14ZM88.8203 31.2969C88.8203 29.293 89.1016 27.5703 89.6641 26.1289C90.2383 24.6875 91.0586 23.5801 92.125 22.8066C93.2031 22.0215 94.4922 21.6289 95.9922 21.6289C97.375 21.6289 98.5586 21.9043 99.543 22.4551C100.539 23.0059 101.348 23.7559 101.969 24.7051C102.602 25.6426 103.053 26.709 103.322 27.9043V35.6562C103.123 36.6523 102.713 37.584 102.092 38.4512C101.482 39.3184 100.662 40.0215 99.6309 40.5605C98.6113 41.0879 97.3867 41.3516 95.957 41.3516C94.457 41.3516 93.1738 40.9473 92.1074 40.1387C91.041 39.3301 90.2266 38.1992 89.6641 36.7461C89.1016 35.293 88.8203 33.5996 88.8203 31.666V31.2969ZM89.8047 31.666C89.8047 33.3535 90.0273 34.8535 90.4727 36.166C90.918 37.4785 91.5918 38.5156 92.4941 39.2773C93.4082 40.0273 94.5566 40.4023 95.9395 40.4023C97.2754 40.4023 98.4121 40.168 99.3496 39.6992C100.287 39.2305 101.037 38.6035 101.6 37.8184C102.162 37.0332 102.549 36.166 102.76 35.2168V28.5371C102.631 27.9512 102.426 27.3184 102.145 26.6387C101.875 25.9473 101.482 25.2969 100.967 24.6875C100.463 24.0664 99.8008 23.5625 98.9805 23.1758C98.1719 22.7773 97.1699 22.5781 95.9746 22.5781C94.5801 22.5781 93.4258 22.9531 92.5117 23.7031C91.5977 24.4531 90.918 25.4844 90.4727 26.7969C90.0273 28.1094 89.8047 29.6094 89.8047 31.2969V31.666ZM116.26 41.3516C114.725 41.3516 113.324 40.9473 112.059 40.1387C110.793 39.3301 109.785 38.2168 109.035 36.7988C108.297 35.3691 107.928 33.7344 107.928 31.8945V31.1211C107.928 29.2695 108.285 27.6289 109 26.1992C109.727 24.7695 110.693 23.6504 111.9 22.8418C113.107 22.0332 114.443 21.6289 115.908 21.6289C117.314 21.6289 118.562 21.9688 119.652 22.6484C120.742 23.3281 121.592 24.2773 122.201 25.4961C122.822 26.7148 123.133 28.1328 123.133 29.75V30.8574H108.543V29.9082H122.184V29.6797C122.184 28.4023 121.926 27.2305 121.41 26.1641C120.895 25.0859 120.168 24.2188 119.23 23.5625C118.293 22.9062 117.186 22.5781 115.908 22.5781C114.514 22.5781 113.283 22.9648 112.217 23.7383C111.162 24.5 110.342 25.5312 109.756 26.832C109.17 28.1211 108.877 29.5508 108.877 31.1211V31.8945C108.877 33.4766 109.199 34.9121 109.844 36.2012C110.5 37.4902 111.385 38.5156 112.498 39.2773C113.611 40.0391 114.865 40.4199 116.26 40.4199C117.35 40.4199 118.363 40.2383 119.301 39.875C120.25 39.5117 121.117 38.8203 121.902 37.8008L122.57 38.2754C121.938 39.1777 121.105 39.916 120.074 40.4902C119.055 41.0645 117.783 41.3516 116.26 41.3516Z" fill="#122A2F"/>
<circle cx="6" cy="6" r="6" fill="#122A2F"/>
</svg>
