<svg width="48" height="48" viewBox="0 0 48 48" fill="none" xmlns="http://www.w3.org/2000/svg">
<g clip-path="url(#clip0_41_154)">
<path d="M17.2204 42.9529C18.2059 43.9419 19.3017 44.8256 20.5249 45.4984C24.6352 47.7587 28.8708 47.8386 32.7639 43.9462L33.8788 42.8306C34.7426 41.9668 34.9421 40.6411 34.3712 39.5614C33.0278 37.0238 28.0756 34.1211 28.0756 34.1211C26.955 33.4816 25.6024 33.4109 24.9628 34.5498C24.9628 34.5498 24.0332 35.8007 23.6236 36.078C21.7538 37.345 20.6849 36.6325 18.9368 34.8844L13.1164 29.064C11.3683 27.3159 10.6558 26.2469 11.9228 24.3772C12.2001 23.9676 13.4509 23.038 13.4509 23.038C14.5899 22.3978 14.5185 21.0458 13.8797 19.9252C13.8797 19.9252 10.977 14.973 8.43934 13.6296C7.35981 13.0586 6.03399 13.2581 5.17018 14.122L4.05455 15.2369C0.450514 18.8412 0.251763 22.7392 2.03592 26.5595C2.75967 28.1088 3.80527 29.4855 5.01221 30.6967L17.2204 42.9529Z" fill="#C6E2EB"/>
<path d="M35.1991 39.1225C33.7477 36.3809 28.7605 33.4361 28.5489 33.312C28.5458 33.3102 28.5427 33.3084 28.5395 33.3066C27.5828 32.7606 26.5855 32.5901 25.7314 32.8268C25.0724 33.0094 24.5364 33.4258 24.1777 34.0331C23.754 34.5992 23.2539 35.186 23.0971 35.3015C21.8715 36.132 21.3485 35.9704 19.5991 34.2211L13.7787 28.4007C12.0294 26.6514 11.8678 26.1283 12.6958 24.9063C12.8132 24.7465 13.4004 24.2463 13.9669 23.8219C14.574 23.463 14.9901 22.9272 15.1726 22.2684C15.4091 21.4148 15.239 20.4177 14.6935 19.4607C14.6916 19.4574 14.6897 19.4542 14.6878 19.451C14.5638 19.2394 11.6189 14.2522 8.87694 12.8006C7.42475 12.0327 5.66825 12.2972 4.50696 13.4587L3.39096 14.5737C1.52308 16.4417 0.414582 18.4968 0.0963935 20.6818C-0.194045 22.6752 0.172612 24.7862 1.18596 26.956C1.90333 28.4917 2.96702 29.9727 4.3475 31.3581L16.5556 43.6143C16.5556 43.6143 16.5556 43.6144 16.5557 43.6144C17.6834 44.7461 18.8666 45.6563 20.0726 46.3196C22.1036 47.4364 24.0857 47.9999 25.9773 47.9999C26.2564 47.9999 26.5337 47.9876 26.8087 47.963C29.1861 47.7506 31.4126 46.622 33.4265 44.6086L34.5412 43.4932C35.7029 42.3315 35.9674 40.5752 35.1991 39.1225ZM20.9761 44.6767C19.9263 44.0992 18.886 43.2966 17.884 42.291L5.67565 30.0348C4.44893 28.8037 3.50984 27.5008 2.88471 26.1626C1.7494 23.7317 1.56462 21.5021 2.3388 19.4265C2.29287 21.0953 2.68971 22.8395 3.52146 24.6204C3.68065 24.9613 4.01862 25.1615 4.3715 25.1615C4.50434 25.1615 4.63934 25.1331 4.76759 25.0732C5.23672 24.8541 5.4394 24.2962 5.22031 23.827C3.59468 20.3464 3.91746 17.2919 6.20787 14.4938C6.74928 14.1763 7.42297 14.1528 7.99972 14.4577C9.88232 15.4544 12.2927 19.0756 13.0669 20.3938C13.3529 20.8973 13.4643 21.4105 13.3655 21.7675C13.3113 21.9631 13.1922 22.107 12.9906 22.2203C12.956 22.2398 12.9226 22.2614 12.8909 22.285C12.4763 22.5931 11.4764 23.3624 11.1459 23.8509C9.43935 26.3693 10.728 28.0017 12.4526 29.7265L18.2731 35.5469C19.9977 37.2716 21.6302 38.5604 24.1484 36.8539C24.6371 36.5231 25.4063 35.5232 25.7144 35.1087C25.7381 35.0767 25.7599 35.0432 25.7794 35.0084C25.8924 34.807 26.0362 34.6878 26.2319 34.6336C26.5894 34.5345 27.1024 34.6464 27.6053 34.9323C28.9229 35.7053 32.5431 38.1133 33.5415 39.9992C33.8466 40.5764 33.8231 41.2501 33.5054 41.7917C30.4792 44.2687 27.1432 44.4479 23.3114 42.3408C22.2616 41.7634 21.2212 40.9608 20.2192 39.9552C19.8538 39.5884 19.2602 39.5874 18.8933 39.9528C18.5266 40.3183 18.5254 40.9119 18.891 41.2786C20.0187 42.4104 21.2019 43.3205 22.4079 43.9838C24.4372 45.0997 26.421 45.6644 28.31 45.6644C28.3976 45.6644 28.485 45.6631 28.5722 45.6606C26.2521 46.5267 23.7394 46.1962 20.9761 44.6767Z" fill="#102E46"/>
<path d="M33.119 0.9375C25.4187 0.9375 19.1762 7.17986 19.1762 14.8804C19.1762 16.924 19.6159 18.8649 20.4057 20.6137L16.5098 25.4473H24.0224C26.4642 27.5511 29.6429 28.8231 33.119 28.8231C40.8194 28.8231 47.0618 22.5808 47.0618 14.8803C47.0619 7.17986 40.8195 0.9375 33.119 0.9375Z" fill="#FAB32A"/>
<path d="M33.12 29.7607C29.6739 29.7607 26.3367 28.5645 23.6817 26.3849H16.5107C16.1497 26.3849 15.8208 26.1776 15.6651 25.852C15.5093 25.5263 15.5543 25.1401 15.7808 24.8591L19.3229 20.4645C18.6039 18.6922 18.2396 16.8164 18.2396 14.8805C18.2396 6.67529 24.9149 0 33.12 0C41.325 0 48.0004 6.67529 48.0004 14.8804C48.0004 23.0853 41.325 29.7607 33.12 29.7607ZM18.4705 24.5098H24.0234C24.2481 24.5098 24.4652 24.5904 24.6353 24.737C26.9918 26.7675 30.0049 27.8856 33.1199 27.8856C40.291 27.8856 46.1253 22.0515 46.1253 14.8803C46.1253 7.70908 40.2912 1.875 33.12 1.875C25.9489 1.875 20.1146 7.70917 20.1146 14.8804C20.1146 16.7444 20.5003 18.5436 21.2611 20.2278C21.4067 20.55 21.3585 20.9268 21.1367 21.2021L18.4705 24.5098Z" fill="#102E46"/>
<path d="M23.4834 11.5547C24.8652 7.56216 28.6627 4.6875 33.119 4.6875C38.7394 4.6875 43.3119 9.25998 43.3119 14.8804C43.3119 20.5008 38.7396 25.0732 33.119 25.0732C30.6778 25.0732 28.3166 24.1971 26.4705 22.6064" fill="#FAB32A"/>
<path d="M33.1195 26.0107C30.4537 26.0107 27.8753 25.0539 25.859 23.3167C25.4666 22.9787 25.4228 22.3868 25.7606 21.9945C26.0985 21.6023 26.6906 21.5582 27.0828 21.8963C28.759 23.3404 30.9028 24.1358 33.1195 24.1358C38.2229 24.1358 42.3749 19.9839 42.3749 14.8805C42.3749 9.77711 38.223 5.6251 33.1195 5.6251C29.177 5.6251 25.6607 8.13123 24.3697 11.8614C24.2004 12.3506 23.6666 12.6099 23.1771 12.4407C22.6877 12.2713 22.4284 11.7374 22.5977 11.2481C24.1501 6.76323 28.3784 3.75 33.1195 3.75C39.2567 3.75 44.2499 8.74304 44.2499 14.8804C44.2499 21.0176 39.2568 26.0107 33.1195 26.0107Z" fill="#102E46"/>
<path d="M22.9276 15.8177C22.8657 15.8177 22.8048 15.812 22.7439 15.7998C22.6839 15.7877 22.6249 15.7698 22.5685 15.7464C22.5123 15.723 22.4579 15.6939 22.4064 15.6602C22.3557 15.6255 22.3069 15.5861 22.2639 15.543C22.2207 15.4998 22.1814 15.452 22.1477 15.4005C22.1139 15.3498 22.0848 15.2955 22.0614 15.2392C22.0379 15.182 22.0202 15.123 22.008 15.0639C21.9958 15.003 21.9893 14.9411 21.9893 14.8801C21.9893 14.8192 21.9958 14.7573 22.008 14.6973C22.0202 14.6373 22.0379 14.5783 22.0614 14.522C22.0848 14.4648 22.1139 14.4105 22.1477 14.3598C22.1814 14.3083 22.2207 14.2605 22.2639 14.2173C22.307 14.1742 22.3557 14.1348 22.4064 14.1011C22.4579 14.0673 22.5123 14.0383 22.5685 14.0148C22.6249 13.9914 22.6839 13.9736 22.7439 13.9614C22.8648 13.937 22.9895 13.937 23.1104 13.9614C23.1704 13.9736 23.2296 13.9914 23.2857 14.0148C23.342 14.0383 23.3964 14.0673 23.4479 14.1011C23.4985 14.1348 23.5474 14.1742 23.5904 14.2173C23.6335 14.2605 23.6729 14.3083 23.7067 14.3598C23.7403 14.4105 23.7695 14.4648 23.7929 14.522C23.8164 14.5783 23.8341 14.6373 23.8463 14.6973C23.8585 14.7573 23.865 14.8192 23.865 14.8801C23.865 14.9411 23.8585 15.003 23.8463 15.0639C23.8341 15.123 23.8164 15.182 23.7929 15.2392C23.7695 15.2955 23.7403 15.3498 23.7067 15.4005C23.6729 15.452 23.6335 15.4998 23.5904 15.543C23.5473 15.5861 23.4985 15.6255 23.4479 15.6602C23.3964 15.6939 23.342 15.723 23.2857 15.7464C23.2295 15.7698 23.1704 15.7877 23.1104 15.7998C23.0495 15.812 22.9886 15.8177 22.9276 15.8177Z" fill="#102E46"/>
<path d="M30.567 10.8772C31.7011 10.8772 32.8449 11.5908 32.8449 12.9008C32.8449 15.0222 29.824 15.7163 29.824 16.6059V16.6939H32.3853C32.6298 16.6939 32.8448 16.9969 32.8448 17.3489C32.8448 17.7008 32.6297 18.0234 32.3853 18.0234H28.905C28.6313 18.0234 28.2402 17.8377 28.2402 17.5542V16.6059C28.2402 15.071 31.3197 14.1913 31.3197 12.9496C31.3197 12.6368 31.1242 12.2555 30.5768 12.2555C30.1856 12.2555 29.8436 12.4511 29.8436 12.9887C29.8436 13.2722 29.5405 13.546 29.0419 13.546C28.6509 13.546 28.3575 13.37 28.3575 12.7542C28.3576 11.5616 29.4525 10.8772 30.567 10.8772Z" fill="#102E46"/>
<path d="M35.6505 16.518H33.3629C33.0794 16.518 32.8545 16.3322 32.8545 15.9901C32.8545 15.9118 32.8741 15.8043 32.9327 15.6968L35.191 11.2682C35.3377 10.9847 35.5821 10.8772 35.8265 10.8772C36.0904 10.8772 36.589 11.102 36.589 11.4539C36.589 11.5126 36.5694 11.5713 36.5402 11.6397L34.8097 15.1102H35.6506V14.4259C35.6506 14.1033 36.0318 13.9665 36.4131 13.9665C36.7943 13.9665 37.1756 14.1033 37.1756 14.4259V15.1102H37.596C37.9088 15.1102 38.0652 15.4621 38.0652 15.8141C38.0652 16.166 37.8307 16.518 37.596 16.518H37.1756V17.5543C37.1756 17.8671 36.7944 18.0235 36.4131 18.0235C36.0319 18.0235 35.6506 17.8671 35.6506 17.5543L35.6505 16.518Z" fill="#102E46"/>
</g>
<defs>
<clipPath id="clip0_41_154">
<rect width="48" height="48" fill="white"/>
</clipPath>
</defs>
</svg>
