<svg width="128" height="128" viewBox="0 0 128 128" fill="none" xmlns="http://www.w3.org/2000/svg">
<g clip-path="url(#clip0_18_166)">
<path d="M106.82 106.874L97.9151 98.06C96.7021 96.847 95.1075 96.1514 93.5404 96.1514L28.2977 96.1522L12.7805 80.635C11.2375 79.0921 9.14587 78.1335 7.32158 78.1335C6.04436 78.1335 4.91124 78.5911 4.04494 79.4574C2.82288 80.6795 2.21405 81.9161 2.18386 83.2375C2.15339 84.579 2.74438 85.8658 3.94063 87.062L21.2667 104.388C22.4336 105.555 23.9853 106.198 25.6359 106.198L90.8759 106.197L97.9881 113.31C99.155 114.477 100.707 115.12 102.357 115.12C103.917 115.12 104.952 115.032 106.166 113.818C107.235 112.749 108.329 111.446 108.34 109.883C108.351 108.406 107.435 107.489 106.82 106.874Z" fill="#EFEFEF"/>
<path d="M125.404 48.9117C124.077 38.6252 119.408 28.8636 112.256 21.4254L105.973 14.8907L108.569 23.5763C108.66 23.8821 108.751 24.1898 108.834 24.5019C111.705 35.3941 108.526 49.7799 99.3864 67.26L98.5758 68.8098L99.9052 69.9465C101.535 71.3401 102.096 72.9574 102.639 74.5215C103.315 76.4701 104.014 78.4849 106.766 80.0737C108.125 80.8588 109.414 81.2244 110.821 81.2244C111.799 81.2244 112.691 81.0523 113.631 80.8708C114.554 80.6954 116.758 80.5263 117.53 80.4758L118.701 80.3992L119.288 79.3825C124.661 70.0774 126.775 59.5406 125.404 48.9117Z" fill="#C6E2EB"/>
<path d="M108.943 24.9338C107.679 19.8056 105.357 16.641 103.633 14.8889L101.609 12.8326L76.6176 56.1194L77.9782 57.3074C79.5568 58.6856 80.1127 60.2832 80.6499 61.8261C81.326 63.7748 82.0254 65.7896 84.7766 67.3783C86.1359 68.1631 87.4239 68.5285 88.8301 68.5285C89.8037 68.5285 90.6989 68.3569 91.647 68.1747C92.5391 68.0031 93.4614 67.8258 94.4553 67.8258C95.2741 67.8258 96.0463 67.9493 96.8165 68.2032L98.5887 68.7879L99.4517 67.1332C110.613 45.7276 110.773 32.3704 108.943 24.9338Z" fill="#FAB32A"/>
<path d="M98.8154 12.1079C97.3578 11.7302 95.7872 11.5386 94.1465 11.5386C91.9887 11.5386 89.7403 11.8735 87.4648 12.5336C80.1113 14.6631 68.6251 21.4783 55.6621 41.8519L54.6602 43.4264L56.0527 44.669C57.5863 46.0379 58.1339 47.6119 58.662 49.1304C59.3359 51.0785 60.0331 53.093 62.7871 54.6831C64.1464 55.4679 65.4344 55.8333 66.8406 55.8333C67.8142 55.8333 68.7094 55.6617 69.6575 55.4797C70.5504 55.3082 71.4738 55.1306 72.4669 55.1306C73.3132 55.1306 74.1117 55.2629 74.9083 55.5354L76.6173 56.1196L101.609 12.832L98.8154 12.1079Z" fill="#C6E2EB"/>
<path d="M88.8465 7.91011C85.0612 6.97518 81.1604 6.50085 77.2524 6.50085C68.868 6.50085 60.5768 8.68034 53.275 12.8035C45.7511 17.0527 39.4783 23.2747 35.1353 30.7975L34.5479 31.8151L35.0683 32.8683C35.4106 33.5608 36.3661 35.552 36.6733 36.4351C37.3472 38.3832 38.0444 40.3977 40.7984 41.9878C42.1582 42.7729 43.4467 43.1385 44.8535 43.1385C45.8315 43.1385 46.7245 42.9664 47.6704 42.7839C48.5715 42.6118 49.5034 42.4339 50.487 42.4339C51.3579 42.4339 52.1795 42.5752 52.9989 42.8659L54.6494 43.4514L55.5873 41.9725C66.1532 25.3158 77.0221 15.3703 87.8954 12.4107C88.21 12.3248 88.5204 12.251 88.8273 12.1782L97.6457 10.0836L88.8465 7.91011Z" fill="#FAB32A"/>
<path d="M16.8048 61.0218C19.9305 59.4953 23.3524 59.3924 26.5189 60.7138C26.9068 61.047 27.4094 61.2444 27.9501 61.2444H28.1626C28.7034 61.2444 29.206 61.047 29.5938 60.7138C32.7604 59.3924 36.1817 59.4953 39.3082 61.0218C39.6184 61.1733 39.9467 61.2449 40.27 61.2449C41.0828 61.2447 41.8643 60.7915 42.2447 60.0119C42.777 58.9222 42.3249 57.6073 41.2349 57.0751C36.9945 55.0046 32.3572 54.8453 28.0564 56.5966C23.7545 54.8453 19.1174 55.0048 14.8779 57.0751C13.7879 57.6073 13.336 58.9222 13.868 60.0119C14.4005 61.1016 15.7156 61.5537 16.8048 61.0218Z" fill="#102E46"/>
<path d="M102.602 11.1121C78.5522 -2.77326 47.8683 5.2516 33.6547 28.9918C33.6522 28.9905 33.6514 28.9866 33.6465 28.9839L31.4505 32.7873C33.4925 33.9662 33.9558 35.305 34.597 37.1586C35.3313 39.2687 36.2435 41.8937 39.7002 43.8892C43.1566 45.8848 45.8862 45.3624 48.0805 44.9433C50.0064 44.5719 51.4 44.3051 53.4395 45.4827C55.479 46.6603 55.9448 48.0003 56.586 49.854C57.3203 51.9641 58.2324 54.589 61.6891 56.5846C65.1456 58.5802 67.8752 58.0578 70.0673 57.6373C71.2753 57.4062 72.2707 57.2138 73.3472 57.3914L52.2372 93.9552H29.2068L14.3319 79.083C12.3638 77.1122 9.74235 75.9373 7.32131 75.9373C5.44925 75.9373 3.78032 76.6181 2.49294 77.9055C-0.792764 81.1884 -0.833938 85.3937 2.38863 88.6163L12.8716 99.0965V121.503C12.8716 122.717 13.8543 123.699 15.0676 123.699C16.2808 123.699 17.2635 122.717 17.2635 121.503V103.488L19.7148 105.942C21.2958 107.523 23.3985 108.394 25.6356 108.394H81.6326C81.5447 108.63 81.4953 108.885 81.4953 109.151V121.503C81.4953 122.717 82.478 123.699 83.6913 123.699C84.9045 123.699 85.8872 122.717 85.8872 121.503V109.151C85.8872 108.885 85.8378 108.63 85.75 108.394H89.9662L96.4361 114.863C98.0172 116.445 100.12 117.315 102.357 117.315C104.226 117.315 105.92 117.169 107.718 115.371C112.143 110.946 110.52 107.469 108.374 105.322L99.461 96.4997C97.8442 94.883 95.6867 93.9552 93.5402 93.9552H57.3085L77.1492 59.5898C77.8415 60.433 78.1739 61.3891 78.5752 62.5494C79.3071 64.6581 80.2195 67.2831 83.6784 69.28C87.1348 71.2756 89.8644 70.7532 92.0565 70.3327C93.9848 69.9627 95.376 69.6945 97.4155 70.8721C99.4575 72.051 99.9208 73.3897 100.564 75.2448C101.296 77.3535 102.211 79.9798 105.668 81.9754C109.124 83.971 111.854 83.4486 114.048 83.0295C115.974 82.6581 117.367 82.3913 119.407 83.5688L121.603 79.7654C121.6 79.7641 121.597 79.7652 121.594 79.7638C135.045 55.583 126.652 24.9974 102.602 11.1121ZM96.362 99.6128L105.275 108.435C106.23 109.39 106.859 110.019 104.613 112.264C104.034 112.843 103.76 112.923 102.357 112.923C101.292 112.923 100.292 112.509 99.5406 111.756L92.4285 104.644C92.0167 104.233 91.4595 104.002 90.8776 104.002H25.6359C24.5708 104.002 23.5714 103.587 22.8196 102.835L5.49344 85.5093C3.97549 83.9913 4.00568 82.6023 5.59775 81.0103C6.05616 80.5519 6.62134 80.3295 7.32158 80.3295C8.56504 80.3295 10.0995 81.0597 11.2276 82.1879L26.7448 97.7051C27.1566 98.1168 27.7163 98.3474 28.2985 98.3474H93.5404C94.5283 98.3474 95.555 98.8058 96.362 99.6128ZM53.7335 40.7965C51.1554 39.8819 49.0281 40.289 47.254 40.6277C45.3281 40.9991 43.9359 41.2637 41.8964 40.0861C39.8566 38.9085 39.3897 37.5706 38.7485 35.717C38.328 34.5075 37.0373 31.8955 37.0373 31.8955C47.6081 13.5864 68.7747 5.214 88.3201 10.0421C87.9896 10.1206 87.655 10.2002 87.3163 10.293C75.8953 13.4014 64.6013 23.6636 53.7335 40.7965ZM75.6187 53.4573C73.0881 52.5921 70.9934 52.9865 69.243 53.3231C67.3146 53.6931 65.9249 53.9591 63.8854 52.7815C61.8456 51.6039 61.3787 50.266 60.7375 48.4124C60.1597 46.7506 59.4666 44.7723 57.5149 43.0303C70.0766 23.2876 81.0309 16.6829 88.0758 14.6426C92.7016 13.3006 96.2022 13.6989 98.2645 14.2333L75.6187 53.4573ZM97.5041 66.1184C95.02 65.299 92.9577 65.6869 91.2319 66.0185C89.3036 66.3885 87.9138 66.6545 85.8743 65.4769C83.8324 64.2979 83.3677 62.9614 82.724 61.1064C82.1387 59.4245 81.4369 57.4122 79.4221 55.6533L102.068 16.4296C103.564 17.9497 105.657 20.7809 106.81 25.4594C108.564 32.5792 108.323 45.3693 97.5041 66.1184ZM117.386 78.2851C117.386 78.2851 114.481 78.4748 113.221 78.7139C111.295 79.0852 109.903 79.3499 107.864 78.1723C105.822 76.9933 105.357 75.6568 104.713 73.8018C104.122 72.0974 103.41 70.0538 101.332 68.2776C110.733 50.2979 113.974 35.3895 110.957 23.9422C110.866 23.601 110.77 23.273 110.673 22.9475C124.627 37.4603 127.957 59.976 117.386 78.2851Z" fill="#102E46"/>
</g>
<defs>
<clipPath id="clip0_18_166">
<rect width="128" height="128" fill="white"/>
</clipPath>
</defs>
</svg>
