<svg width="332" height="82" viewBox="0 0 332 82" fill="none" xmlns="http://www.w3.org/2000/svg">
<path d="M35.5714 0L43.9687 27.1049H71.1429L49.5459 44.351L57.5558 70.9616L35.5714 54.4883L13.5871 70.9616L21.5969 44.351L0 27.1049H27.1742L35.5714 0Z" fill="#24AD7A"/>
<path d="M35.5714 54.4886L49.5459 44.3513L52.0868 53.2215L35.5714 54.4886Z" fill="#0A532C"/>
<path d="M80.6285 26.5237V32.9959H94.1513V69.6719H101.252V32.9959H114.775V26.5237H80.6285Z" fill="#102E46"/>
<path d="M117.281 39.2832H110.674V69.6719H117.405V51.6729C117.405 47.0499 120.307 44.8925 124.382 44.8925H129.075V39.1599H125.555C121.604 39.1599 119.134 40.3311 117.899 43.4748H117.281V39.2832Z" fill="#102E46"/>
<path d="M160.14 69.6719V39.2832H153.41V54.8782C153.41 61.1039 150.137 64.6174 145.074 64.6174C140.566 64.6174 137.911 62.2134 137.911 57.1589V39.2832H131.119V57.5288C131.119 65.2338 136.058 70.1651 143.036 70.1651C148.84 70.1651 151.557 67.6378 152.916 64.9256H153.533V69.6719H160.14Z" fill="#102E46"/>
<path d="M164.756 47.6047C164.756 53.3989 169.572 55.6796 175.747 56.7891L177.846 57.1589C181.86 57.8986 183.898 58.8849 183.898 61.2272C183.898 63.5695 181.736 65.2955 177.846 65.2955C173.894 65.2955 170.683 63.6928 169.819 58.6999L163.521 60.241C164.57 67.0214 170.004 70.5349 177.846 70.5349C185.503 70.5349 190.443 66.9598 190.443 60.7341C190.443 54.5084 185.441 52.7208 178.772 51.488L176.673 51.1182C173.339 50.5018 171.301 49.5155 171.301 47.1732C171.301 44.9541 173.277 43.598 176.611 43.598C179.946 43.598 182.354 45.0158 183.095 48.7142L189.27 46.865C187.911 41.7488 183.465 38.4203 176.611 38.4203C169.449 38.4203 164.756 41.7488 164.756 47.6047Z" fill="#102E46"/>
<path d="M190.197 44.7692H198.41V63.3846C198.41 67.2063 200.88 69.6719 204.585 69.6719H213.167V64.1243H206.931C205.819 64.1243 205.202 63.5079 205.202 62.2751V44.7692H214.094V39.2832H205.202V29.3591H198.41V39.2832H190.197V44.7692Z" fill="#102E46"/>
<path d="M217.356 82H224.086V65.3571H224.704C226.433 68.0076 229.52 70.5349 235.139 70.5349C242.611 70.5349 249.094 64.3709 249.094 54.4468C249.094 44.5843 242.611 38.4203 235.139 38.4203C229.52 38.4203 226.433 40.9475 224.58 43.7213H223.963V39.2832H217.356V82ZM233.163 64.6791C227.915 64.6791 224.024 60.8574 224.024 54.4468C224.024 48.0362 227.915 44.2145 233.163 44.2145C238.473 44.2145 242.302 48.0362 242.302 54.4468C242.302 60.919 238.473 64.6791 233.163 64.6791Z" fill="#102E46"/>
<path d="M251.995 30.1004C251.995 32.9358 254.156 34.9083 256.997 34.9083C259.837 34.9083 261.998 32.9358 261.998 30.1004C261.998 27.2033 259.837 25.2308 256.997 25.2308C254.156 25.2308 251.995 27.2033 251.995 30.1004ZM260.393 39.1615H253.662V69.5502H260.393V39.1615Z" fill="#102E46"/>
<path d="M273.604 26.402H266.874V69.5503H273.604V26.402Z" fill="#102E46"/>
<path d="M276.902 54.3251C276.902 64.1876 283.632 70.4133 292.771 70.4133C301.909 70.4133 308.578 64.1876 308.578 54.3251C308.578 44.5243 301.909 38.2986 292.771 38.2986C283.632 38.2986 276.902 44.5243 276.902 54.3251ZM283.694 54.3251C283.694 48.0994 287.399 44.2161 292.771 44.2161C298.081 44.2161 301.786 48.0378 301.786 54.3251C301.786 60.6124 298.081 64.4958 292.771 64.4958C287.399 64.4958 283.694 60.6741 283.694 54.3251Z" fill="#102E46"/>
<path d="M308.104 44.6476H316.316V63.263C316.316 67.0847 318.786 69.5503 322.491 69.5503H331.074V64.0027H324.837C323.726 64.0027 323.108 63.3863 323.108 62.1534V44.6476H332V39.1616H323.108V29.2375H316.316V39.1616H308.104V44.6476Z" fill="#102E46"/>
</svg>
