<svg width="128" height="128" viewBox="0 0 128 128" fill="none" xmlns="http://www.w3.org/2000/svg">
<path d="M2.27557 89.8845V94.1512C2.27557 99.0135 6.23106 102.969 11.0934 102.969H116.907C121.769 102.969 125.724 99.0135 125.724 94.1512V89.8845H2.27557Z" fill="#EFEFEF"/>
<path d="M125.724 75.6622H2.27557V89.8845H125.724V75.6622Z" fill="#C6E2EB"/>
<path d="M116.907 25.0311H11.0934C6.23106 25.0311 2.27557 28.9866 2.27557 33.8489V75.6622H125.724V33.8489C125.724 28.9866 121.769 25.0311 116.907 25.0311Z" fill="#EFEFEF"/>
<path d="M25.0311 54.0446H14.2222V65.4223H25.0311V54.0446Z" fill="#FAB32A"/>
<path d="M47.2178 54.0446H36.4089V65.4223H47.2178V54.0446Z" fill="#FAB32A"/>
<path d="M69.4045 54.0446H58.5956V65.4223H69.4045V54.0446Z" fill="#FAB32A"/>
<path d="M91.5911 54.0446H80.7822V65.4223H91.5911V54.0446Z" fill="#FAB32A"/>
<path d="M113.778 54.0446H102.969V65.4223H113.778V54.0446Z" fill="#FAB32A"/>
<path d="M116.907 22.7556H11.0933C4.97493 22.7556 0 27.7334 0 33.8489V94.1512C0 100.267 4.97493 105.245 11.0933 105.245H116.907C123.022 105.245 128 100.267 128 94.1512V33.8489C128 27.7334 123.022 22.7556 116.907 22.7556ZM123.449 94.1512C123.449 97.7579 120.513 100.693 116.907 100.693H11.0933C7.48658 100.693 4.55111 97.7579 4.55111 94.1512V92.1601H123.449V94.1512ZM123.449 87.6089H4.55111V77.9378H123.449V87.6089ZM123.449 73.3867H4.55111V33.8489C4.55111 30.2422 7.48658 27.3067 11.0933 27.3067H116.907C120.513 27.3067 123.449 30.2422 123.449 33.8489V73.3867Z" fill="#102E46"/>
<path d="M25.0311 51.7689H14.2222C12.965 51.7689 11.9467 52.7872 11.9467 54.0445V65.4223C11.9467 66.6795 12.965 67.6978 14.2222 67.6978H25.0311C26.2883 67.6978 27.3067 66.6795 27.3067 65.4223V54.0445C27.3067 52.7872 26.2883 51.7689 25.0311 51.7689ZM22.7555 63.1467H16.4978V56.32H22.7555V63.1467Z" fill="#102E46"/>
<path d="M47.2177 51.7689H36.4089C35.1516 51.7689 34.1333 52.7872 34.1333 54.0445V65.4223C34.1333 66.6795 35.1516 67.6978 36.4089 67.6978H47.2177C48.475 67.6978 49.4933 66.6795 49.4933 65.4223V54.0445C49.4933 52.7872 48.475 51.7689 47.2177 51.7689ZM44.9422 63.1467H38.6844V56.32H44.9422V63.1467Z" fill="#102E46"/>
<path d="M69.4045 51.7689H58.5956C57.3383 51.7689 56.32 52.7872 56.32 54.0445V65.4223C56.32 66.6795 57.3383 67.6978 58.5956 67.6978H69.4045C70.6617 67.6978 71.68 66.6795 71.68 65.4223V54.0445C71.68 52.7872 70.6617 51.7689 69.4045 51.7689ZM67.1289 63.1467H60.8711V56.32H67.1289V63.1467Z" fill="#102E46"/>
<path d="M91.5911 51.7689H80.7822C79.525 51.7689 78.5067 52.7872 78.5067 54.0445V65.4223C78.5067 66.6795 79.525 67.6978 80.7822 67.6978H91.5911C92.8483 67.6978 93.8667 66.6795 93.8667 65.4223V54.0445C93.8667 52.7872 92.8483 51.7689 91.5911 51.7689ZM89.3155 63.1467H83.0578V56.32H89.3155V63.1467Z" fill="#102E46"/>
<path d="M113.778 51.7689H102.969C101.712 51.7689 100.693 52.7872 100.693 54.0445V65.4223C100.693 66.6795 101.712 67.6978 102.969 67.6978H113.778C115.035 67.6978 116.053 66.6795 116.053 65.4223V54.0445C116.053 52.7872 115.035 51.7689 113.778 51.7689ZM111.502 63.1467H105.244V56.32H111.502V63.1467Z" fill="#102E46"/>
<path d="M88.7467 40.3912C88.7467 41.6484 87.7284 42.6667 86.4711 42.6667H25.0311C23.7739 42.6667 22.7556 41.6484 22.7556 40.3912C22.7556 39.1339 23.7739 38.1156 25.0311 38.1156H86.4711C87.7284 38.1156 88.7467 39.1339 88.7467 40.3912Z" fill="#102E46"/>
</svg>
