<svg width="128" height="128" viewBox="0 0 128 128" fill="none" xmlns="http://www.w3.org/2000/svg">
<path d="M49.3517 64.0132C49.3517 47.639 66.337 34.3647 87.2893 34.3647C108.242 34.3647 125.227 47.6387 125.227 64.0132C125.227 77.8482 113.101 89.4697 96.7023 92.7412C96.1123 97.2915 95.8633 105.079 99.6773 110.875C99.6773 110.875 83.3865 104.596 75.9825 92.322C60.5522 88.562 49.3517 77.31 49.3517 64.0132Z" fill="#C6E2EB"/>
<path d="M78.6482 46.7735C78.6482 30.3992 61.663 17.125 40.7107 17.125C19.7585 17.125 2.77374 30.399 2.77374 46.7735C2.77374 60.6085 14.8995 72.2298 31.2982 75.5015C31.8882 80.0518 32.1372 87.8395 28.3232 93.635C28.3232 93.635 44.614 87.3568 52.018 75.0823C67.448 71.3225 78.6482 60.0702 78.6482 46.7735Z" fill="#FAB32A"/>
<path d="M25.1932 43.999C24.461 43.999 23.748 44.2955 23.2322 44.8118C22.7162 45.3275 22.4195 46.043 22.4195 46.7728C22.4195 47.5023 22.7162 48.218 23.2322 48.7335C23.7482 49.2495 24.461 49.5465 25.1932 49.5465C25.9227 49.5465 26.6385 49.2498 27.1542 48.7335C27.6702 48.2178 27.967 47.5023 27.967 46.7728C27.967 46.043 27.6702 45.3273 27.1542 44.8118C26.6382 44.2955 25.9227 43.999 25.1932 43.999Z" fill="#102E46"/>
<path d="M94.587 77.5938C94.2988 77.6598 94.0088 77.7223 93.7155 77.7808C92.2133 78.081 91.239 79.5425 91.5393 81.0445C91.803 82.3635 92.961 83.2753 94.2563 83.2753C94.4365 83.2753 94.6195 83.2578 94.803 83.221C95.147 83.1523 95.4883 83.079 95.8263 83.0015C97.3195 82.6593 98.2525 81.171 97.9103 79.6783C97.5683 78.1845 96.0813 77.25 94.587 77.5938Z" fill="#102E46"/>
<path d="M108.137 50.698C106.93 49.755 105.187 49.9685 104.243 51.1752C103.3 52.3825 103.514 54.1257 104.721 55.0687C106.681 56.601 109.97 59.8007 109.97 64.013C109.97 67.932 106.985 71.9558 101.985 74.7763C100.651 75.529 100.179 77.2208 100.932 78.555C101.442 79.4588 102.382 79.9665 103.35 79.9665C103.812 79.9665 104.28 79.851 104.711 79.608C111.478 75.7908 115.518 69.961 115.518 64.0127C115.518 57.4472 110.893 52.8525 108.137 50.698Z" fill="#102E46"/>
<path d="M40.7098 43.999C39.1785 43.999 37.936 45.2415 37.936 46.7728C37.936 48.3065 39.1788 49.5465 40.7098 49.5465C42.2438 49.5465 43.4863 48.3063 43.4863 46.7728C43.4865 45.2415 42.2438 43.999 40.7098 43.999Z" fill="#102E46"/>
<path d="M56.2293 43.999C55.4998 43.999 54.784 44.2955 54.2683 44.8118C53.7523 45.3275 53.4555 46.043 53.4555 46.7728C53.4555 47.5023 53.7523 48.218 54.2683 48.7335C54.7843 49.2495 55.4998 49.5465 56.2293 49.5465C56.9588 49.5465 57.6745 49.2498 58.1903 48.7335C58.7063 48.2178 59.003 47.5023 59.003 46.7728C59.003 46.043 58.7063 45.3273 58.1903 44.8118C57.6745 44.2955 56.9588 43.999 56.2293 43.999Z" fill="#102E46"/>
<path d="M128 64.0132C128 55.2217 123.675 47 115.823 40.863C108.172 34.8837 98.0385 31.591 87.289 31.591C83.8923 31.591 80.5583 31.9235 77.3438 32.5625C75.3357 29.2785 72.6165 26.2582 69.2448 23.623C61.594 17.6437 51.4605 14.351 40.711 14.351C29.9615 14.351 19.828 17.644 12.1772 23.6232C4.32475 29.7602 0 37.9815 0 46.7735C0 61.1192 11.72 73.639 28.7477 77.7777C29.0672 81.8224 28.886 87.735 26.0065 92.1102C25.3438 93.1172 25.4072 94.437 26.1637 95.3752C26.7015 96.0427 27.502 96.409 28.3242 96.409C28.6585 96.409 28.996 96.3482 29.3213 96.2232C29.9548 95.9792 43.5315 90.6522 51.9045 80.088C52.7892 81.3204 53.7793 82.514 54.8763 83.661C59.8395 88.851 66.51 92.6652 74.2227 94.735C82.2492 107.023 97.9962 113.2 98.6797 113.463C99.0047 113.588 99.3425 113.649 99.6768 113.649C100.499 113.649 101.299 113.283 101.837 112.615C102.594 111.677 102.657 110.357 101.994 109.35C99.1147 104.975 98.9333 99.0627 99.253 95.018C116.28 90.8784 128 78.3587 128 64.0132ZM51.3615 72.3875C50.6432 72.5625 50.0247 73.017 49.643 73.6497C45.6518 80.2665 38.7257 85.0827 33.6452 87.9482C34.6912 83.424 34.5213 78.7855 34.049 75.145C33.896 73.9652 33.0078 73.0142 31.841 72.7815C16.36 69.6927 5.5475 58.9977 5.5475 46.7735C5.5475 31.9547 21.322 19.899 40.711 19.899C60.1 19.899 75.8745 31.9547 75.8745 46.7735C75.8745 58.5207 66.0232 68.8147 51.3615 72.3875ZM96.1588 90.0212C94.992 90.254 94.1038 91.205 93.9508 92.3847C93.4788 96.025 93.3092 100.664 94.3545 105.188C89.2735 102.322 82.348 97.5062 78.3568 90.8892C77.975 90.2565 77.3565 89.802 76.6383 89.627C67.6748 87.4427 60.5135 82.745 56.2985 76.7405C62.9445 74.5605 68.7105 71.0367 73.124 66.4212C78.5525 60.744 81.4222 53.9502 81.4222 46.7732C81.4222 43.6722 80.882 40.6427 79.8405 37.75C82.2422 37.352 84.7333 37.1382 87.289 37.1382C106.678 37.1382 122.452 49.194 122.452 64.0127C122.452 76.2372 111.64 86.9322 96.1588 90.0212Z" fill="#102E46"/>
</svg>
