<svg width="48" height="48" viewBox="0 0 48 48" fill="none" xmlns="http://www.w3.org/2000/svg">
<g clip-path="url(#clip0_42_22)">
<path d="M6.57592 47.0607C5.5383 47.0607 4.69727 46.2196 4.69727 45.1821V2.81811C4.69727 1.78048 5.53839 0.939453 6.57592 0.939453C7.61355 0.939453 8.45458 1.78058 8.45458 2.81811V45.1821C8.45458 46.2197 7.61345 47.0607 6.57592 47.0607Z" fill="#FAB32A"/>
<path d="M29.1192 9.5813H43.3031L37.7611 20.8532L43.3031 32.1253H23.4521V26.4893" fill="#C6E2EB"/>
<path d="M29.1195 5.82373H8.4541V28.3678H29.1195V5.82373Z" fill="#C6E2EB"/>
<path d="M26.3019 24.269V13.3385C26.3019 12.8197 25.8813 12.3992 25.3625 12.3992C24.8438 12.3992 24.4232 12.8197 24.4232 13.3385V23.3297H19.7265C19.2078 23.3297 18.7871 23.7502 18.7871 24.269C18.7871 24.7879 19.2078 25.2084 19.7265 25.2084H25.3624C25.8813 25.2083 26.3019 24.7878 26.3019 24.269Z" fill="#102E46"/>
<path d="M38.8075 20.8532L44.1457 9.99563C44.2889 9.70444 44.2717 9.36009 44.1003 9.08466C43.9286 8.80922 43.6272 8.64188 43.3027 8.64188H30.0582V5.82384C30.0582 5.30503 29.6376 4.88447 29.1188 4.88447H9.3929V2.81803C9.3929 1.26412 8.12868 0 6.57487 0C5.02105 0 3.75684 1.26412 3.75684 2.81803V45.1821C3.75684 46.7359 5.02096 48.0001 6.57487 48.0001C8.12877 48.0001 9.3929 46.736 9.3929 45.1821V29.3073H22.5126V32.1253C22.5126 32.6441 22.9332 33.0647 23.4519 33.0647H43.3029C43.6274 33.0647 43.9288 32.8973 44.1004 32.6219C44.2718 32.3465 44.2891 32.0021 44.1458 31.7109L38.8075 20.8532ZM7.51415 45.182C7.51415 45.6999 7.09274 46.1213 6.57477 46.1213C6.0568 46.1213 5.6354 45.6999 5.6354 45.182V2.81803C5.6354 2.30006 6.0568 1.87866 6.57477 1.87866C7.09274 1.87866 7.51415 2.30006 7.51415 2.81803V5.82394V28.368V45.182ZM9.3929 6.76322H28.1796V27.4286H9.3929V6.76322ZM24.3912 31.1859V29.3073H29.1188C29.6376 29.3073 30.0582 28.8867 30.0582 28.3679V10.5205H41.7943L36.9178 20.4388C36.7893 20.7001 36.7893 21.0064 36.9178 21.2677L41.7943 31.1859H24.3912Z" fill="#102E46"/>
<path d="M16.9269 23.2954H16.9081C16.3894 23.2954 15.9688 23.716 15.9688 24.2348C15.9688 24.7536 16.3894 25.1742 16.9081 25.1742H16.9269C17.4456 25.1742 17.8663 24.7536 17.8663 24.2348C17.8663 23.716 17.4457 23.2954 16.9269 23.2954Z" fill="#102E46"/>
</g>
<defs>
<clipPath id="clip0_42_22">
<rect width="48" height="48" fill="white"/>
</clipPath>
</defs>
</svg>
