<svg width="48" height="48" viewBox="0 0 48 48" fill="none" xmlns="http://www.w3.org/2000/svg">
<path d="M23.0119 28.1312C20.916 28.3511 18.9775 29.3372 17.5537 30.9082C16.1191 32.4907 15.3291 34.5366 15.3291 36.6691V47.1049H24.0004V28.0276L23.0119 28.1312Z" fill="#C6E2EB"/>
<path d="M30.4468 30.9083C29.0228 29.3374 27.0844 28.3512 24.9885 28.1313L24 28.084V47.105H32.6713V36.6692C32.6713 34.5367 31.8813 32.4908 30.4468 30.9083Z" fill="#C6E2EB"/>
<path d="M46.3782 40.1677H32.6719V47.1048H46.3782V40.1677Z" fill="#FAB32A"/>
<path d="M15.3293 40.1677H1.62305V47.1048H15.3293V40.1677Z" fill="#FAB32A"/>
<path d="M1.62305 23.6084V40.1678H15.3293V36.6691C15.3293 31.9352 19.1801 28.0839 23.9134 28.0839H24.0868C28.8208 28.0839 32.672 31.9352 32.672 36.6691V40.1678H46.3783V23.6084H1.62305Z" fill="#EFEFEF"/>
<path d="M41.9024 28.3076H36.7275V36.1398H41.9024V28.3076Z" fill="#C6E2EB"/>
<path d="M11.2725 28.3076H6.09766V36.1398H11.2725V28.3076Z" fill="#C6E2EB"/>
<path d="M33.5112 4.5874V7.60838H14.4902V4.5874H1.62305V23.6084H46.3783V4.5874H33.5112Z" fill="#EFEFEF"/>
<path d="M11.2725 11.5244H6.09766V19.3566H11.2725V11.5244Z" fill="#C6E2EB"/>
<path d="M21.4824 11.5244H16.3076V19.3566H21.4824V11.5244Z" fill="#C6E2EB"/>
<path d="M31.6924 11.5244H26.5176V19.3566H31.6924V11.5244Z" fill="#C6E2EB"/>
<path d="M41.9024 11.5244H36.7275V19.3566H41.9024V11.5244Z" fill="#C6E2EB"/>
<path d="M33.5112 0.89502H14.4902V7.60831H33.5112V0.89502Z" fill="#FAB32A"/>
<path d="M11.2731 10.6294H6.09823C5.60368 10.6294 5.20312 11.03 5.20312 11.5245V19.3567C5.20312 19.8512 5.60368 20.2518 6.09823 20.2518H11.2731C11.7676 20.2518 12.1682 19.8512 12.1682 19.3567V11.5245C12.1682 11.03 11.7676 10.6294 11.2731 10.6294ZM10.378 18.4616H6.99333V12.4196H10.378V18.4616Z" fill="#102E46"/>
<path d="M21.483 10.6294H16.3082C15.8136 10.6294 15.4131 11.03 15.4131 11.5245V19.3567C15.4131 19.8512 15.8136 20.2518 16.3082 20.2518H21.483C21.9776 20.2518 22.3781 19.8512 22.3781 19.3567V11.5245C22.3781 11.03 21.9776 10.6294 21.483 10.6294ZM20.5879 18.4616H17.2033V12.4196H20.5879V18.4616Z" fill="#102E46"/>
<path d="M31.693 10.6294H26.5182C26.0236 10.6294 25.623 11.03 25.623 11.5245V19.3567C25.623 19.8512 26.0236 20.2518 26.5182 20.2518H31.693C32.1875 20.2518 32.5881 19.8512 32.5881 19.3567V11.5245C32.5881 11.03 32.1875 10.6294 31.693 10.6294ZM30.7979 18.4616H27.4133V12.4196H30.7979V18.4616Z" fill="#102E46"/>
<path d="M41.902 10.6294H36.7271C36.2326 10.6294 35.832 11.03 35.832 11.5245V19.3567C35.832 19.8512 36.2326 20.2518 36.7271 20.2518H41.902C42.3965 20.2518 42.7971 19.8512 42.7971 19.3567V11.5245C42.7971 11.03 42.3965 10.6294 41.902 10.6294ZM41.0069 18.4616H37.6222V12.4196H41.0069V18.4616Z" fill="#102E46"/>
<path d="M11.2731 27.4126H6.09823C5.60368 27.4126 5.20312 27.8132 5.20312 28.3077V36.1399C5.20312 36.6344 5.60368 37.035 6.09823 37.035H11.2731C11.7676 37.035 12.1682 36.6344 12.1682 36.1399V28.3077C12.1682 27.8132 11.7676 27.4126 11.2731 27.4126ZM10.378 35.2448H6.99333V29.2028H10.378V35.2448Z" fill="#102E46"/>
<path d="M41.902 27.4126H36.7271C36.2326 27.4126 35.832 27.8132 35.832 28.3077V36.1399C35.832 36.6344 36.2326 37.035 36.7271 37.035H41.902C42.3965 37.035 42.7971 36.6344 42.7971 36.1399V28.3077C42.7971 27.8132 42.3965 27.4126 41.902 27.4126ZM41.0069 35.2448H37.6222V29.2028H41.0069V35.2448Z" fill="#102E46"/>
<path d="M46.3779 3.69231H34.4059V0.895105C34.4059 0.400559 34.0053 0 33.5108 0H14.4898C13.9952 0 13.5947 0.400559 13.5947 0.895105V3.69231H1.62264C1.1281 3.69231 0.727539 4.09287 0.727539 4.58741V47.1049C0.727539 47.5994 1.1281 48 1.62264 48H46.3779C46.8724 48 47.273 47.5994 47.273 47.1049V4.58741C47.273 4.09287 46.8724 3.69231 46.3779 3.69231ZM15.3849 1.79021H32.6157V6.71329H15.3849V1.79021ZM14.4338 46.2098H2.51775V41.0629H14.4338V46.2098ZM23.1052 46.2098H16.224V36.6691C16.224 32.7015 19.2439 29.4266 23.1052 29.0215V46.2098ZM31.7765 46.2098H24.8954V29.0215C28.7566 29.4266 31.7765 32.7015 31.7765 36.6691V46.2098ZM45.4828 46.2098H33.5667V41.0629H45.4828V46.2098ZM45.4828 39.2727H33.5667V36.6691C33.5667 31.4417 29.3138 27.1888 24.0864 27.1888H23.913C18.6867 27.1888 14.4338 31.4417 14.4338 36.6691V39.2727H2.51775V24.5035H45.4828V39.2727ZM45.4828 22.7133H2.51775V5.48252H13.5947V7.60839C13.5947 8.10294 13.9952 8.5035 14.4898 8.5035H33.5108C34.0053 8.5035 34.4059 8.10294 34.4059 7.60839V5.48252H45.4828V22.7133Z" fill="#102E46"/>
</svg>
