<svg width="48" height="48" viewBox="0 0 48 48" fill="none" xmlns="http://www.w3.org/2000/svg">
<path d="M39.9375 30.1875C41.4909 30.1875 42.75 31.4466 42.75 33C42.75 34.5525 41.49 35.8125 39.9375 35.8125H38.7188L38.7009 35.8866C39.9469 36.1744 40.875 37.2909 40.875 38.625C40.875 40.1775 39.615 41.4375 38.0625 41.4375H36.1875C37.7409 41.4375 39 42.6966 39 44.25C39 45.8034 37.7409 47.0625 36.1875 47.0625C35.0697 47.0625 27.1716 47.0625 26.1056 47.0625C20.9709 47.0625 19.6059 46.4325 14.625 45.1875V26.4375C14.7242 26.3598 29.625 23.6364 29.625 14.625V13.6875C29.625 12.1341 30.8841 10.875 32.4375 10.875C33.9891 10.875 35.2472 12.1312 35.25 13.6828C35.2687 13.6828 35.8556 19.6012 33.375 24.5625H41.8125C43.3659 24.5625 44.625 25.8216 44.625 27.375C44.625 28.9275 43.365 30.1875 41.8125 30.1875H39.9375Z" fill="#FFF9ED"/>
<path d="M14.625 26.4375V45.1875C14.625 46.2234 13.7859 47.0625 12.75 47.0625H3.375V24.5625H12.75C13.7859 24.5625 14.625 25.4016 14.625 26.4375Z" fill="#FAB32A"/>
<path d="M33.375 5.25V0.9375C33.375 0.419813 32.9552 0 32.4375 0C31.9198 0 31.5 0.419813 31.5 0.9375V5.25C31.5 5.76769 31.9198 6.1875 32.4375 6.1875C32.9552 6.1875 33.375 5.76769 33.375 5.25Z" fill="#102E46"/>
<path d="M10.875 29.25C10.3575 29.25 9.9375 29.67 9.9375 30.1875C9.9375 30.705 10.3575 31.125 10.875 31.125C11.3925 31.125 11.8125 30.705 11.8125 30.1875C11.8125 29.67 11.3925 29.25 10.875 29.25Z" fill="#102E46"/>
<path d="M41.8125 23.625H34.8139C35.8973 20.8497 36.3359 17.5831 36.2513 14.6752C36.2352 14.1203 36.2139 13.7994 36.1852 13.5974C36.1367 11.5718 34.4734 9.9375 32.4375 9.9375C30.3698 9.9375 28.6875 11.6198 28.6875 13.6875V14.625C28.6875 20.5543 21.0737 23.8857 15.3278 25.3143C14.8933 24.3211 13.9016 23.625 12.75 23.625H3.375C2.85731 23.625 2.4375 24.0448 2.4375 24.5625V47.0625C2.4375 47.5802 2.85731 48 3.375 48H12.75C13.8939 48 14.8799 47.3131 15.3188 46.3304C15.7946 46.4525 16.2363 46.5678 16.644 46.6743C19.9173 47.5292 21.7204 48 26.1056 48H36.1875C38.2552 48 39.9375 46.3177 39.9375 44.25C39.9375 43.479 39.7034 42.7618 39.3028 42.1652C40.7511 41.6587 41.8125 40.2749 41.8125 38.625C41.8125 37.8568 41.5841 37.1373 41.1847 36.5379C42.6266 36.0306 43.6875 34.65 43.6875 33C43.6875 32.229 43.4534 31.5118 43.0528 30.9152C44.5011 30.4087 45.5625 29.0249 45.5625 27.375C45.5625 25.3073 43.8802 23.625 41.8125 23.625ZM13.6875 45.1875C13.6875 45.7044 13.2669 46.125 12.75 46.125H4.3125V25.5H12.75C13.2669 25.5 13.6875 25.9206 13.6875 26.4375V45.1875ZM41.8125 29.25C39.8017 29.25 39.3223 29.25 37.125 29.25C36.6073 29.25 36.1875 29.6698 36.1875 30.1875C36.1875 30.7052 36.6073 31.125 37.125 31.125H39.9375C40.9714 31.125 41.8125 31.9661 41.8125 33C41.8125 34.0356 40.9731 34.875 39.9375 34.875H35.25C34.7323 34.875 34.3125 35.2948 34.3125 35.8125C34.3125 36.3302 34.7323 36.75 35.25 36.75H38.0625C39.0841 36.75 39.9375 37.5661 39.9375 38.625C39.9375 39.6606 39.0981 40.5 38.0625 40.5C36.0517 40.5 35.5723 40.5 33.375 40.5C32.8573 40.5 32.4375 40.9198 32.4375 41.4375C32.4375 41.9552 32.8573 42.375 33.375 42.375H36.1875C37.2214 42.375 38.0625 43.2161 38.0625 44.25C38.0625 45.2839 37.2214 46.125 36.1875 46.125H26.1056C21.9612 46.125 20.3425 45.7023 17.1178 44.8601C16.6454 44.7367 16.1272 44.6015 15.5625 44.4575V27.1898C22.347 25.5738 30.5625 21.6292 30.5625 14.625V13.6875C30.5625 12.6536 31.4036 11.8125 32.4375 11.8125C33.4695 11.8125 34.3105 12.6523 34.3125 13.6846V13.6875C34.3125 14.0949 34.821 19.0953 32.7819 23.625H29.625C29.1073 23.625 28.6875 24.0448 28.6875 24.5625C28.6875 25.0802 29.1073 25.5 29.625 25.5C30.2797 25.5 40.7439 25.5 41.8125 25.5C42.8464 25.5 43.6875 26.3411 43.6875 27.375C43.6875 28.4106 42.8481 29.25 41.8125 29.25Z" fill="#102E46"/>
<path d="M10.875 33C10.3573 33 9.9375 33.4198 9.9375 33.9375V41.4375C9.9375 41.9552 10.3573 42.375 10.875 42.375C11.3927 42.375 11.8125 41.9552 11.8125 41.4375V33.9375C11.8125 33.4198 11.3927 33 10.875 33Z" fill="#102E46"/>
<path d="M20.25 12.75C20.25 13.2677 20.6698 13.6875 21.1875 13.6875H24.9375C25.4552 13.6875 25.875 13.2677 25.875 12.75C25.875 12.2323 25.4552 11.8125 24.9375 11.8125H21.1875C20.6698 11.8125 20.25 12.2323 20.25 12.75Z" fill="#102E46"/>
<path d="M39 12.75C39 13.2677 39.4198 13.6875 39.9375 13.6875H43.6875C44.2052 13.6875 44.625 13.2677 44.625 12.75C44.625 12.2323 44.2052 11.8125 43.6875 11.8125H39.9375C39.4198 11.8125 39 12.2323 39 12.75Z" fill="#102E46"/>
<path d="M39.7294 4.13241L37.0783 6.78357C36.7122 7.14966 36.7122 7.74328 37.0783 8.10947C37.4446 8.47556 38.0379 8.47547 38.4042 8.10947L41.0554 5.45832C41.4214 5.09222 41.4214 4.4986 41.0554 4.13241C40.6892 3.76641 40.0957 3.76641 39.7294 4.13241Z" fill="#102E46"/>
<path d="M27.7966 8.10947C28.1626 7.74338 28.1626 7.14975 27.7966 6.78357L25.1454 4.13241C24.7792 3.76641 24.1858 3.76641 23.8195 4.13241C23.4534 4.4985 23.4534 5.09213 23.8195 5.45832L26.4706 8.10947C26.837 8.47556 27.4304 8.47547 27.7966 8.10947Z" fill="#102E46"/>
</svg>
