<svg width="146" height="40" viewBox="0 0 146 40" fill="none" xmlns="http://www.w3.org/2000/svg">
<circle cx="15" cy="20" r="14" fill="#02BCF3" stroke="white"/>
<path d="M15 6C11.287 6 7.72601 7.475 5.1005 10.1005C2.475 12.726 1 16.287 0.999999 20C0.999999 23.713 2.47499 27.274 5.1005 29.8995C7.72601 32.525 11.287 34 15 34L15 20L15 6Z" fill="#88A550" stroke="white"/>
<path d="M32.2304 4.92512C30.8705 6.05384 29.5782 6.95825 29.5782 6.95825C29.5782 6.95825 28.4598 6.61931 27.0074 6.15032C27.2449 5.93427 27.423 5.77224 27.4879 5.6047C27.5045 5.2641 27.1248 4.90422 26.839 4.94721C26.6098 4.99295 26.1915 5.4278 25.9457 5.81414C25.3313 5.61353 24.6603 5.41017 24.0459 5.20957C24.2834 4.99353 24.4615 4.83149 24.4698 4.66119C24.4864 4.3206 24.1067 3.96071 23.8209 4.0037C23.5917 4.04945 23.1734 4.48429 22.9276 4.87063C20.6344 4.19001 18.5648 3.57717 18.3922 3.62567C17.9904 3.71992 17.3401 4.25727 17.3912 4.37356C17.4423 4.48985 19.4981 5.38652 21.2708 6.26941C21.0899 6.48821 20.9684 6.65299 21.0223 6.71251C21.0761 6.77204 21.3081 6.66952 21.6021 6.45624C21.7126 6.51851 21.8796 6.58355 21.9901 6.64582C21.812 6.80786 21.7471 6.9754 21.8009 7.03492C21.8548 7.09444 22.0301 6.98918 22.3214 6.83265C23.0408 7.20907 23.6524 7.46644 23.7601 7.58548L23.8139 7.645C23.633 7.8638 23.5709 7.97458 23.5681 8.03135C23.622 8.09087 23.7973 7.9856 24.032 7.82632C24.1425 7.8886 24.2502 8.00764 24.3606 8.06992C24.1825 8.23195 24.1176 8.39949 24.1715 8.45901C24.2253 8.51854 24.4007 8.41327 24.6326 8.31076C25.4513 8.97651 26.4316 9.82083 26.4316 9.82083C26.4316 9.82083 22.8045 13.229 21.8918 14.4933C20.9792 15.7576 18.9896 18.1644 19.205 18.4025C19.4204 18.6406 22.1127 16.9508 23.4533 16.2194C24.7939 15.4881 28.6902 12.3775 28.6902 12.3775C28.6902 12.3775 29.3736 13.4919 29.8983 14.3709C29.7174 14.5897 29.5959 14.7545 29.6525 14.7573C29.7063 14.8168 29.8223 14.7655 30.057 14.6062C30.1647 14.7253 30.2158 14.8416 30.2669 14.9579C30.086 15.1767 29.9645 15.3414 30.0183 15.401C30.0722 15.4605 30.2475 15.3552 30.4229 15.25L30.4767 15.3095C30.5816 15.4853 30.7804 16.064 31.0814 16.8752C30.8439 17.0913 30.7197 17.3128 30.7763 17.3156C30.8301 17.3751 30.9461 17.3238 31.1808 17.1646C31.2319 17.2809 31.2802 17.4539 31.3313 17.5702C31.091 17.843 30.9102 18.0618 30.964 18.1213C31.0179 18.1809 31.1932 18.0756 31.4279 17.9163C32.0188 19.7659 32.7063 21.9616 32.7601 22.0211C32.9272 22.0861 33.4643 21.5433 33.6534 21.1542C33.7183 20.9866 33.4243 18.867 33.0309 16.458C33.4382 16.2502 33.967 15.8777 34.0347 15.6534C34.1051 15.3723 33.7875 14.9016 33.4479 14.8851C33.3347 14.8796 33.1 15.0389 32.8625 15.2549C32.7258 14.5654 32.643 13.9355 32.5602 13.3056C32.9675 13.0978 33.4963 12.7252 33.5639 12.5009C33.6344 12.2198 33.3168 11.7492 32.9772 11.7326C32.864 11.7271 32.6293 11.8864 32.3918 12.1025C32.1267 10.5532 31.9556 9.40689 31.9556 9.40689C31.9556 9.40689 33.0919 8.21038 34.3386 7.07615C35.5882 5.88516 34.9503 5.0006 34.7322 4.81928C34.3442 4.6297 33.5311 3.85041 32.2304 4.92512Z" fill="white"/>
<path d="M44.1473 32.432C41.6993 32.432 39.7313 31.748 38.2433 30.38C36.7793 28.988 36.0473 27.02 36.0473 24.476H40.6553C40.6793 25.652 40.9553 26.588 41.4833 27.284C42.0113 27.98 42.8633 28.328 44.0393 28.328C45.1433 28.328 45.9473 28.004 46.4513 27.356C46.9553 26.684 47.2073 25.808 47.2073 24.728V6.8H51.8153V24.728C51.8153 27.2 51.1193 29.108 49.7273 30.452C48.3593 31.772 46.4993 32.432 44.1473 32.432ZM65.2875 32.432C63.4875 32.432 61.8915 32.048 60.4995 31.28C59.1075 30.512 58.0155 29.432 57.2235 28.04C56.4315 26.648 56.0355 25.04 56.0355 23.216C56.0355 21.368 56.4195 19.724 57.1875 18.284C57.9795 16.844 59.0595 15.728 60.4275 14.936C61.8195 14.12 63.4515 13.712 65.3235 13.712C67.0755 13.712 68.6235 14.096 69.9675 14.864C71.3115 15.632 72.3555 16.688 73.0995 18.032C73.8675 19.352 74.2515 20.828 74.2515 22.46C74.2515 22.724 74.2395 23 74.2155 23.288C74.2155 23.576 74.2035 23.876 74.1795 24.188H60.6075C60.7035 25.58 61.1835 26.672 62.0475 27.464C62.9355 28.256 64.0035 28.652 65.2515 28.652C66.1875 28.652 66.9675 28.448 67.5915 28.04C68.2395 27.608 68.7195 27.056 69.0315 26.384H73.7115C73.3755 27.512 72.8115 28.544 72.0195 29.48C71.2515 30.392 70.2915 31.112 69.1395 31.64C68.0115 32.168 66.7275 32.432 65.2875 32.432ZM65.3235 17.456C64.1955 17.456 63.1995 17.78 62.3355 18.428C61.4715 19.052 60.9195 20.012 60.6795 21.308H69.5715C69.4995 20.132 69.0675 19.196 68.2755 18.5C67.4835 17.804 66.4995 17.456 65.3235 17.456ZM85.7667 32C83.8947 32 82.3947 31.544 81.2667 30.632C80.1387 29.72 79.5747 28.1 79.5747 25.772V17.996H76.5147V14.144H79.5747L80.1147 9.356H84.1827V14.144H89.0067V17.996H84.1827V25.808C84.1827 26.672 84.3627 27.272 84.7227 27.608C85.1067 27.92 85.7547 28.076 86.6667 28.076H88.8987V32H85.7667ZM100.343 32.432C98.759 32.432 97.367 32.18 96.167 31.676C94.967 31.148 94.007 30.428 93.287 29.516C92.567 28.604 92.135 27.548 91.991 26.348H96.635C96.779 27.044 97.163 27.644 97.787 28.148C98.435 28.628 99.263 28.868 100.271 28.868C101.279 28.868 102.011 28.664 102.467 28.256C102.947 27.848 103.187 27.38 103.187 26.852C103.187 26.084 102.851 25.568 102.179 25.304C101.507 25.016 100.571 24.74 99.371 24.476C98.603 24.308 97.823 24.104 97.031 23.864C96.239 23.624 95.507 23.324 94.835 22.964C94.187 22.58 93.659 22.1 93.251 21.524C92.843 20.924 92.639 20.192 92.639 19.328C92.639 17.744 93.263 16.412 94.511 15.332C95.783 14.252 97.559 13.712 99.839 13.712C101.951 13.712 103.631 14.204 104.879 15.188C106.151 16.172 106.907 17.528 107.147 19.256H102.791C102.527 17.936 101.531 17.276 99.803 17.276C98.939 17.276 98.267 17.444 97.787 17.78C97.331 18.116 97.103 18.536 97.103 19.04C97.103 19.568 97.451 19.988 98.147 20.3C98.843 20.612 99.767 20.9 100.919 21.164C102.167 21.452 103.307 21.776 104.339 22.136C105.395 22.472 106.235 22.988 106.859 23.684C107.483 24.356 107.795 25.328 107.795 26.6C107.819 27.704 107.531 28.7 106.931 29.588C106.331 30.476 105.467 31.172 104.339 31.676C103.211 32.18 101.879 32.432 100.343 32.432ZM120.553 32.432C118.753 32.432 117.157 32.048 115.765 31.28C114.373 30.512 113.281 29.432 112.489 28.04C111.697 26.648 111.301 25.04 111.301 23.216C111.301 21.368 111.685 19.724 112.453 18.284C113.245 16.844 114.325 15.728 115.693 14.936C117.085 14.12 118.717 13.712 120.589 13.712C122.341 13.712 123.889 14.096 125.233 14.864C126.577 15.632 127.621 16.688 128.365 18.032C129.133 19.352 129.517 20.828 129.517 22.46C129.517 22.724 129.505 23 129.481 23.288C129.481 23.576 129.469 23.876 129.445 24.188H115.873C115.969 25.58 116.449 26.672 117.313 27.464C118.201 28.256 119.269 28.652 120.517 28.652C121.453 28.652 122.233 28.448 122.857 28.04C123.505 27.608 123.985 27.056 124.297 26.384H128.977C128.641 27.512 128.077 28.544 127.285 29.48C126.517 30.392 125.557 31.112 124.405 31.64C123.277 32.168 121.993 32.432 120.553 32.432ZM120.589 17.456C119.461 17.456 118.465 17.78 117.601 18.428C116.737 19.052 116.185 20.012 115.945 21.308H124.837C124.765 20.132 124.333 19.196 123.541 18.5C122.749 17.804 121.765 17.456 120.589 17.456ZM141.032 32C139.16 32 137.66 31.544 136.532 30.632C135.404 29.72 134.84 28.1 134.84 25.772V17.996H131.78V14.144H134.84L135.38 9.356H139.448V14.144H144.272V17.996H139.448V25.808C139.448 26.672 139.628 27.272 139.988 27.608C140.372 27.92 141.02 28.076 141.932 28.076H144.164V32H141.032Z" fill="white"/>
</svg>
