<svg width="128" height="128" viewBox="0 0 128 128" fill="none" xmlns="http://www.w3.org/2000/svg">
<g clip-path="url(#clip0_18_118)">
<path d="M33.3734 50.1287C26.1793 50.1287 20.3262 55.9818 20.3262 63.1759C20.3262 69.0403 29.0233 79.8793 31.6888 83.0618L33.3742 85.074L35.0585 83.0609C37.724 79.8755 46.4206 69.0271 46.4206 63.1759C46.4206 55.9818 40.5675 50.1287 33.3734 50.1287Z" fill="#FAB32A"/>
<path d="M94.3519 33.3733C87.1578 33.3733 81.3047 39.2264 81.3047 46.4205C81.3047 52.2849 90.0019 63.124 92.6673 66.3064L94.3527 68.3187L96.0371 66.3056C98.7026 63.1201 107.399 52.2717 107.399 46.4205C107.399 39.2264 101.546 33.3733 94.3519 33.3733Z" fill="#C6E2EB"/>
<path d="M124.758 25.4351C118.504 21.58 111.985 19.4268 104.828 18.8527L102.455 18.6621V36.1605L103.167 36.8134C105.856 39.2819 107.399 42.7838 107.399 46.4205C107.399 48.1153 106.603 51.3667 102.808 57.2302L102.455 57.7749V91.465L104.493 91.6128C110.951 92.0814 116.858 93.8234 122.55 96.9385L125.802 98.7181V26.079L124.758 25.4351Z" fill="#D1D5D8"/>
<path d="M94.3519 33.3734C96.0992 33.3734 97.7989 33.7165 99.4041 34.393L102.455 35.6788V18.6682L100.226 18.7004C89.0762 18.861 77.8803 22.5901 65.4508 27.0791L64 27.6032V100.388L66.9407 99.3316C78.2085 95.282 89.2377 91.6351 100.287 91.4895L102.455 91.4609V58.159L98.5226 63.2199C96.5178 65.8002 94.8233 67.7274 94.3517 68.2553C89.8387 63.2001 81.3047 52.1306 81.3047 46.4206C81.3047 39.2265 87.1578 33.3734 94.3519 33.3734Z" fill="#ECF0F1"/>
<path d="M61.059 28.6659C49.795 32.7166 38.7692 36.3646 27.7136 36.5104L25.5451 36.539V52.2542L28.5558 51.0549C30.0984 50.4402 31.7193 50.1287 33.3734 50.1287C40.5675 50.1287 46.4206 55.9818 46.4206 63.1759C46.4206 68.8859 37.8866 79.9555 33.3695 85.0071C33.0707 84.6739 31.4781 82.8816 29.4724 80.3205L25.5451 75.306V109.332L27.7741 109.3C38.9164 109.139 50.115 105.409 62.5491 100.918L64 100.394V27.6084L61.059 28.6659Z" fill="#D1D5D8"/>
<path d="M24.7949 53.3586L25.5451 52.7021V36.531L23.5059 36.3841C17.0526 35.9185 11.1462 34.1773 5.44962 31.0611L2.19743 29.282V101.921L3.24175 102.565C9.4959 106.42 16.0148 108.573 23.1718 109.147L25.5451 109.338V74.942L25.1839 74.3924C21.1689 68.2857 20.3262 64.922 20.3262 63.1759C20.3262 59.423 21.955 55.8447 24.7949 53.3586Z" fill="#ECF0F1"/>
<path d="M33.3734 58.369C30.723 58.369 28.5665 60.5255 28.5665 63.1759C28.5665 65.8263 30.723 67.9828 33.3734 67.9828C36.0238 67.9828 38.1803 65.8263 38.1803 63.1759C38.1803 60.5255 36.0238 58.369 33.3734 58.369Z" fill="#D1D5D8"/>
<path d="M94.3519 41.6136C91.7016 41.6136 89.5451 43.7701 89.5451 46.4205C89.5451 49.0709 91.7016 51.2274 94.3519 51.2274C97.0023 51.2274 99.1588 49.0709 99.1588 46.4205C99.1588 43.7701 97.0023 41.6136 94.3519 41.6136Z" fill="#D1D5D8"/>
<path d="M127 24.254C118.974 19.0324 110.451 16.4944 100.95 16.4944C88.2486 16.4944 75.542 21.0925 63.2529 25.5395C51.3181 29.8547 38.9796 34.321 27.0503 34.321C18.4254 34.321 10.6877 32.0137 3.39502 27.2728C2.71931 26.8333 1.85682 26.7976 1.1509 27.1821C0.442232 27.5667 0 28.3083 0 29.1131V101.903C0 102.647 0.376309 103.339 0.999828 103.746C9.02867 108.968 17.5464 111.506 27.0421 111.506H27.0503C39.7487 111.503 52.4553 106.907 64.7444 102.46C76.6791 98.1452 89.0177 93.6789 100.95 93.6789C109.575 93.6789 117.312 95.9862 124.605 100.727C125.281 101.167 126.143 101.202 126.849 100.818C127.558 100.433 128 99.6916 128 98.8868V26.0971C128 25.3528 127.624 24.6606 127 24.254ZM23.3476 106.957C16.5713 106.413 10.3306 104.353 4.39485 100.694V32.9888C10.3499 36.2465 16.607 38.0896 23.3476 38.5758V51.7054C20.1531 54.5016 18.1288 58.6053 18.1288 63.1759C18.1288 66.6506 20.5432 71.3339 23.3476 75.5996V106.957ZM22.5236 63.1759C22.5236 57.1934 27.3909 52.3261 33.3734 52.3261C39.3559 52.3261 44.2232 57.1934 44.2232 63.1759C44.2232 67.3126 38.1171 75.9814 33.3734 81.6508C28.627 75.9842 22.5236 67.3181 22.5236 63.1759ZM61.8026 98.8511C50.5545 102.914 38.9741 106.94 27.7425 107.102V81.6755C29.6872 84.1586 31.2803 85.9687 31.7336 86.4741C32.1511 86.9438 32.7471 87.2103 33.3734 87.2103C33.9997 87.2103 34.5957 86.9438 35.0132 86.4741C36.4058 84.914 48.618 70.9933 48.618 63.1759C48.618 54.7708 41.7785 47.9313 33.3734 47.9313C31.3847 47.9313 29.4867 48.3186 27.7425 49.0135V38.7076C39.2021 38.5565 50.6589 34.7413 61.8026 30.7337V98.8511ZM100.258 89.2923C88.7979 89.4434 77.3411 93.2587 66.1974 97.2635V29.1461C77.4455 25.0836 89.0259 21.0595 100.258 20.8975V32.368C98.4391 31.6017 96.445 31.1759 94.3519 31.1759C85.9468 31.1759 79.1073 38.0154 79.1073 46.4206C79.1073 54.2379 91.3195 68.1586 92.7121 69.7188C93.1296 70.1885 93.7257 70.4549 94.3519 70.4549C94.9782 70.4549 95.5742 70.1885 95.9918 69.7188C96.4642 69.1886 98.1892 67.2302 100.258 64.5686V89.2923ZM94.3519 64.8954C89.6055 59.2288 83.5021 50.5627 83.5021 46.4206C83.5021 40.4381 88.3694 35.5708 94.3519 35.5708C100.334 35.5708 105.202 40.4381 105.202 46.4206C105.202 50.5572 99.0956 59.2261 94.3519 64.8954ZM123.605 95.0111C117.647 91.7507 111.393 89.9103 104.652 89.4214V58.424C107.339 54.2736 109.597 49.7826 109.597 46.4206C109.597 41.9818 107.69 37.9825 104.652 35.1945V21.0431C111.429 21.5869 117.669 23.647 123.605 27.3057V95.0111Z" fill="#102E46"/>
<path d="M33.3734 56.1716C29.5114 56.1716 26.3691 59.3139 26.3691 63.1759C26.3691 67.0379 29.5114 70.1802 33.3734 70.1802C37.2354 70.1802 40.3777 67.0379 40.3777 63.1759C40.3777 59.3139 37.2354 56.1716 33.3734 56.1716ZM33.3734 65.7854C31.9341 65.7854 30.7639 64.6152 30.7639 63.1759C30.7639 61.7366 31.9341 60.5665 33.3734 60.5665C34.8127 60.5665 35.9828 61.7366 35.9828 63.1759C35.9828 64.6152 34.8127 65.7854 33.3734 65.7854Z" fill="#102E46"/>
<path d="M94.3519 39.4163C90.49 39.4163 87.3476 42.5586 87.3476 46.4206C87.3476 50.2825 90.49 53.4248 94.3519 53.4248C98.2139 53.4248 101.356 50.2825 101.356 46.4206C101.356 42.5586 98.2139 39.4163 94.3519 39.4163ZM94.3519 49.03C92.9126 49.03 91.7425 47.8599 91.7425 46.4206C91.7425 44.9812 92.9126 43.8111 94.3519 43.8111C95.7912 43.8111 96.9614 44.9812 96.9614 46.4206C96.9614 47.8599 95.7912 49.03 94.3519 49.03Z" fill="#102E46"/>
<path d="M35.3071 95.5632C34.9308 95.6374 34.5545 95.7088 34.1782 95.7775C34.0463 95.7994 33.9118 95.8132 33.7827 95.8132C32.7416 95.8132 31.816 95.0688 31.6237 94.0058C31.4067 92.8137 32.2005 91.6683 33.3926 91.4513C33.7497 91.3881 34.104 91.3194 34.4611 91.2508C35.6505 91.0173 36.8069 91.7919 37.0403 92.984C37.2738 94.1733 36.4992 95.3297 35.3071 95.5632Z" fill="#102E46"/>
<path d="M55.8256 89.5368C55.1664 89.7702 54.5071 90.0037 53.8479 90.2345C53.6089 90.3169 53.3645 90.3581 53.1228 90.3581C52.2163 90.3581 51.3648 89.7922 51.0489 88.8858C50.6479 87.7404 51.2522 86.4851 52.3976 86.0868C53.0486 85.8588 53.6996 85.6281 54.3506 85.3974C55.496 84.9908 56.7513 85.5869 57.1578 86.7296C57.5643 87.875 56.9683 89.1302 55.8256 89.5368Z" fill="#102E46"/>
<path d="M75.4074 82.7495C74.7537 82.9473 74.0999 83.1505 73.4462 83.3593C73.2237 83.4307 73.0012 83.4636 72.7815 83.4636C71.8476 83.4636 70.9851 82.8648 70.6857 81.9309C70.3203 80.7746 70.9603 79.5385 72.1167 79.1704C72.7897 78.9562 73.4599 78.7474 74.1329 78.5442C75.2948 78.1926 76.5226 78.8491 76.8742 80.0082C77.2258 81.1701 76.5693 82.3979 75.4074 82.7495Z" fill="#102E46"/>
<path d="M45.852 92.8714C45.1763 93.0774 44.5006 93.2807 43.8249 93.4757C43.6216 93.5334 43.4156 93.5609 43.2151 93.5609C42.2592 93.5609 41.383 92.9346 41.1056 91.9705C40.7677 90.8058 41.4407 89.5863 42.6081 89.2511C43.2618 89.0616 43.9155 88.8693 44.572 88.6688C45.7312 88.3145 46.959 88.9682 47.3133 90.1301C47.6677 91.292 47.0139 92.5198 45.852 92.8714Z" fill="#102E46"/>
<path d="M86.3671 80.033C86.01 80.0989 85.6556 80.1648 85.2986 80.2363C85.1557 80.2637 85.0129 80.2775 84.8728 80.2775C83.8428 80.2775 82.9253 79.5496 82.7193 78.503C82.4858 77.3109 83.2604 76.1573 84.4525 75.9238C84.8289 75.8496 85.2052 75.7782 85.5815 75.7096C86.7791 75.4926 87.919 76.2864 88.136 77.4785C88.353 78.6733 87.5592 79.816 86.3671 80.033Z" fill="#102E46"/>
<path d="M95.9808 77.8355C95.6237 77.9014 95.2694 77.9673 94.9123 78.0387C94.7695 78.0662 94.6266 78.0799 94.4865 78.0799C93.4565 78.0799 92.5391 77.352 92.3331 76.3055C92.0996 75.1134 92.8742 73.9598 94.0663 73.7263C94.4426 73.6521 94.8189 73.5807 95.1952 73.5121C96.39 73.2951 97.5327 74.0889 97.7497 75.281C97.9667 76.4758 97.1729 77.6185 95.9808 77.8355Z" fill="#102E46"/>
</g>
<defs>
<clipPath id="clip0_18_118">
<rect width="128" height="128" fill="white"/>
</clipPath>
</defs>
</svg>
