<svg width="48" height="48" viewBox="0 0 48 48" fill="none" xmlns="http://www.w3.org/2000/svg">
<path d="M11.2704 27.5242L4.01367 40.538L12.1106 39.5625L15.3142 47.0624L22.445 33.5968L11.2704 27.5242Z" fill="#C6E2EB"/>
<path d="M25.2012 33.5968L32.6856 47.0624L35.8892 39.5625L43.9861 40.538L37.0402 27.5242L25.2012 33.5968Z" fill="#C6E2EB"/>
<path d="M23.9788 33.5962C32.9973 33.5962 40.3082 26.2853 40.3082 17.2669C40.3082 8.24841 32.9973 0.9375 23.9788 0.9375C14.9603 0.9375 7.64941 8.24841 7.64941 17.2669C7.64941 26.2853 14.9603 33.5962 23.9788 33.5962Z" fill="#FAB32A"/>
<path d="M44.8129 40.0966L37.9991 27.3306C40.0396 24.4953 41.2433 21.0193 41.2433 17.2672C41.2433 7.746 33.4973 0 23.976 0C14.4548 0 6.70886 7.746 6.70886 17.2673C6.70886 21.1405 7.99089 24.72 10.1528 27.6038L3.19482 40.0815C3.02317 40.3894 3.03873 40.7677 3.23523 41.0604C3.43173 41.3531 3.77636 41.5103 4.12586 41.4688L11.5247 40.5773L14.4522 47.4308C14.5942 47.763 14.9144 47.9841 15.2754 47.9992C15.2885 47.9997 15.3014 48 15.3145 48C15.6605 48 15.98 47.8089 16.1428 47.5013L23.0236 34.5078C23.339 34.525 23.6564 34.5344 23.9761 34.5344C24.199 34.5344 24.4206 34.5288 24.6415 34.5203L31.8659 47.5179C32.0319 47.8165 32.3461 48 32.6851 48C32.7013 48 32.7175 47.9995 32.7339 47.9987C33.0913 47.9802 33.4069 47.7598 33.5475 47.4308L36.475 40.5773L43.8739 41.4688C44.2214 41.5103 44.5624 41.3559 44.7596 41.0676C44.9568 40.7793 44.9774 40.4049 44.8129 40.0966ZM15.4049 44.8882L12.9728 39.1943C12.8092 38.8113 12.4129 38.5819 11.9984 38.6319L5.72879 39.3872L11.4456 29.1353C13.9513 31.7795 17.2825 33.6334 21.0222 34.2807L15.4049 44.8882ZM8.58386 17.2673C8.58386 8.77988 15.4887 1.875 23.976 1.875C32.4633 1.875 39.3683 8.77988 39.3683 17.2673C39.3683 25.7546 32.4634 32.6595 23.976 32.6595C15.4886 32.6595 8.58386 25.7545 8.58386 17.2673ZM36.001 38.6318C35.5874 38.5822 35.1905 38.8112 35.0267 39.1942L32.5749 44.9343L26.6767 34.3227C30.625 33.6998 34.1329 31.7345 36.7164 28.9097L42.3115 39.3922L36.001 38.6318Z" fill="#102E46"/>
<path d="M32.6456 9.55388C32.8808 9.55388 33.1163 9.46595 33.2985 9.28913C33.67 8.92848 33.6789 8.33495 33.3182 7.96341L33.2992 7.9441C32.9334 7.57848 32.3429 7.58016 31.9767 7.94523C31.6107 8.3101 31.6112 8.90438 31.9748 9.27142C32.1584 9.45948 32.4017 9.55388 32.6456 9.55388Z" fill="#102E46"/>
<path d="M15.9736 25.2588C15.6131 24.8935 15.0249 24.8858 14.655 25.2435C14.2828 25.6033 14.2727 26.1968 14.6326 26.5691C14.6363 26.573 14.6481 26.5849 14.6519 26.5886C14.835 26.7716 15.0749 26.8632 15.3148 26.8632C15.5547 26.8632 15.7946 26.7716 15.9777 26.5886C16.3438 26.2225 16.3438 25.6289 15.9777 25.2627C15.977 25.2622 15.9752 25.2603 15.9736 25.2588Z" fill="#102E46"/>
<path d="M12.666 17.2673C12.666 11.0311 17.7396 5.95752 23.9758 5.95752C24.4935 5.95752 24.9133 5.53771 24.9133 5.02002C24.9133 4.50233 24.4935 4.08252 23.9758 4.08252C16.7057 4.08252 10.791 9.99721 10.791 17.2673C10.791 19.1692 11.1875 21.005 11.9696 22.7235C12.1269 23.0689 12.4673 23.2729 12.8234 23.2729C12.9534 23.2729 13.0853 23.2457 13.2113 23.1884C13.6825 22.974 13.8907 22.418 13.6762 21.9468C13.0059 20.4739 12.666 18.8994 12.666 17.2673Z" fill="#102E46"/>
<path d="M35.6748 11.1798C35.4354 10.7208 34.8693 10.5426 34.4101 10.7819C33.951 11.0212 33.7728 11.5875 34.0122 12.0466C34.8578 13.6683 35.2864 15.4247 35.2864 17.2671C35.2864 23.5034 30.2128 28.577 23.9766 28.577C23.4589 28.577 23.0391 28.9968 23.0391 29.5145C23.0391 30.0321 23.4589 30.452 23.9766 30.452C31.2467 30.452 37.1614 24.5373 37.1614 17.2671C37.1614 15.1501 36.6473 13.0451 35.6748 11.1798Z" fill="#102E46"/>
<path d="M26.972 23.7524C27.4897 23.7524 27.9095 23.3325 27.9095 22.8149C27.9095 22.2972 27.4897 21.8774 26.972 21.8774H24.988V11.9091C24.988 11.5299 24.7595 11.1881 24.4092 11.0429C24.0588 10.8981 23.6556 10.9781 23.3876 11.2462L20.1203 14.5135C19.7542 14.8796 19.7542 15.4732 20.1203 15.8394C20.4865 16.2054 21.0799 16.2054 21.4462 15.8394L23.113 14.1726V21.8775H21.1288C20.6111 21.8775 20.1913 22.2974 20.1913 22.815C20.1913 23.3327 20.6111 23.7525 21.1288 23.7525H26.972V23.7524Z" fill="#102E46"/>
</svg>
