<svg width="186" height="80" viewBox="0 0 186 80" fill="none" xmlns="http://www.w3.org/2000/svg">
<path d="M54.3169 28.9275C55.5598 28.9275 56.6592 29.1111 57.6153 29.4783C58.5904 29.8454 59.5082 30.3961 60.3687 31.1304L58.1315 33.8261C57.5388 33.3623 56.9556 33.0145 56.382 32.7826C55.8083 32.5507 55.1965 32.4348 54.5463 32.4348C53.2079 32.4348 52.1467 33.0048 51.3627 34.1449C50.5979 35.285 50.2154 37.0435 50.2154 39.4203C50.2154 41.7585 50.5979 43.4976 51.3627 44.6377C52.1467 45.7585 53.227 46.3188 54.6037 46.3188C55.3303 46.3188 55.99 46.1836 56.5827 45.913C57.1755 45.6232 57.816 45.2174 58.5044 44.6957L60.5981 47.4203C59.8524 48.1739 58.9442 48.7923 57.8734 49.2754C56.8217 49.7585 55.6554 50 54.3743 50C52.5386 50 50.942 49.5942 49.5844 48.7826C48.2269 47.971 47.1656 46.7729 46.4008 45.1884C45.6551 43.5845 45.2822 41.6618 45.2822 39.4203C45.2822 37.2367 45.6646 35.3527 46.4295 33.7681C47.2134 32.1836 48.2842 30.9855 49.6418 30.1739C51.0185 29.343 52.5769 28.9275 54.3169 28.9275Z" fill="#102E46"/>
<path d="M71.2513 33.6232C72.5706 33.6232 73.6032 34.029 74.3489 34.8406C75.0946 35.6522 75.4675 36.7923 75.4675 38.2609V49.5072H70.9358V39.0435C70.9358 38.2705 70.8115 37.7391 70.5629 37.4493C70.3143 37.1401 69.9606 36.9855 69.5017 36.9855C68.5839 36.9855 67.7043 37.6425 66.863 38.9565V49.5072H62.3313V28L66.863 27.5362V35.7681C67.494 35.0531 68.1632 34.5217 68.8707 34.1739C69.5782 33.8068 70.3717 33.6232 71.2513 33.6232Z" fill="#102E46"/>
<path d="M90.9884 45.0435C90.9884 45.6232 91.0649 46.0483 91.2178 46.3188C91.3899 46.5894 91.6576 46.7923 92.0209 46.9275L91.0744 49.913C90.1375 49.8357 89.3727 49.6329 88.7799 49.3043C88.1872 48.9565 87.7283 48.4155 87.4032 47.6812C86.4089 49.2271 84.8792 50 82.8142 50C81.3036 50 80.099 49.5556 79.2003 48.6667C78.3016 47.7778 77.8523 46.6184 77.8523 45.1884C77.8523 43.5072 78.4641 42.2222 79.6879 41.3333C80.9116 40.4444 82.6803 40 84.994 40H86.5428V39.3333C86.5428 38.4251 86.3515 37.8068 85.9691 37.4783C85.5867 37.1304 84.9175 36.9565 83.9614 36.9565C83.4643 36.9565 82.862 37.0338 82.1545 37.1884C81.447 37.3237 80.7204 37.5169 79.9747 37.7681L78.9422 34.7536C79.8982 34.3865 80.8734 34.1063 81.8677 33.913C82.8811 33.7198 83.818 33.6232 84.6785 33.6232C86.8582 33.6232 88.4549 34.0773 89.4683 34.9855C90.4817 35.8937 90.9884 37.256 90.9884 39.0725V45.0435ZM84.1335 46.7246C85.166 46.7246 85.9691 46.2319 86.5428 45.2464V42.5217H85.4242C84.3916 42.5217 83.6172 42.7053 83.101 43.0725C82.6038 43.4396 82.3553 44.0097 82.3553 44.7826C82.3553 45.401 82.5082 45.8841 82.8142 46.2319C83.1392 46.5604 83.579 46.7246 84.1335 46.7246Z" fill="#102E46"/>
<path d="M102.858 33.6812C103.413 33.6812 103.919 33.7488 104.378 33.8841L103.661 38.3188C103.088 38.1836 102.629 38.1159 102.285 38.1159C101.386 38.1159 100.698 38.4348 100.22 39.0725C99.7607 39.6908 99.3974 40.628 99.1297 41.8841V49.5072H94.598V34.1159H98.556L98.9289 37.1014C99.2731 36.0386 99.7893 35.2077 100.478 34.6087C101.185 33.9903 101.979 33.6812 102.858 33.6812Z" fill="#102E46"/>
<path d="M110.154 50C108.835 50 107.802 49.6232 107.056 48.8696C106.33 48.0966 105.966 47.0048 105.966 45.5942V28L110.498 27.5072V45.4203C110.498 46.058 110.756 46.3768 111.272 46.3768C111.54 46.3768 111.789 46.3285 112.018 46.2319L112.907 49.4783C112.085 49.8261 111.167 50 110.154 50Z" fill="#102E46"/>
<path d="M119.156 34.1159V49.5072H114.625V34.1159H119.156ZM116.862 26C117.646 26 118.286 26.2512 118.783 26.7536C119.3 27.2367 119.558 27.8551 119.558 28.6087C119.558 29.3623 119.3 29.9903 118.783 30.4928C118.286 30.9758 117.646 31.2174 116.862 31.2174C116.078 31.2174 115.437 30.9758 114.94 30.4928C114.443 29.9903 114.194 29.3623 114.194 28.6087C114.194 27.8551 114.443 27.2367 114.94 26.7536C115.437 26.2512 116.078 26 116.862 26Z" fill="#102E46"/>
<path d="M135.999 41.5072C135.999 42.1449 135.97 42.6957 135.913 43.1594H126.477C126.63 44.4541 126.993 45.3623 127.566 45.8841C128.14 46.4058 128.934 46.6667 129.947 46.6667C130.559 46.6667 131.152 46.5604 131.725 46.3478C132.299 46.1159 132.92 45.7681 133.59 45.3043L135.454 47.8551C133.676 49.285 131.697 50 129.517 50C127.05 50 125.157 49.2657 123.838 47.7971C122.518 46.3285 121.859 44.3575 121.859 41.8841C121.859 40.3188 122.136 38.9179 122.691 37.6812C123.245 36.4251 124.058 35.4396 125.129 34.7246C126.199 33.9903 127.48 33.6232 128.972 33.6232C131.171 33.6232 132.892 34.3188 134.134 35.7101C135.377 37.1014 135.999 39.0338 135.999 41.5072ZM131.553 40.2029C131.515 37.8454 130.693 36.6667 129.087 36.6667C128.303 36.6667 127.691 36.9565 127.251 37.5362C126.83 38.1159 126.572 39.0725 126.477 40.4058H131.553V40.2029Z" fill="#102E46"/>
<path d="M145.437 49.5072V29.4203H157.282L156.795 32.8116H150.141V38.1449H155.934V41.5362H150.141V49.5072H145.437Z" fill="#102E46"/>
<path d="M4.28223 27.3206C4.28223 29.7069 6.20766 31.6413 8.5828 31.6413C10.9579 31.6413 12.8834 29.7069 12.8834 27.3206C12.8834 24.9344 10.9579 23 8.5828 23C6.20766 23 4.28223 24.9344 4.28223 27.3206Z" fill="#102E46"/>
<path d="M30.9816 33.2615C28.6065 33.2615 26.6811 31.3271 26.6811 28.9409C26.6811 26.5547 28.6065 24.6202 30.9816 24.6202C33.3568 24.6202 35.2822 26.5547 35.2822 28.9409C35.2822 31.3271 33.3568 33.2615 30.9816 33.2615Z" fill="#102E46"/>
<path d="M7.84372 50.2188C7.08609 48.7529 6.62328 47.1515 6.48166 45.506L31.4265 43.3393C31.5681 44.9849 31.3857 46.6423 30.8897 48.2171C30.3937 49.7918 29.5939 51.2529 28.5359 52.5171C27.4778 53.7813 26.1823 54.8237 24.7233 55.5849C23.2642 56.346 21.6703 56.811 20.0324 56.9533C18.3945 57.0955 16.7447 56.9123 15.1773 56.414C13.6099 55.9157 12.1555 55.1121 10.8972 54.0491C9.63892 52.9862 8.60134 51.6846 7.84372 50.2188Z" fill="#102E46"/>
<path d="M16.5823 39.65L19.3023 25.0493L24.6567 26.0561L21.9367 40.6568L16.5823 39.65Z" fill="#102E46"/>
</svg>
