<svg width="186" height="80" viewBox="0 0 186 80" fill="none" xmlns="http://www.w3.org/2000/svg">
<path d="M44.7111 35.3201C48.1111 35.3201 49.8111 33.3935 49.8111 29.5401H50.4911V36.0001H34.5111V35.3201H36.2111V17.6401H34.5111V16.9601H50.1511V22.7401H49.4711C49.4711 20.7228 49.0631 19.3741 48.2471 18.6941C47.4537 17.9915 46.1617 17.6401 44.3711 17.6401H41.3111V25.8001H42.6711C44.3031 25.8001 45.3344 25.5961 45.7651 25.1881C46.1957 24.7801 46.4111 23.9641 46.4111 22.7401H47.0911V29.5401H46.4111C46.4111 28.2708 46.1957 27.4435 45.7651 27.0581C45.3344 26.6728 44.3031 26.4801 42.6711 26.4801H41.3111V35.3201H44.7111Z" fill="#102E46"/>
<path d="M77.3144 17.6401H75.6144V35.3201H77.3144V36.0001H68.8144V35.3201H70.5144V18.8981L63.7824 36.3401H63.0004L55.4524 18.4221V35.3201H58.1724V36.0001H52.7324V35.3201H54.7724V17.6401H52.6984V16.9601H60.2804L65.5844 29.7101L70.5144 16.9601H77.3144V17.6401Z" fill="#102E46"/>
<path d="M103.977 17.6401H102.277V35.3201H103.977V36.0001H95.4765V35.3201H97.1765V18.8981L90.4445 36.3401H89.6625L82.1145 18.4221V35.3201H84.8345V36.0001H79.3945V35.3201H81.4345V17.6401H79.3605V16.9601H86.9425L92.2465 29.7101L97.1765 16.9601H103.977V17.6401Z" fill="#102E46"/>
<path d="M126.525 35.3201V36.0001H117.583V35.3201H119.589L117.311 30.5941H110.443L108.471 35.3201H111.157V36.0001H105.343V35.3201H107.621L115.407 16.6201H116.257L124.893 35.3201H126.525ZM110.749 29.8801H116.971L113.639 22.9441L110.749 29.8801Z" fill="#102E46"/>
<path d="M34.0503 54.4461C34.0503 51.5448 33.6537 49.2895 32.8603 47.6801C32.0897 46.0481 31.013 45.2321 29.6303 45.2321C28.2703 45.2321 27.1937 46.0481 26.4003 47.6801C25.607 49.3121 25.2103 51.5901 25.2103 54.5141C25.2103 57.4381 25.5843 59.6935 26.3323 61.2801C27.103 62.8668 28.2023 63.6601 29.6303 63.6601C32.577 63.6601 34.0503 60.5888 34.0503 54.4461ZM39.5243 54.6501C39.5243 57.7555 38.6063 60.1468 36.7703 61.8241C34.9343 63.5015 32.543 64.3401 29.5963 64.3401C26.6497 64.3401 24.2697 63.5128 22.4563 61.8581C20.643 60.1808 19.7363 57.7895 19.7363 54.6841C19.7363 51.5561 20.643 49.0854 22.4563 47.2721C24.2697 45.4588 26.6723 44.5521 29.6643 44.5521C32.679 44.5521 35.0703 45.4588 36.8383 47.2721C38.629 49.0628 39.5243 51.5221 39.5243 54.6501Z" fill="#102E46"/>
<path d="M61.7287 63.3201V64.0001H52.7867V63.3201H54.7927L52.5147 58.5941H45.6467L43.6747 63.3201H46.3607V64.0001H40.5467V63.3201H42.8247L50.6107 44.6201H51.4607L60.0967 63.3201H61.7287ZM45.9527 57.8801H52.1747L48.8427 50.9441L45.9527 57.8801Z" fill="#102E46"/>
<path d="M83.4744 63.3201V64.0001H74.6344V63.3201H76.1644L71.6424 55.0581L70.2144 56.8601V63.3201H71.9144V64.0001H63.4144V63.3201H65.1144V45.6401H63.4144V44.9601H71.9144V45.6401H70.2144V55.6701L78.1024 45.6401H74.9744V44.9601H81.9104V45.6401H79.0204L75.0084 50.7401L82.0124 63.3201H83.4744Z" fill="#102E46"/>
<path d="M100.462 57.5401H101.142V64.0001H85.1624V63.3201H86.8624V45.6401H85.1624V44.9601H94.0024V45.6401H91.9624V63.3201H95.3624C96.1331 63.3201 96.7678 63.2635 97.2664 63.1501C97.7878 63.0368 98.3204 62.7988 98.8644 62.4361C99.9298 61.7335 100.462 60.1015 100.462 57.5401Z" fill="#102E46"/>
<path d="M113.026 63.3201C116.426 63.3201 118.126 61.3935 118.126 57.5401H118.806V64.0001H102.826V63.3201H104.526V45.6401H102.826V44.9601H118.466V50.7401H117.786C117.786 48.7228 117.378 47.3741 116.562 46.6941C115.769 45.9915 114.477 45.6401 112.686 45.6401H109.626V53.8001H110.986C112.618 53.8001 113.65 53.5961 114.08 53.1881C114.511 52.7801 114.726 51.9641 114.726 50.7401H115.406V57.5401H114.726C114.726 56.2708 114.511 55.4435 114.08 55.0581C113.65 54.6728 112.618 54.4801 110.986 54.4801H109.626V63.3201H113.026Z" fill="#102E46"/>
<path d="M134.648 64.0001H126.828V63.3201H128.188V56.1461L122.102 45.6401H120.334V44.9601H129.854V45.6401H128.188L132.948 54.2081L137.368 45.6401H134.648V44.9601H140.598V45.6401H138.218L133.288 55.2281V63.3201H134.648V64.0001Z" fill="#102E46"/>
</svg>
