<svg width="186" height="80" viewBox="0 0 186 80" fill="none" xmlns="http://www.w3.org/2000/svg">
<path d="M74.9025 55.6191C73.943 55.6191 73.146 55.4561 72.5115 55.1301C71.8769 54.8041 71.4049 54.3694 71.0954 53.826C70.7859 53.2827 70.6311 52.6927 70.6311 52.0562C70.6311 50.8763 71.0799 49.9682 71.9775 49.3316C72.8751 48.6951 74.0977 48.3769 75.6453 48.3769H78.756V48.2371C78.756 47.228 78.4929 46.4673 77.9667 45.955C77.4406 45.4272 76.7364 45.1633 75.8543 45.1633C75.0959 45.1633 74.4382 45.3573 73.8811 45.7454C73.3394 46.118 72.999 46.6692 72.8597 47.3988H70.8633C70.9407 46.5605 71.2192 45.8541 71.699 45.2797C72.1942 44.7053 72.8055 44.2706 73.5329 43.9756C74.2602 43.6651 75.034 43.5099 75.8543 43.5099C77.4638 43.5099 78.6709 43.9446 79.4756 44.8139C80.2959 45.6678 80.706 46.8089 80.706 48.2371V55.3397H78.9649L78.8489 53.2672C78.5239 53.9192 78.0441 54.4781 77.4096 54.9438C76.7906 55.394 75.9549 55.6191 74.9025 55.6191ZM75.2043 53.9658C75.9471 53.9658 76.5816 53.7717 77.1078 53.3836C77.6495 52.9955 78.0596 52.4909 78.3382 51.8699C78.6167 51.2489 78.756 50.5969 78.756 49.9138V49.8905H75.8078C74.6626 49.8905 73.8501 50.0924 73.3704 50.496C72.9061 50.8841 72.674 51.3731 72.674 51.9631C72.674 52.5685 72.8906 53.0576 73.3239 53.4302C73.7728 53.7872 74.3995 53.9658 75.2043 53.9658Z" fill="#102E46"/>
<path d="M87.7169 51.7069C87.0669 51.7069 86.4711 51.6215 85.9295 51.4508L84.7688 52.5453C84.939 52.6695 85.1479 52.7781 85.3955 52.8713C85.6586 52.9489 86.0301 53.0265 86.5098 53.1041C86.9896 53.1662 87.6628 53.2361 88.5294 53.3137C90.077 53.4224 91.1835 53.7795 91.849 54.3849C92.5145 54.9904 92.8472 55.7822 92.8472 56.7602C92.8472 57.4278 92.6615 58.0643 92.2901 58.6698C91.9341 59.2752 91.377 59.772 90.6187 60.1601C89.8758 60.5482 88.9163 60.7423 87.7402 60.7423C86.7033 60.7423 85.7824 60.6026 84.9777 60.3231C84.173 60.0592 83.5462 59.6478 83.0974 59.0889C82.6486 58.5455 82.4242 57.8547 82.4242 57.0164C82.4242 56.5817 82.5402 56.1082 82.7724 55.5959C83.0045 55.0991 83.4378 54.6256 84.0724 54.1753C83.7319 54.0356 83.4378 53.8881 83.1902 53.7329C82.9581 53.5621 82.7414 53.3758 82.5402 53.174V52.6384L84.5134 50.6823C83.6003 49.9061 83.1438 48.8814 83.1438 47.6084C83.1438 46.8477 83.3218 46.1568 83.6777 45.5358C84.0337 44.9149 84.5521 44.4258 85.2331 44.0688C85.914 43.6962 86.742 43.5099 87.7169 43.5099C88.3824 43.5099 88.986 43.603 89.5276 43.7893H93.7758V45.2564L91.6169 45.3496C92.0657 46.0016 92.2901 46.7545 92.2901 47.6084C92.2901 48.3691 92.1044 49.06 91.7329 49.6809C91.377 50.3019 90.8586 50.7987 90.1776 51.1713C89.5121 51.5284 88.6919 51.7069 87.7169 51.7069ZM87.7169 50.1001C88.5372 50.1001 89.1872 49.8905 89.6669 49.4714C90.1621 49.0367 90.4098 48.4157 90.4098 47.6084C90.4098 46.8166 90.1621 46.2112 89.6669 45.792C89.1872 45.3573 88.5372 45.14 87.7169 45.14C86.8812 45.14 86.2158 45.3573 85.7205 45.792C85.2408 46.2112 85.0009 46.8166 85.0009 47.6084C85.0009 48.4157 85.2408 49.0367 85.7205 49.4714C86.2158 49.8905 86.8812 50.1001 87.7169 50.1001ZM84.3277 56.8301C84.3277 57.6063 84.6527 58.1807 85.3027 58.5533C85.9527 58.9414 86.7652 59.1355 87.7402 59.1355C88.6997 59.1355 89.4657 58.9259 90.0383 58.5067C90.6264 58.0876 90.9205 57.5287 90.9205 56.8301C90.9205 56.3333 90.7193 55.8986 90.3169 55.526C89.9145 55.1689 89.1717 54.9593 88.0884 54.8972C87.2372 54.8351 86.5021 54.7575 85.883 54.6644C85.2485 55.0059 84.8307 55.3708 84.6295 55.7589C84.4283 56.1625 84.3277 56.5196 84.3277 56.8301Z" fill="#102E46"/>
<path d="M100.234 55.6191C99.1357 55.6191 98.1607 55.3707 97.3095 54.874C96.4584 54.3616 95.7852 53.6553 95.2899 52.7548C94.8102 51.8544 94.5703 50.791 94.5703 49.5645C94.5703 48.3536 94.8102 47.2979 95.2899 46.3975C95.7697 45.4815 96.4352 44.7751 97.2863 44.2783C98.153 43.766 99.1512 43.5099 100.281 43.5099C101.395 43.5099 102.355 43.766 103.159 44.2783C103.98 44.7751 104.606 45.4349 105.04 46.2577C105.473 47.0806 105.69 47.9655 105.69 48.9125C105.69 49.0832 105.682 49.254 105.667 49.4248C105.667 49.5956 105.667 49.7896 105.667 50.007H96.4971C96.5435 50.8919 96.7447 51.6293 97.1006 52.2192C97.472 52.7936 97.9286 53.2283 98.4702 53.5233C99.0274 53.8183 99.6155 53.9658 100.234 53.9658C101.039 53.9658 101.712 53.7795 102.254 53.4069C102.796 53.0343 103.19 52.5297 103.438 51.8932H105.365C105.055 52.9644 104.459 53.8571 103.577 54.5712C102.711 55.2698 101.596 55.6191 100.234 55.6191ZM100.234 45.1633C99.3059 45.1633 98.478 45.4505 97.7506 46.0249C97.0387 46.5838 96.6286 47.4066 96.5203 48.4933H103.763C103.717 47.4532 103.361 46.6381 102.695 46.0482C102.03 45.4582 101.209 45.1633 100.234 45.1633Z" fill="#102E46"/>
<path d="M107.81 55.3397V43.7893H109.574L109.69 45.8619C110.062 45.1322 110.596 44.5578 111.292 44.1386C111.989 43.7195 112.778 43.5099 113.66 43.5099C115.022 43.5099 116.105 43.929 116.91 44.7674C117.73 45.5902 118.14 46.8632 118.14 48.5865V55.3397H116.19V48.796C116.19 46.3897 115.2 45.1865 113.219 45.1865C112.228 45.1865 111.4 45.5514 110.735 46.281C110.085 46.9952 109.76 48.0198 109.76 49.3549V55.3397H107.81Z" fill="#102E46"/>
<path d="M125.923 55.6191C124.824 55.6191 123.834 55.3707 122.952 54.874C122.085 54.3616 121.396 53.6553 120.886 52.7548C120.39 51.8389 120.143 50.7754 120.143 49.5645C120.143 48.3536 120.39 47.2979 120.886 46.3975C121.396 45.4815 122.085 44.7751 122.952 44.2783C123.834 43.766 124.824 43.5099 125.923 43.5099C127.285 43.5099 128.43 43.8669 129.359 44.5811C130.303 45.2952 130.899 46.25 131.146 47.4454H129.15C128.995 46.7313 128.616 46.1801 128.012 45.792C127.409 45.3884 126.705 45.1865 125.9 45.1865C125.25 45.1865 124.639 45.3496 124.066 45.6756C123.493 46.0016 123.029 46.4906 122.673 47.1427C122.317 47.7947 122.139 48.602 122.139 49.5645C122.139 50.527 122.317 51.3343 122.673 51.9864C123.029 52.6384 123.493 53.1352 124.066 53.4767C124.639 53.8028 125.25 53.9658 125.9 53.9658C126.705 53.9658 127.409 53.7717 128.012 53.3836C128.616 52.9799 128.995 52.4133 129.15 51.6836H131.146C130.914 52.848 130.326 53.795 129.382 54.5247C128.438 55.2543 127.285 55.6191 125.923 55.6191Z" fill="#102E46"/>
<path d="M134.659 60.4629L137.514 54.2219H136.841L132.268 43.7893H134.38L138.187 52.7781L142.226 43.7893H144.246L136.702 60.4629H134.659Z" fill="#102E46"/>
<path d="M16.2461 66V27.0951H22.421L23.1793 30.953C24.046 29.7576 25.1835 28.7071 26.5918 27.8015C28.0362 26.8959 29.8959 26.4431 32.1708 26.4431C34.6986 26.4431 36.9555 27.0589 38.9416 28.2905C40.9276 29.5221 42.4985 31.2065 43.654 33.3438C44.8095 35.481 45.3873 37.908 45.3873 40.6249C45.3873 43.3417 44.8095 45.7687 43.654 47.906C42.4985 50.007 40.9276 51.6733 38.9416 52.9049C36.9555 54.1003 34.6986 54.698 32.1708 54.698C30.1486 54.698 28.3792 54.3177 26.8626 53.5569C25.3459 52.7962 24.1182 51.7276 23.1793 50.3511V66H16.2461ZM30.7084 48.6123C32.9111 48.6123 34.7347 47.8697 36.1791 46.3845C37.6235 44.8993 38.3457 42.9794 38.3457 40.6249C38.3457 38.2703 37.6235 36.3323 36.1791 34.8109C34.7347 33.2894 32.9111 32.5287 30.7084 32.5287C28.4695 32.5287 26.6279 33.2894 25.1835 34.8109C23.7751 36.2961 23.071 38.216 23.071 40.5705C23.071 42.9251 23.7751 44.8631 25.1835 46.3845C26.6279 47.8697 28.4695 48.6123 30.7084 48.6123Z" fill="#102E46"/>
<path d="M49.4142 54.046V27.0951H55.5891L56.2391 32.1484C57.2141 30.4096 58.5321 29.0331 60.1932 28.0188C61.8904 26.9683 63.8764 26.4431 66.1514 26.4431V33.7785H64.2014C62.6848 33.7785 61.3307 34.0139 60.139 34.4848C58.9474 34.9558 58.0085 35.7708 57.3224 36.93C56.6724 38.0892 56.3474 39.7011 56.3474 41.7659V54.046H49.4142Z" fill="#102E46"/>
<path d="M76.5233 34.4848L77.5525 26.8234L71.4859 31.605L68.8859 26.9864L75.9817 24.1609L68.9401 21.4441L71.3776 17.0428L77.6066 21.7701L76.5233 14H81.5607L80.4774 21.7701L86.6523 17.0428L89.0356 21.3898L81.9941 24.2153L89.0898 27.0408L86.544 31.5507L80.4774 26.8234L81.5066 34.4848H76.5233Z" fill="#102E46"/>
</svg>
