<svg width="186" height="80" viewBox="0 0 186 80" fill="none" xmlns="http://www.w3.org/2000/svg">
<path d="M73.4456 50.162H76.2643L76.2784 30.8116H73.4456V29.7123H91.6685V35.857H90.5692C90.5222 35.0772 90.4565 34.3866 90.3719 33.7853C90.2874 33.1746 90.1088 32.6578 89.8364 32.235C89.2914 31.3706 88.1827 30.8961 86.5103 30.8116H80.0696V39.6623H83.5929C84.3916 39.6623 85.0023 39.5355 85.4251 39.2818C85.8573 39.0187 86.1204 38.563 86.2143 37.9147C86.2331 37.7268 86.2472 37.5295 86.2566 37.3228C86.2754 37.1067 86.2942 36.8953 86.313 36.6886H87.4968V43.9608H86.313C86.2942 43.7447 86.2754 43.4957 86.2566 43.2139C86.2472 42.932 86.2331 42.6971 86.2143 42.5092C86.1204 41.8609 85.8526 41.4099 85.411 41.1562C84.9788 40.8931 84.3728 40.7616 83.5929 40.7616H80.0696V50.1761H86.1016C88.5726 50.1761 90.0713 49.0345 90.5974 46.7513C90.7477 46.0936 90.8464 45.4172 90.8934 44.7219H91.9927V51.2754H73.4456V50.162Z" fill="#102E46"/>
<path d="M92.9178 50.1761H95.1164V28.6553H92.8191V27.5419H98.8512V50.1761H101.219V51.2754H92.9178V50.1761Z" fill="#102E46"/>
<path d="M106.076 33.4189C105.7 33.7947 105.245 33.9826 104.709 33.9826C104.173 33.9826 103.713 33.7994 103.328 33.433C102.943 33.0571 102.75 32.6625 102.75 32.2491C102.75 31.5538 102.938 31.0183 103.314 30.6424C103.69 30.2666 104.15 30.0787 104.695 30.0787C105.559 30.0787 106.156 30.4733 106.485 31.2626C106.588 31.4974 106.64 31.7511 106.64 32.0236C106.64 32.578 106.452 33.043 106.076 33.4189ZM100.551 50.1761H102.835V37.957H100.749V36.8577H106.569V50.1761H108.852V51.2754H100.551V50.1761Z" fill="#102E46"/>
<path d="M111.074 50.2465C110.774 50.4532 110.604 50.7962 110.567 51.2754H109.214L109.27 47.0332H110.567C110.567 47.7567 111.018 48.4989 111.92 49.26C112.831 50.021 113.982 50.4016 115.373 50.4016C116.763 50.4016 117.646 49.9976 118.022 49.1895C118.126 48.9546 118.177 48.7103 118.177 48.4567C118.177 47.9869 117.853 47.5547 117.205 47.1601C116.566 46.7654 115.509 46.305 114.034 45.7789C112.568 45.2527 111.412 44.5762 110.567 43.7494C109.721 42.9132 109.298 41.8985 109.298 40.7052C109.298 39.5026 109.834 38.5207 110.905 37.7597C111.976 36.9986 113.212 36.6181 114.612 36.6181C116.021 36.6181 117.153 36.9657 118.008 37.661C118.271 37.5765 118.478 37.3698 118.628 37.0409C118.685 36.9282 118.713 36.7919 118.713 36.6322H119.784V40.5643H118.544C118.384 39.6811 117.957 38.9952 117.261 38.5066C116.575 38.0087 115.767 37.7597 114.837 37.7597C113.907 37.7597 113.188 37.9429 112.681 38.3093C112.183 38.6664 111.934 39.1033 111.934 39.62C111.934 40.1368 112.22 40.6113 112.794 41.0435C113.376 41.4663 114.194 41.8656 115.246 42.2414C116.308 42.6078 117.139 42.932 117.74 43.2139C119.667 44.144 120.63 45.4923 120.63 47.2587C120.63 49.0157 119.643 50.2935 117.67 51.0921C116.9 51.4022 116.115 51.5572 115.316 51.5572C113.653 51.5572 112.239 51.1203 111.074 50.2465Z" fill="#102E46"/>
<path d="M126.107 33.4189C125.731 33.7947 125.275 33.9826 124.74 33.9826C124.204 33.9826 123.744 33.7994 123.359 33.433C122.973 33.0571 122.781 32.6625 122.781 32.2491C122.781 31.5538 122.969 31.0183 123.345 30.6424C123.72 30.2666 124.181 30.0787 124.726 30.0787C125.59 30.0787 126.187 30.4733 126.516 31.2626C126.619 31.4974 126.671 31.7511 126.671 32.0236C126.671 32.578 126.483 33.043 126.107 33.4189ZM120.582 50.1761H122.865V37.957H120.78V36.8577H126.6V50.1761H128.883V51.2754H120.582V50.1761Z" fill="#102E46"/>
<path d="M139.857 49.8942C138.607 51.0029 137.254 51.5572 135.798 51.5572C134.351 51.5572 133.125 51.266 132.12 50.6834C130.729 49.866 130.034 48.4989 130.034 46.5822V37.957H128.033V36.8577H133.698V47.2305C133.698 49.213 134.614 50.2043 136.446 50.2043C137.715 50.2043 138.852 49.6217 139.857 48.4567V37.957H137.419V36.8577H143.493V50.1761H145.311V51.2754H139.857V49.8942Z" fill="#102E46"/>
<path d="M155.172 37.9711C153.725 37.9711 152.456 38.6147 151.366 39.9019V50.1761H153.664V51.2754H145.419V50.1761H147.702V37.9288H145.405V36.8577H151.366V38.4643C152.71 37.2335 154.162 36.6181 155.721 36.6181C157.29 36.6181 158.568 37.0456 159.555 37.9006C159.912 38.2107 160.208 38.5959 160.443 39.0563C161.927 37.4308 163.614 36.6181 165.502 36.6181C166.752 36.6181 167.865 36.9375 168.842 37.5765C170.083 38.4033 170.703 39.7187 170.703 41.5226V50.1761H173V51.2754H164.614V50.1761H167.038V41.0998C167.038 40.0757 166.916 39.371 166.672 38.9858C166.428 38.6006 166.16 38.3375 165.869 38.1966C165.587 38.0462 165.234 37.9711 164.812 37.9711C163.994 37.9711 163.243 38.1778 162.557 38.5912C161.871 39.0046 161.302 39.5542 160.851 40.2401C160.917 40.6347 160.95 40.9965 160.95 41.3253V50.1761H163.247V51.2754H155.003V50.1761H157.286V41.0012C157.286 40.0146 157.178 39.3381 156.962 38.9717C156.745 38.5959 156.496 38.3375 156.215 38.1966C155.942 38.0462 155.594 37.9711 155.172 37.9711Z" fill="#102E46"/>
<path fill-rule="evenodd" clip-rule="evenodd" d="M24.4367 31.2357C24.4529 30.7521 24.4327 30.2255 24.369 29.6521C24.369 29.6521 23.7447 29.8819 22.9366 30.317C21.2376 31.2318 18.7262 33.0542 19.4957 35.5572C19.4596 35.6158 19.4298 35.6796 19.4075 35.7481C19.3887 35.806 19.1217 36.6359 18.8734 37.9954C18.3917 37.3629 17.7058 36.7399 16.7423 36.1736C16.3246 35.9281 15.8547 35.6932 15.3267 35.4729C15.3267 35.4729 15.2258 36.1255 15.2091 37.0476C15.176 38.8735 15.4727 41.7559 17.535 42.7208C17.7881 42.8393 18.0679 42.9288 18.3769 42.984C18.3993 42.988 18.4219 42.9918 18.4446 42.9954C18.4566 44.2137 18.5555 45.4088 18.7405 46.5679C17.7829 45.8948 16.4439 45.3941 14.5718 45.3283C14.4334 45.3235 14.2921 45.321 14.1478 45.321C13.7842 45.321 13.4011 45.3365 13 45.3701C13 45.3701 13.2054 45.9835 13.6058 46.8221C14.4704 48.6332 16.2446 51.4946 18.8231 51.4946C19.2146 51.4946 19.625 51.4287 20.0536 51.2828C20.4393 52.2221 20.8927 53.1239 21.4117 53.9829L21.4139 53.9866C21.078 53.9023 20.7207 53.8382 20.3413 53.7987C20.0548 53.7688 19.7556 53.7529 19.4435 53.7529C18.5153 53.7529 17.4704 53.8933 16.2969 54.2237C15.8236 54.357 15.3293 54.5211 14.8133 54.7194C14.8133 54.7194 15.1717 55.2352 15.7857 55.9469C17.1523 57.5308 19.7851 60.0854 22.5518 60.0854C23.5648 60.0854 24.5951 59.7427 25.5878 58.886C29.4898 62.234 34.9265 64.5201 41.8329 65.707L42.1662 63.9738C38.5583 63.3564 35.3793 62.4327 32.6395 61.2085C33.2554 59.6296 33.8381 56.3314 29.9179 53.2414C29.5338 52.9386 29.1064 52.6378 28.6316 52.3408C28.6316 52.3408 28.4325 52.9495 28.2469 53.8642C27.9891 55.1353 27.7576 56.9975 28.1238 58.6379C26.9264 57.7738 25.861 56.8218 24.9292 55.7827C26.0214 54.6216 28.0076 51.6349 25.216 47.1828C24.956 46.7682 24.6546 46.3409 24.3071 45.9011C24.3071 45.9011 23.9151 46.4073 23.4333 47.2062C22.8562 48.1632 22.1503 49.5402 21.8355 50.9701C21.173 49.4441 20.7605 47.9172 20.5162 46.4776C21.9005 46.0222 25.0585 44.4174 24.6657 39.3128C24.6283 38.8256 24.5584 38.3064 24.4516 37.7533C24.4516 37.7533 23.8672 38.0236 23.0764 38.5126C22.5354 38.8471 21.8978 39.2839 21.2846 39.8065C20.9355 40.1041 20.5942 40.4295 20.2833 40.7797C20.4662 38.5029 20.9119 36.865 21.044 36.4181C22.3093 35.9754 24.3201 34.7244 24.4367 31.2357ZM23.6895 54.2398L23.3826 53.5583C22.9116 52.5123 23.2133 50.9891 23.9477 49.3969C24.0724 49.1265 24.2034 48.8675 24.3344 48.6248C25.1609 50.1868 25.2415 51.4116 25.0943 52.3013C24.9211 53.3483 24.3983 54.1366 23.9728 54.624C23.8766 54.4971 23.7821 54.369 23.6895 54.2398ZM24.1222 57.5041C24.2318 57.6514 24.3274 57.7941 24.4102 57.9276C23.7434 58.4368 23.1184 58.5969 22.5518 58.5969C21.1497 58.5969 19.5802 57.6127 18.1932 56.3147C17.8942 56.0349 17.618 55.7541 17.3697 55.487C18.147 55.3132 18.8356 55.2414 19.4434 55.2414C20.2693 55.2415 20.9613 55.3738 21.5385 55.5757L22.7657 56.0048L23.0985 56.3582C23.4236 56.7512 23.7648 57.1331 24.1222 57.5041ZM21.5599 34.4687C22.0499 34.0852 22.64 33.3976 22.8642 32.0865C22.5945 32.2618 22.3256 32.4554 22.0742 32.6656C21.4567 33.1818 21.0628 33.6991 20.9117 34.1763C20.8481 34.3769 20.8136 34.6101 20.8607 34.89C21.0871 34.7874 21.3276 34.6504 21.5599 34.4687ZM20.5857 42.7982L21.0973 42.1277C21.6609 41.389 22.4526 40.7277 23.2142 40.1998C23.2059 42.3008 22.4345 43.4406 21.7389 44.0818C21.3402 44.4493 20.9128 44.7018 20.5405 44.8719C20.3034 44.3109 20.3155 43.8354 20.4234 43.4214L20.5857 42.7982ZM16.7093 37.9363C17.2571 38.3522 17.6228 38.7688 17.8688 39.1497C18.3349 39.8712 18.4496 40.5852 18.4317 41.1786L18.4229 41.469C18.0254 41.354 17.758 41.1384 17.5495 40.8754C17.2013 40.4364 16.9554 39.7738 16.819 38.9588C16.7617 38.6166 16.7274 38.2705 16.7093 37.9363ZM18.9382 48.8651C19.1783 49.2263 19.3403 49.5917 19.4489 49.9133C19.2147 49.9807 19.0067 50.0061 18.8231 50.0061C17.7659 50.0061 16.6976 49.1066 15.7461 47.6264C15.5843 47.3747 15.436 47.1214 15.3016 46.8756C17.4007 47.1299 18.4102 48.0708 18.9382 48.8651ZM31.5974 58.9196C31.603 57.8918 31.2607 56.4394 29.5719 54.8956C29.4718 55.5477 29.4037 56.278 29.4229 57.0004C29.451 58.0562 29.6617 58.9407 30.0761 59.5543C30.3294 59.9293 30.7039 60.273 31.3231 60.4833C31.4693 60.0617 31.5941 59.5244 31.5974 58.9196Z" fill="#102E46"/>
<path fill-rule="evenodd" clip-rule="evenodd" d="M59.2905 51.4713C59.2743 51.9549 59.2945 52.4815 59.3582 53.0549C59.3582 53.0549 59.9825 52.8251 60.7906 52.39C62.4896 51.4752 65.001 49.6528 64.2315 47.1498C64.2676 47.0912 64.2974 47.0274 64.3197 46.959C64.3385 46.901 64.6055 46.0712 64.8539 44.7116C65.3355 45.3441 66.0214 45.9671 66.9849 46.5335C67.4026 46.779 67.8725 47.0138 68.4005 47.2342C68.4005 47.2342 68.5014 46.5816 68.5181 45.6594C68.5512 43.8336 68.2545 40.9512 66.1922 39.9862C65.9391 39.8678 65.6593 39.7782 65.3503 39.723C65.3279 39.719 65.3053 39.7152 65.2826 39.7116C65.2706 38.4934 65.1717 37.2982 64.9867 36.1392C65.9443 36.8122 67.2833 37.313 69.1554 37.3787C69.2938 37.3836 69.4351 37.386 69.5794 37.386C69.943 37.386 70.3261 37.3706 70.7272 37.3369C70.7272 37.3369 70.5218 36.7235 70.1214 35.8849C69.2568 34.0738 67.4826 31.2125 64.9041 31.2125C64.5126 31.2125 64.1022 31.2784 63.6736 31.4242C63.2879 30.4849 62.8345 29.5831 62.3155 28.7241L62.3133 28.7205C62.6493 28.8047 63.0065 28.8688 63.3859 28.9084C63.6725 28.9383 63.9716 28.9541 64.2837 28.9542C65.2119 28.9542 66.2568 28.8137 67.4303 28.4833C67.9036 28.3501 68.3979 28.1859 68.9139 27.9876C68.9139 27.9876 68.5555 27.4719 67.9415 26.7602C66.5749 25.1762 63.9421 22.6217 61.1754 22.6217C60.1624 22.6217 59.1321 22.9644 58.1394 23.821C54.2374 20.4731 48.8007 18.187 41.8944 17L41.561 18.7332C45.1689 19.3507 48.3479 20.2743 51.0877 21.4985C50.4718 23.0774 49.8891 26.3756 53.8093 29.4657C54.1934 29.7685 54.6208 30.0693 55.0956 30.3663C55.0956 30.3663 55.2948 29.7575 55.4803 28.8429C55.7381 27.5717 55.9696 25.7096 55.6034 24.0691C56.8008 24.9332 57.8662 25.8853 58.798 26.9243C57.7058 28.0854 55.7196 31.0721 58.5112 35.5242C58.7712 35.9388 59.0726 36.3662 59.4201 36.8059C59.4201 36.8059 59.8121 36.2997 60.2939 35.5009C60.871 34.5438 61.5769 33.1668 61.8917 31.737C62.5542 33.263 62.9667 34.7898 63.211 36.2294C61.8267 36.6848 58.6687 38.2896 59.0615 43.3942C59.099 43.8815 59.1688 44.4006 59.2756 44.9537C59.2756 44.9537 59.86 44.6834 60.6508 44.1945C61.1918 43.86 61.8294 43.4231 62.4426 42.9005C62.7917 42.6029 63.133 42.2775 63.4439 41.9273C63.261 44.2042 62.8153 45.842 62.6832 46.2889C61.4179 46.7317 59.4071 47.9827 59.2905 51.4713ZM60.0377 28.4673L60.3446 29.1488C60.8156 30.1948 60.5139 31.718 59.7795 33.3101C59.6548 33.5806 59.5238 33.8395 59.3928 34.0822C58.5663 32.5203 58.4857 31.2955 58.6329 30.4057C58.8061 29.3587 59.3289 28.5704 59.7544 28.083C59.8506 28.2099 59.9451 28.338 60.0377 28.4673ZM59.605 25.203C59.4954 25.0556 59.3998 24.9129 59.317 24.7794C59.9838 24.2703 60.6088 24.1102 61.1754 24.1102C62.5775 24.1102 64.147 25.0943 65.534 26.3924C65.833 26.6721 66.1092 26.953 66.3575 27.22C65.5802 27.3938 64.8916 27.4657 64.2838 27.4657C63.4579 27.4656 62.7659 27.3332 62.1887 27.1314L60.9615 26.7023L60.6287 26.3488C60.3036 25.9559 59.9624 25.5739 59.605 25.203ZM62.1673 48.2384C61.6773 48.6219 61.0872 49.3094 60.863 50.6205C61.1327 50.4452 61.4016 50.2516 61.653 50.0414C62.2705 49.5253 62.6644 49.008 62.8155 48.5308C62.8791 48.3301 62.9136 48.0969 62.8665 47.817C62.6401 47.9197 62.3996 48.0566 62.1673 48.2384ZM63.1415 39.9088L62.6299 40.5794C62.0663 41.3181 61.2746 41.9793 60.513 42.5072C60.5213 40.4062 61.2927 39.2664 61.9883 38.6252C62.387 38.2577 62.8144 38.0053 63.1867 37.8351C63.4238 38.3961 63.4117 38.8716 63.3038 39.2856L63.1415 39.9088ZM67.0179 44.7707C66.4701 44.3548 66.1044 43.9382 65.8584 43.5573C65.3923 42.8359 65.2776 42.1218 65.2955 41.5284L65.3043 41.238C65.7018 41.353 65.9692 41.5687 66.1777 41.8316C66.5259 42.2707 66.7718 42.9333 66.9082 43.7483C66.9655 44.0904 66.9998 44.4366 67.0179 44.7707ZM64.789 33.842C64.5489 33.4807 64.3869 33.1154 64.2783 32.7938C64.5125 32.7264 64.7205 32.701 64.9041 32.701C65.9613 32.701 67.0296 33.6004 67.9811 35.0806C68.1429 35.3324 68.2913 35.5856 68.4256 35.8314C66.3265 35.5771 65.317 34.6363 64.789 33.842ZM52.1298 23.7875C52.1242 24.8152 52.4665 26.2677 54.1553 27.8114C54.2554 27.1594 54.3235 26.4291 54.3043 25.7067C54.2762 24.6508 54.0655 23.7663 53.6511 23.1528C53.3978 22.7778 53.0233 22.434 52.4041 22.2238C52.2579 22.6453 52.1331 23.1826 52.1298 23.7875Z" fill="#102E46"/>
<path d="M29.9446 37.5052C30.8995 37.5052 31.6734 38.2811 31.6734 39.2382C31.6734 39.4078 31.6487 39.5715 31.6034 39.7264L33.6993 40.6244L35.2153 36.6694L38.9208 38.7143L41.1317 34.8756C40.6101 34.5772 40.2582 34.0149 40.2582 33.3699C40.2582 32.4127 41.0323 31.6369 41.987 31.6369C42.9418 31.6369 43.7158 32.4128 43.7158 33.3699C43.7158 34.0149 43.364 34.5773 42.8424 34.8757L45.0805 38.7616L48.8715 36.6695L50.3717 40.583L52.7289 39.5731C52.6835 39.4181 52.6587 39.2542 52.6587 39.0845C52.6587 38.1274 53.4328 37.3515 54.3875 37.3515C55.3424 37.3515 56.1165 38.1273 56.1165 39.0844C56.1165 40.0415 55.3425 40.8173 54.3877 40.8173C54.0994 40.8173 53.8279 40.7462 53.5889 40.6212L48.421 49.623H35.5532L30.5281 40.8698C30.3458 40.9354 30.1495 40.9713 29.9447 40.9713C28.9898 40.9713 28.2159 40.1954 28.2159 39.2383C28.2158 38.2811 28.9898 37.5052 29.9446 37.5052ZM36.1074 39.1162L35.2711 41.2979L37.0049 42.0407L38.0666 40.1974L36.1074 39.1162ZM47.9796 39.1162L45.9349 40.2447L46.9694 42.0407L48.8 41.2564L47.9796 39.1162ZM36.5411 47.9107H47.4332L50.6359 42.332L46.2476 44.2121L41.9872 36.8151L37.7268 44.2121L33.3385 42.332L36.5411 47.9107Z" fill="#102E46"/>
<path d="M35.597 50.7636H48.4347V52.4759H35.597V50.7636Z" fill="#102E46"/>
</svg>
