<svg width="186" height="80" viewBox="0 0 186 80" fill="none" xmlns="http://www.w3.org/2000/svg">
<path fill-rule="evenodd" clip-rule="evenodd" d="M46.315 26.6378C44.9579 26.4388 43.5242 26.3393 42.014 26.3393H26.24V53.4419H42.014C43.522 53.4419 44.9537 53.3449 46.309 53.1511C42.3099 58.3962 35.9955 61.7811 28.8905 61.7811C16.8007 61.7811 7 51.9804 7 39.8905C7 27.8007 16.8007 18 28.8905 18C35.999 18 42.3162 21.3882 46.315 26.6378ZM47.0891 44.6529C45.7175 45.7628 43.8733 46.3178 41.5568 46.3178H37.0303V33.4634H41.5568C43.8733 33.4634 45.7175 34.0313 47.0891 35.167C48.4912 36.2769 49.1923 37.8514 49.1923 39.8906C49.1923 41.9297 48.4912 43.5172 47.0891 44.6529Z" fill="#102E46"/>
<path d="M84.1941 44.8733C84.1941 44.9775 84.1579 45.53 84.0854 46.5307H70.3101C70.6001 47.177 71.0834 47.6773 71.7601 48.0318C72.4368 48.3653 73.2826 48.5321 74.2977 48.5321C75.1677 48.5321 75.8927 48.4383 76.4727 48.2507C77.0769 48.063 77.7294 47.7399 78.4302 47.2812L82.7078 51.0026C80.7745 52.8373 77.8865 53.7546 74.0439 53.7546C71.6514 53.7546 69.5488 53.3793 67.7363 52.6288C65.9237 51.8574 64.5221 50.7941 63.5312 49.439C62.5403 48.0839 62.0449 46.562 62.0449 44.8733C62.0449 43.1637 62.5283 41.6418 63.495 40.3075C64.4858 38.9524 65.8271 37.8996 67.5188 37.149C69.2346 36.3985 71.1559 36.0232 73.2826 36.0232C75.2885 36.0232 77.1131 36.3672 78.7565 37.0552C80.424 37.7432 81.7411 38.7543 82.7078 40.0886C83.6987 41.4229 84.1941 43.0178 84.1941 44.8733ZM73.3551 40.8392C72.5093 40.8392 71.8084 41.0372 71.2526 41.4333C70.6968 41.8294 70.3343 42.3923 70.1651 43.122H76.5452C76.376 42.4132 76.0135 41.8607 75.4577 41.4646C74.9018 41.0476 74.201 40.8392 73.3551 40.8392Z" fill="#102E46"/>
<path d="M94.4049 36.0232C97.885 36.0232 100.543 36.7008 102.38 38.0559C104.217 39.3902 105.135 41.4542 105.135 44.2478V53.4419H97.5225V51.1903C96.58 52.8998 94.707 53.7546 91.9036 53.7546C90.3328 53.7546 88.9915 53.5253 87.8798 53.0666C86.7923 52.5871 85.9585 51.9512 85.3785 51.159C84.8226 50.3459 84.5447 49.439 84.5447 48.4383C84.5447 46.7496 85.2939 45.4674 86.7923 44.5918C88.2906 43.7162 90.5623 43.2784 93.6074 43.2784H96.9062C96.6404 41.9441 95.3958 41.277 93.1724 41.277C92.2782 41.277 91.3719 41.4021 90.4536 41.6522C89.5352 41.8816 88.7498 42.2047 88.0973 42.6217L85.4872 37.9621C86.6231 37.3575 87.9885 36.8884 89.5836 36.5549C91.2028 36.2005 92.8099 36.0232 94.4049 36.0232ZM94.3687 49.5016C94.9487 49.5016 95.4683 49.366 95.9274 49.095C96.3866 48.824 96.725 48.4175 96.9425 47.8754V46.6871H94.9124C93.2449 46.6871 92.4111 47.1666 92.4111 48.1256C92.4111 48.5217 92.5803 48.8553 92.9186 49.1263C93.2811 49.3765 93.7645 49.5016 94.3687 49.5016Z" fill="#102E46"/>
<path d="M107.951 30.2379H116.143V53.4419H107.951V30.2379Z" fill="#102E46"/>
<path d="M129.526 53.7546C127.327 53.7546 125.345 53.3793 123.581 52.6288C121.841 51.8574 120.476 50.8046 119.485 49.4703C118.494 48.1152 117.998 46.5828 117.998 44.8733C117.998 43.1637 118.494 41.6418 119.485 40.3075C120.476 38.9524 121.841 37.8996 123.581 37.149C125.345 36.3985 127.327 36.0232 129.526 36.0232C131.75 36.0232 133.731 36.3985 135.471 37.149C137.236 37.8996 138.601 38.9524 139.568 40.3075C140.558 41.6418 141.054 43.1637 141.054 44.8733C141.054 46.5828 140.558 48.1152 139.568 49.4703C138.601 50.8046 137.236 51.8574 135.471 52.6288C133.731 53.3793 131.75 53.7546 129.526 53.7546ZM129.526 48.2507C130.469 48.2507 131.242 47.9588 131.846 47.3751C132.45 46.7705 132.753 45.9365 132.753 44.8733C132.753 43.81 132.45 42.9865 131.846 42.4028C131.242 41.819 130.469 41.5272 129.526 41.5272C128.584 41.5272 127.81 41.819 127.206 42.4028C126.602 42.9865 126.3 43.81 126.3 44.8733C126.3 45.9365 126.602 46.7705 127.206 47.3751C127.81 47.9588 128.584 48.2507 129.526 48.2507Z" fill="#102E46"/>
<path d="M169.139 36.0232C171.531 36.0232 173.44 36.6591 174.866 37.9308C176.316 39.2026 177.041 41.1206 177.041 43.6849V53.4419H168.849V44.9045C168.849 42.9448 168.111 41.965 166.637 41.965C165.864 41.965 165.236 42.2151 164.752 42.7155C164.293 43.2158 164.063 44.0081 164.063 45.0922V53.4419H155.871V44.9045C155.871 42.9448 155.134 41.965 153.66 41.965C152.886 41.965 152.258 42.2151 151.774 42.7155C151.315 43.2158 151.086 44.0081 151.086 45.0922V53.4419H142.893V36.336H150.687V37.9308C152.161 36.6591 154.034 36.0232 156.306 36.0232C157.635 36.0232 158.831 36.2421 159.895 36.68C160.958 37.0969 161.828 37.7432 162.505 38.6188C163.302 37.7849 164.269 37.149 165.405 36.7112C166.541 36.2526 167.785 36.0232 169.139 36.0232Z" fill="#102E46"/>
</svg>
