<svg width="186" height="80" viewBox="0 0 186 80" fill="none" xmlns="http://www.w3.org/2000/svg">
<g clip-path="url(#clip0_42_289)">
<path d="M71.0654 60.3314V51.8745H76.0027V52.5613H71.9685V55.7493H75.8601V56.4361H71.9685V59.6446H76.0027V60.3314H71.0654Z" fill="#102E46"/>
<path d="M78.3221 60.3314V51.5157H79.1895V60.3314H78.3221Z" fill="#102E46"/>
<path d="M84.5971 60.4954C83.9594 60.4954 83.3891 60.3741 82.886 60.1315C82.387 59.8889 81.9948 59.5591 81.7096 59.1423C81.4245 58.722 81.2819 58.2505 81.2819 57.7277C81.2819 57.3347 81.3631 56.9691 81.5255 56.6308C81.6918 56.2892 81.9216 55.9902 82.2147 55.7339C82.5078 55.4776 82.8484 55.2778 83.2366 55.1342C83.6247 54.9907 84.0386 54.919 84.4783 54.919C85.0803 54.919 85.6151 55.0334 86.0824 55.2624C86.5538 55.4879 86.9261 55.8005 87.1994 56.2003C87.4767 56.6001 87.6232 57.0614 87.6391 57.5842C87.6391 57.6252 87.6371 57.6593 87.6331 57.6867C87.6331 57.7106 87.6292 57.7413 87.6212 57.7789H82.1434C82.1434 58.189 82.2503 58.5511 82.4642 58.8655C82.6781 59.1799 82.9712 59.4276 83.3435 59.6087C83.7198 59.7864 84.1495 59.8752 84.6328 59.8752C85.0922 59.8752 85.5042 59.7932 85.8686 59.6292C86.2369 59.4618 86.5439 59.2226 86.7895 58.9116L87.4311 59.2089C87.142 59.6155 86.7479 59.9316 86.2488 60.1571C85.7537 60.3826 85.2031 60.4954 84.5971 60.4954ZM82.1909 57.2151H86.7716C86.7201 56.8871 86.5875 56.5984 86.3736 56.349C86.1597 56.0961 85.8884 55.8979 85.5596 55.7544C85.2348 55.6109 84.8783 55.5391 84.4902 55.5391C84.0901 55.5391 83.7257 55.6109 83.397 55.7544C83.0682 55.8945 82.7969 56.091 82.583 56.3438C82.3731 56.5933 82.2424 56.8837 82.1909 57.2151Z" fill="#102E46"/>
<path d="M89.6593 60.3314V55.083H90.5267V55.8005C90.7683 55.5101 91.0575 55.2914 91.3942 55.1445C91.7308 54.9942 92.1071 54.919 92.523 54.919C93.0221 54.919 93.4558 55.0181 93.8242 55.2162C94.1965 55.4144 94.4539 55.6844 94.5965 56.0261C94.8302 55.6912 95.1273 55.423 95.4877 55.2214C95.8521 55.0198 96.2839 54.919 96.7829 54.919C97.2147 54.919 97.5989 54.9959 97.9355 55.1496C98.2722 55.3 98.5356 55.5221 98.7257 55.8159C98.9198 56.1064 99.0169 56.4617 99.0169 56.882V60.3314H98.1494V57.0921C98.1494 56.6138 98.0049 56.2345 97.7157 55.9543C97.4266 55.6741 97.0404 55.534 96.5572 55.534C96.2244 55.534 95.9234 55.5972 95.6541 55.7237C95.3847 55.8501 95.1708 56.0141 95.0124 56.2157C94.854 56.4139 94.7748 56.6189 94.7748 56.8307V60.3314H93.9073V57.0152C93.9073 56.5608 93.7628 56.2003 93.4736 55.9338C93.1884 55.6673 92.8102 55.534 92.3388 55.534C92.0061 55.534 91.7011 55.5955 91.4239 55.7185C91.1506 55.8381 90.9327 55.9936 90.7703 56.1849C90.6079 56.3763 90.5267 56.5728 90.5267 56.7744V60.3314H89.6593Z" fill="#102E46"/>
<path d="M104.324 60.4954C103.686 60.4954 103.116 60.3741 102.613 60.1315C102.114 59.8889 101.722 59.5591 101.437 59.1423C101.151 58.722 101.009 58.2505 101.009 57.7277C101.009 57.3347 101.09 56.9691 101.252 56.6308C101.419 56.2892 101.649 55.9902 101.942 55.7339C102.235 55.4776 102.575 55.2778 102.964 55.1342C103.352 54.9907 103.766 54.919 104.205 54.919C104.807 54.919 105.342 55.0334 105.809 55.2624C106.281 55.4879 106.653 55.8005 106.926 56.2003C107.204 56.6001 107.35 57.0614 107.366 57.5842C107.366 57.6252 107.364 57.6593 107.36 57.6867C107.36 57.7106 107.356 57.7413 107.348 57.7789H101.87C101.87 58.189 101.977 58.5511 102.191 58.8655C102.405 59.1799 102.698 59.4276 103.07 59.6087C103.447 59.7864 103.877 59.8752 104.36 59.8752C104.819 59.8752 105.231 59.7932 105.596 59.6292C105.964 59.4618 106.271 59.2226 106.516 58.9116L107.158 59.2089C106.869 59.6155 106.475 59.9316 105.976 60.1571C105.481 60.3826 104.93 60.4954 104.324 60.4954ZM101.918 57.2151H106.499C106.447 56.8871 106.314 56.5984 106.101 56.349C105.887 56.0961 105.615 55.8979 105.287 55.7544C104.962 55.6109 104.605 55.5391 104.217 55.5391C103.817 55.5391 103.453 55.6109 103.124 55.7544C102.795 55.8945 102.524 56.091 102.31 56.3438C102.1 56.5933 101.969 56.8837 101.918 57.2151Z" fill="#102E46"/>
<path d="M109.386 60.3314V55.083H110.254V55.8005C110.42 55.5545 110.678 55.3461 111.026 55.1752C111.375 55.0044 111.8 54.919 112.303 54.919C112.775 54.919 113.181 55.0027 113.521 55.1701C113.862 55.3375 114.123 55.5819 114.306 55.903C114.488 56.2208 114.579 56.6052 114.579 57.0563V60.3314H113.712V57.1998C113.712 56.6565 113.565 56.243 113.272 55.9594C112.979 55.6724 112.565 55.5289 112.03 55.5289C111.658 55.5289 111.339 55.5938 111.074 55.7237C110.812 55.8501 110.61 56.0192 110.468 56.2311C110.325 56.4395 110.254 56.6667 110.254 56.9127V60.3314H109.386Z" fill="#102E46"/>
<path d="M118.467 60.4954C118.012 60.4954 117.657 60.3638 117.404 60.1007C117.154 59.8342 117.029 59.46 117.029 58.9783V55.6468H116.412V55.083H117.029V53.12H117.897V55.083H119.412V55.6468H117.897V58.9373C117.897 59.2277 117.962 59.4498 118.093 59.6036C118.224 59.7573 118.41 59.8342 118.651 59.8342C118.885 59.8342 119.091 59.7778 119.269 59.6651L119.489 60.2596C119.354 60.3314 119.196 60.3877 119.014 60.4287C118.832 60.4732 118.649 60.4954 118.467 60.4954Z" fill="#102E46"/>
<path d="M123.958 60.4954C123.388 60.4954 122.873 60.3758 122.413 60.1366C121.958 59.894 121.595 59.5625 121.326 59.1423C121.061 58.722 120.928 58.2419 120.928 57.702C120.928 57.169 121.059 56.6941 121.32 56.2772C121.586 55.8569 121.946 55.5255 122.401 55.2829C122.861 55.0403 123.38 54.919 123.958 54.919C124.509 54.919 125.008 55.03 125.455 55.2521C125.903 55.4742 126.243 55.7817 126.477 56.1747V55.083H127.345V60.3314H126.477V59.2243C126.216 59.6206 125.865 59.9316 125.426 60.1571C124.986 60.3826 124.497 60.4954 123.958 60.4954ZM124.172 59.8444C124.627 59.8444 125.029 59.7539 125.378 59.5728C125.731 59.3883 126.008 59.1354 126.21 58.8142C126.412 58.4896 126.513 58.1206 126.513 57.7072C126.513 57.2903 126.412 56.9213 126.21 56.6001C126.012 56.2789 125.737 56.0278 125.384 55.8467C125.031 55.6622 124.627 55.5699 124.172 55.5699C123.716 55.5699 123.312 55.6622 122.96 55.8467C122.607 56.0278 122.33 56.2789 122.128 56.6001C121.926 56.9213 121.825 57.2903 121.825 57.7072C121.825 58.1206 121.926 58.4896 122.128 58.8142C122.33 59.1354 122.607 59.3883 122.96 59.5728C123.312 59.7539 123.716 59.8444 124.172 59.8444Z" fill="#102E46"/>
<path d="M129.902 60.3314V55.083H130.77V55.8569C130.964 55.5494 131.213 55.317 131.518 55.1599C131.827 54.9993 132.184 54.919 132.588 54.919C132.766 54.919 132.946 54.9361 133.128 54.9702C133.315 55.0044 133.475 55.0488 133.61 55.1035L133.253 55.7339C133.134 55.6827 132.998 55.6434 132.843 55.616C132.693 55.5887 132.548 55.575 132.41 55.575C132.128 55.575 131.863 55.6365 131.613 55.7595C131.364 55.8825 131.16 56.0431 131.001 56.2413C130.847 56.4361 130.77 56.6445 130.77 56.8666V60.3314H129.902Z" fill="#102E46"/>
<path d="M135.699 62.9965L137.196 60.2032L134.302 55.083H135.283L137.689 59.4344L139.875 55.083H140.856L136.679 62.9965H135.699Z" fill="#102E46"/>
<path d="M148.116 60.4954C147.609 60.4954 147.163 60.4304 146.779 60.3006C146.395 60.1673 146.068 60.0085 145.799 59.8239C145.534 59.636 145.32 59.4532 145.157 59.2755C144.999 59.0979 144.888 58.9646 144.825 58.8758L145.341 58.3017C145.413 58.3974 145.52 58.5272 145.662 58.6912C145.809 58.8518 145.995 59.0158 146.221 59.1833C146.447 59.3473 146.718 59.4874 147.035 59.6036C147.352 59.7163 147.718 59.7727 148.134 59.7727C148.53 59.7727 148.89 59.7112 149.215 59.5882C149.544 59.4652 149.807 59.2824 150.005 59.0398C150.203 58.7972 150.302 58.4965 150.302 58.1377C150.302 57.837 150.233 57.5825 150.095 57.374C149.96 57.1622 149.772 56.9828 149.53 56.8359C149.288 56.6889 149.011 56.5591 148.698 56.4463C148.389 56.3302 148.065 56.2174 147.724 56.1081C147.486 56.0295 147.237 55.9372 146.975 55.8313C146.718 55.722 146.476 55.587 146.251 55.4264C146.025 55.2624 145.841 55.0642 145.698 54.8318C145.559 54.5995 145.49 54.3193 145.49 53.9913C145.49 53.6838 145.557 53.3933 145.692 53.12C145.827 52.8466 146.015 52.6057 146.256 52.3973C146.498 52.1855 146.787 52.0197 147.124 51.9001C147.461 51.7806 147.833 51.7208 148.241 51.7208C148.633 51.7208 148.993 51.7771 149.322 51.8899C149.651 51.9992 149.938 52.1393 150.184 52.3102C150.433 52.4776 150.625 52.6519 150.76 52.833L150.297 53.3711C150.186 53.2139 150.031 53.0636 149.833 52.9201C149.635 52.7766 149.401 52.6604 149.132 52.5716C148.867 52.4793 148.572 52.4332 148.247 52.4332C147.843 52.4332 147.498 52.5084 147.213 52.6587C146.932 52.809 146.718 53.0038 146.571 53.243C146.425 53.4788 146.352 53.7282 146.352 53.9913C146.352 54.2305 146.409 54.4338 146.524 54.6012C146.639 54.7686 146.791 54.9104 146.981 55.0266C147.171 55.1394 147.379 55.2368 147.605 55.3188C147.835 55.4008 148.065 55.4776 148.294 55.5494C148.679 55.6724 149.047 55.804 149.399 55.944C149.756 56.0807 150.073 56.2447 150.35 56.4361C150.627 56.624 150.847 56.8547 151.009 57.128C151.172 57.3979 151.253 57.726 151.253 58.1121C151.253 58.6178 151.114 59.0483 150.837 59.4037C150.56 59.759 150.186 60.0307 149.714 60.2186C149.243 60.4031 148.71 60.4954 148.116 60.4954Z" fill="#102E46"/>
<path d="M156.298 60.4954C155.843 60.4954 155.415 60.427 155.015 60.2903C154.615 60.1503 154.264 59.9538 153.963 59.7009C153.662 59.4481 153.427 59.1525 153.256 58.8142C153.086 58.476 153.001 58.1069 153.001 57.7072C153.001 57.3108 153.084 56.9435 153.25 56.6052C153.417 56.2669 153.649 55.9714 153.946 55.7185C154.247 55.4657 154.597 55.2692 154.997 55.1291C155.397 54.989 155.831 54.919 156.298 54.919C156.698 54.919 157.079 54.9702 157.439 55.0727C157.8 55.1752 158.11 55.317 158.372 55.4981L158.015 56.0004C157.572 55.7032 157.033 55.5545 156.399 55.5545C155.9 55.5545 155.461 55.6502 155.08 55.8415C154.704 56.0295 154.411 56.2874 154.201 56.6155C153.991 56.9401 153.886 57.304 153.886 57.7072C153.886 58.1138 153.993 58.4811 154.207 58.8091C154.421 59.1337 154.718 59.39 155.098 59.5779C155.478 59.7659 155.914 59.8598 156.405 59.8598C156.714 59.8598 157.005 59.8222 157.279 59.7471C157.556 59.6685 157.8 59.5574 158.009 59.4139L158.372 59.9162C158.106 60.0939 157.796 60.234 157.439 60.3365C157.083 60.4424 156.702 60.4954 156.298 60.4954Z" fill="#102E46"/>
<path d="M160.259 60.3314V51.5106H161.126V55.8005C161.292 55.5545 161.55 55.3461 161.899 55.1752C162.247 55.0044 162.673 54.919 163.176 54.919C163.647 54.919 164.053 55.0027 164.394 55.1701C164.734 55.3375 164.996 55.5819 165.178 55.903C165.36 56.2208 165.451 56.6052 165.451 57.0563V60.3314H164.584V57.1998C164.584 56.6565 164.437 56.2413 164.144 55.9543C163.851 55.6673 163.437 55.5238 162.903 55.5238C162.53 55.5238 162.211 55.5887 161.946 55.7185C161.685 55.8484 161.483 56.0192 161.34 56.2311C161.197 56.4395 161.126 56.6667 161.126 56.9127V60.3314H160.259Z" fill="#102E46"/>
<path d="M170.8 60.4954C170.166 60.4954 169.593 60.3775 169.082 60.1417C168.575 59.9059 168.173 59.5779 167.876 59.1576C167.579 58.7374 167.431 58.2539 167.431 57.7072C167.431 57.1571 167.579 56.6736 167.876 56.2567C168.173 55.8364 168.575 55.5084 169.082 55.2726C169.589 55.0369 170.162 54.919 170.8 54.919C171.433 54.919 172.004 55.0369 172.511 55.2726C173.022 55.5084 173.426 55.8364 173.723 56.2567C174.02 56.6736 174.168 57.1571 174.168 57.7072C174.168 58.2539 174.02 58.7374 173.723 59.1576C173.426 59.5779 173.022 59.9059 172.511 60.1417C172.004 60.3775 171.433 60.4954 170.8 60.4954ZM170.8 59.8291C171.275 59.8291 171.699 59.7385 172.071 59.5574C172.443 59.3763 172.736 59.1269 172.95 58.8091C173.164 58.4879 173.271 58.1206 173.271 57.7072C173.271 57.2937 173.164 56.9281 172.95 56.6103C172.736 56.2892 172.443 56.038 172.071 55.8569C171.699 55.6758 171.275 55.5853 170.8 55.5853C170.324 55.5853 169.9 55.6758 169.528 55.8569C169.156 56.038 168.863 56.2892 168.649 56.6103C168.435 56.9281 168.328 57.2937 168.328 57.7072C168.328 58.1172 168.435 58.4828 168.649 58.804C168.863 59.1252 169.156 59.3763 169.528 59.5574C169.9 59.7385 170.324 59.8291 170.8 59.8291Z" fill="#102E46"/>
<path d="M179.166 60.4954C178.532 60.4954 177.96 60.3775 177.449 60.1417C176.942 59.9059 176.54 59.5779 176.243 59.1576C175.946 58.7374 175.797 58.2539 175.797 57.7072C175.797 57.1571 175.946 56.6736 176.243 56.2567C176.54 55.8364 176.942 55.5084 177.449 55.2726C177.956 55.0369 178.528 54.919 179.166 54.919C179.8 54.919 180.37 55.0369 180.877 55.2726C181.388 55.5084 181.792 55.8364 182.089 56.2567C182.386 56.6736 182.535 57.1571 182.535 57.7072C182.535 58.2539 182.386 58.7374 182.089 59.1576C181.792 59.5779 181.388 59.9059 180.877 60.1417C180.37 60.3775 179.8 60.4954 179.166 60.4954ZM179.166 59.8291C179.641 59.8291 180.065 59.7385 180.438 59.5574C180.81 59.3763 181.103 59.1269 181.317 58.8091C181.531 58.4879 181.638 58.1206 181.638 57.7072C181.638 57.2937 181.531 56.9281 181.317 56.6103C181.103 56.2892 180.81 56.038 180.438 55.8569C180.065 55.6758 179.641 55.5853 179.166 55.5853C178.691 55.5853 178.267 55.6758 177.895 55.8569C177.522 56.038 177.229 56.2892 177.015 56.6103C176.801 56.9281 176.694 57.2937 176.694 57.7072C176.694 58.1172 176.801 58.4828 177.015 58.804C177.229 59.1252 177.522 59.3763 177.895 59.5574C178.267 59.7385 178.691 59.8291 179.166 59.8291Z" fill="#102E46"/>
<path d="M184.604 60.3314V51.5157H185.472V60.3314H184.604Z" fill="#102E46"/>
<path d="M69.5391 43.0949L73.8665 40.8772C75.5803 43.0457 77.794 44.1299 80.5076 44.1299C81.7359 44.1299 82.6928 43.9204 83.3783 43.5015C84.0924 43.058 84.4495 42.4912 84.4495 41.8013C84.4495 41.5795 84.4066 41.3824 84.3209 41.2099C84.2638 41.0128 84.1495 40.828 83.9781 40.6555C83.8068 40.483 83.6497 40.3351 83.5068 40.2119C83.364 40.0887 83.1212 39.9532 82.7785 39.8054C82.4643 39.6575 82.2072 39.5466 82.0072 39.4727C81.8073 39.3741 81.4931 39.2632 81.0646 39.14C80.6362 38.9922 80.3077 38.8936 80.0792 38.8443C79.8507 38.7704 79.4793 38.6719 78.9652 38.5487C78.451 38.4008 78.0797 38.2899 77.8512 38.216C75.6803 37.6 73.9379 36.8115 72.624 35.8505C71.31 34.8895 70.6531 33.4972 70.6531 31.6738C70.6531 29.7271 71.6242 28.1747 73.5666 27.0166C75.5089 25.8585 77.8369 25.2794 80.5505 25.2794C82.6642 25.2794 84.6494 25.7476 86.5061 26.684C88.3627 27.6203 89.7481 28.8401 90.6621 30.3432L86.6346 32.45C84.8636 30.5033 82.8499 29.53 80.5933 29.53C79.4222 29.53 78.5081 29.7395 77.8512 30.1584C77.2228 30.5526 76.9086 31.0824 76.9086 31.7477C76.9086 31.9695 76.9371 32.1789 76.9943 32.3761C77.0799 32.5732 77.2085 32.758 77.3799 32.9305C77.5513 33.103 77.7084 33.2631 77.8512 33.411C78.0226 33.5342 78.2511 33.6697 78.5367 33.8176C78.8509 33.9654 79.108 34.0886 79.3079 34.1872C79.5364 34.2611 79.8507 34.3597 80.2505 34.4829C80.6504 34.6061 80.9646 34.7046 81.1932 34.7786C81.4217 34.8278 81.7644 34.9264 82.2215 35.0743C82.6785 35.1975 83.007 35.2837 83.2069 35.333C88.2056 36.7622 90.705 38.9306 90.705 41.8382C90.705 43.6617 89.8338 45.2141 88.0914 46.4954C86.349 47.7521 83.8782 48.3805 80.679 48.3805C78.1939 48.3805 75.966 47.9 73.995 46.939C72.0527 45.978 70.5674 44.6966 69.5391 43.0949Z" fill="#102E46"/>
<path d="M94.7325 47.7152V25.9447H100.645V28.2363C101.102 27.571 101.873 26.918 102.959 26.2774C104.073 25.6121 105.387 25.2794 106.901 25.2794C109.614 25.2794 111.628 26.4622 112.942 28.8277C113.256 28.3596 113.642 27.9037 114.099 27.4602C114.584 26.992 115.399 26.5115 116.541 26.0186C117.712 25.5258 118.998 25.2794 120.397 25.2794C125.653 25.2794 128.281 28.1008 128.281 33.7436V47.7152H122.111V33.8545C122.111 32.4993 121.883 31.489 121.426 30.8237C120.968 30.1337 120.183 29.7887 119.069 29.7887C117.698 29.7887 116.584 30.2939 115.727 31.3042C114.899 32.2898 114.484 33.4849 114.484 34.8895V47.7152H108.443V33.7067C108.443 31.0947 107.429 29.7887 105.401 29.7887C103.916 29.7887 102.788 30.2569 102.016 31.1933C101.245 32.105 100.859 33.3247 100.859 34.8525V47.7152H94.7325Z" fill="#102E46"/>
<path d="M133.808 23.1726V17.5544H140.149V23.1726H133.808ZM133.979 47.7152V25.9447H140.021V47.7152H133.979Z" fill="#102E46"/>
<path d="M146.49 47.7152V17H152.617V47.7152H146.49Z" fill="#102E46"/>
<path d="M157.288 36.7375C157.288 33.2139 158.402 30.4294 160.63 28.3842C162.886 26.3143 165.714 25.2794 169.113 25.2794C172.426 25.2794 175.183 26.3267 177.382 28.4212C179.61 30.5157 180.724 33.2508 180.724 36.6266C180.724 37.5384 180.696 38.216 180.639 38.6595H163.5C163.5 40.1626 164.029 41.4563 165.086 42.5405C166.171 43.6247 167.642 44.1668 169.499 44.1668C170.813 44.1668 171.969 43.8835 172.969 43.3167C173.997 42.7253 174.769 41.9861 175.283 41.099L180.382 42.6514C179.582 44.2777 178.225 45.6453 176.311 46.7541C174.426 47.8384 172.098 48.3805 169.327 48.3805C165.785 48.3805 162.886 47.3332 160.63 45.2387C158.402 43.1196 157.288 40.2859 157.288 36.7375ZM163.543 35.0003H174.512C174.512 33.4726 174.026 32.1666 173.055 31.0824C172.112 29.9982 170.798 29.4561 169.113 29.4561C167.399 29.4561 166.042 30.0105 165.043 31.1194C164.072 32.2036 163.572 33.4972 163.543 35.0003Z" fill="#102E46"/>
<path d="M-1.03401e-06 39.0414C-4.62944e-07 52.106 12.277 62.6969 27.4214 62.6969C42.5658 62.6969 54.8428 52.106 54.8428 39.0414L47.5304 39.0414C47.5304 48.6221 38.5273 56.3888 27.4214 56.3888C16.3155 56.3888 7.31237 48.6221 7.31237 39.0414L-1.03401e-06 39.0414Z" fill="#102E46"/>
<ellipse cx="17.3671" cy="28.0023" rx="5.48428" ry="4.73109" fill="#102E46"/>
<ellipse cx="39.3036" cy="28.0023" rx="5.48428" ry="4.73109" fill="#102E46"/>
<path d="M0.914061 39.0414C0.914062 52.106 13.191 62.6969 28.3355 62.6969C43.4799 62.6969 55.7569 52.106 55.7569 39.0414L48.4445 39.0414C48.4445 48.6221 39.4414 56.3888 28.3355 56.3888C17.2296 56.3888 8.22644 48.6221 8.22644 39.0414L0.914061 39.0414Z" fill="#102E46"/>
<ellipse cx="18.2812" cy="28.0023" rx="5.48428" ry="4.73109" fill="#102E46"/>
<ellipse cx="40.2177" cy="28.0023" rx="5.48428" ry="4.73109" fill="#102E46"/>
</g>
<defs>
<clipPath id="clip0_42_289">
<rect width="185.472" height="80" fill="white"/>
</clipPath>
</defs>
</svg>
