<svg width="186" height="80" viewBox="0 0 186 80" fill="none" xmlns="http://www.w3.org/2000/svg">
<path d="M67.585 50.9118V30.3232L65.0694 29.8404V27.4091H70.3201C71.0292 27.4091 72.0254 27.3746 73.3085 27.3056C74.4341 27.2252 75.4471 27.1849 76.3476 27.1849C80.591 27.1849 83.7707 28.2598 85.8868 30.4094C88.0141 32.5591 89.0777 35.6342 89.0777 39.6347C89.0777 42.3936 88.5543 44.8537 87.5076 47.0148C86.472 49.176 84.9863 50.8716 83.0503 52.1016C81.1256 53.3202 78.8745 53.9294 76.2969 53.9294C75.7566 53.9294 74.6648 53.8777 73.0215 53.7743C72.7514 53.7628 72.3349 53.7398 71.7721 53.7053C71.2206 53.6708 70.7816 53.6535 70.4552 53.6535H64.9512V51.3429L67.585 50.9118ZM73.241 51.0498C73.6124 51.1877 74.0345 51.2797 74.5073 51.3257C74.98 51.3717 75.5259 51.3889 76.145 51.3774C78.2498 51.3544 79.8931 50.452 81.0749 48.6702C82.2568 46.8769 82.8477 44.1582 82.8477 40.5141C82.8477 37.0539 82.2568 34.3754 81.0749 32.4786C79.8931 30.5704 78.0528 29.6162 75.554 29.6162C74.8562 29.6162 74.3103 29.6622 73.9163 29.7542C73.5224 29.8347 73.2973 29.8806 73.241 29.8921V51.0498Z" fill="#102E46"/>
<path d="M91.2557 43.8593C91.2557 41.7326 91.644 39.8933 92.4207 38.3414C93.2086 36.7895 94.3116 35.5997 95.7298 34.772C97.1481 33.9443 98.7914 33.5305 100.66 33.5305C103.035 33.5305 104.853 34.1455 106.113 35.3755C107.385 36.6056 108.049 38.3701 108.105 40.6693C108.105 42.2672 108.021 43.4799 107.852 44.3076H96.9455C97.0805 46.4228 97.587 47.992 98.465 49.0151C99.3542 50.0382 100.53 50.5497 101.994 50.5497C102.838 50.5497 103.716 50.4003 104.627 50.1014C105.55 49.8025 106.299 49.4634 106.873 49.084L107.852 51.2222C107.458 51.6476 106.873 52.0786 106.096 52.5155C105.331 52.9523 104.447 53.3202 103.446 53.6191C102.455 53.9064 101.459 54.0501 100.457 54.0501C98.3637 54.0501 96.6303 53.6248 95.2571 52.7741C93.8839 51.9235 92.8709 50.7394 92.2181 49.222C91.5765 47.6931 91.2557 45.9055 91.2557 43.8593ZM102.72 41.9453L102.737 40.4968C102.737 39.0599 102.534 37.9448 102.129 37.1516C101.724 36.3584 101.037 35.9618 100.069 35.9618C99.4273 35.9618 98.8814 36.1285 98.4312 36.4619C97.981 36.7952 97.6208 37.4045 97.3507 38.2897C97.0805 39.1633 96.9286 40.3819 96.8948 41.9453H102.72Z" fill="#102E46"/>
<path d="M112.512 50.9981V28.0988L110.03 27.6505V25.5296L116.851 24.6846H116.936L117.949 25.4433V50.9981L120.228 51.3429V53.6535H110.25V51.3429L112.512 50.9981Z" fill="#102E46"/>
<path d="M121.933 36.9447V34.9272C122.203 34.8238 122.586 34.6628 123.081 34.4444C123.576 34.226 123.852 34.0938 123.908 34.0478C124.336 33.6225 124.696 33.0649 124.989 32.3752C125.192 31.9269 125.411 31.3636 125.647 30.6853C125.884 30.0071 126.081 29.3921 126.238 28.8403H129.362L129.514 34.0306H134.579V36.9447H129.548V46.2906C129.548 47.6471 129.576 48.584 129.632 49.1013C129.7 49.6186 129.84 49.9577 130.054 50.1186C130.268 50.2681 130.645 50.3428 131.185 50.3428H131.202C132.159 50.3428 133.211 50.1704 134.359 49.8255H134.376L135.102 51.9637C134.697 52.3086 134.14 52.6362 133.431 52.9466C132.733 53.2455 131.951 53.4926 131.084 53.688C130.229 53.8835 129.396 53.9812 128.585 53.9812H128.551C127.021 53.9812 125.878 53.6306 125.124 52.9293C124.381 52.2166 124.01 51.1188 124.01 49.6358V36.9447H121.933Z" fill="#102E46"/>
<path d="M147.377 40.8417C147.377 39.9795 147.281 39.2955 147.09 38.7897C146.909 38.2839 146.572 37.9046 146.077 37.6517C145.581 37.3988 144.872 37.2723 143.949 37.2723C142.801 37.2723 141.76 37.4045 140.826 37.6689C139.903 37.9218 138.974 38.2552 138.04 38.669H138.023L136.926 36.3412C137.297 36.0193 137.911 35.6457 138.766 35.2203C139.633 34.7835 140.64 34.4042 141.788 34.0823C142.947 33.7489 144.129 33.5822 145.334 33.5822C147.135 33.5822 148.547 33.8236 149.571 34.3064C150.607 34.7778 151.344 35.5307 151.783 36.5653C152.222 37.5999 152.442 38.9967 152.442 40.7555V51.3257H154.282V53.5156C153.708 53.642 152.988 53.7685 152.121 53.895C151.254 54.0214 150.494 54.0846 149.842 54.0846C149.245 54.0846 148.784 54.0272 148.457 53.9122C148.142 53.8087 147.917 53.6191 147.782 53.3432C147.647 53.0558 147.579 52.6419 147.579 52.1016V51.5671C147.028 52.2223 146.279 52.8029 145.334 53.3087C144.388 53.803 143.302 54.0501 142.075 54.0501C140.995 54.0501 140.004 53.826 139.104 53.3777C138.214 52.9178 137.505 52.2453 136.976 51.3602C136.447 50.475 136.183 49.4059 136.183 48.1529C136.183 45.9917 137.173 44.3651 139.154 43.273C141.135 42.1694 143.876 41.6004 147.377 41.5659V40.8417ZM147.377 43.8938C145.497 43.9053 144.135 44.2501 143.291 44.9284C142.458 45.6066 142.041 46.4688 142.041 47.5149C142.041 48.5725 142.278 49.3887 142.75 49.9635C143.234 50.5267 143.882 50.8084 144.692 50.8084C145.086 50.8084 145.542 50.7049 146.06 50.498C146.589 50.2796 147.028 50.0094 147.377 49.6876V43.8938Z" fill="#102E46"/>
<g clip-path="url(#clip0_42_332)">
<path d="M35.2075 36.2126C31.1246 36.2126 27.9688 39.5439 27.9688 43.4664C27.9688 47.5579 31.1246 50.6733 35.5353 50.6733C39.2343 50.6733 42.3433 47.6142 42.3433 43.579C42.3433 39.375 39.2343 36.2126 35.2075 36.2126Z" fill="#102E46"/>
<path d="M42.6428 55.0369C39.6461 57.5518 37.2862 58.4714 33.8026 58.4714C30.2628 58.4714 27.1257 57.3266 24.5598 55.0369C21.1792 52.034 19.3906 48.1115 19.3906 43.5228C19.3906 39.3187 21.0013 35.5558 24.0541 32.6092C26.7699 29.9348 30.0287 28.5741 33.7277 28.5741C37.2675 28.5741 40.3859 29.7752 41.8842 32.2901V20.2974C38.1478 18.064 34.3083 16.769 29.8508 16.769C17.3678 16.769 7.28223 26.9037 7.28223 39.4126C7.28223 51.9214 17.4147 61.9998 29.8976 61.9998C34.505 61.9998 38.7939 60.4327 42.3712 58.1805H42.6521V55.0369H42.6428Z" fill="#102E46"/>
<path d="M50.8838 48.4962C52.1012 45.7186 52.5038 42.65 52.5038 39.4219C52.5038 36.1938 52.1012 33.1253 50.8838 30.3476" fill="#102E46"/>
<path d="M50.8835 30.3383V17.7262L41.8936 19.5092V20.2974C45.6394 22.6997 48.636 26.1905 50.8835 30.3383Z" fill="#102E46"/>
<path d="M50.8834 48.4962C48.6359 52.5126 46.2573 55.9377 42.6426 58.1899H50.8834V48.4962Z" fill="#102E46"/>
</g>
<defs>
<clipPath id="clip0_42_332">
<rect width="45.2308" height="45.2308" fill="white" transform="translate(7.28223 16.769)"/>
</clipPath>
</defs>
</svg>
