<svg width="186" height="80" viewBox="0 0 186 80" fill="none" xmlns="http://www.w3.org/2000/svg">
<path d="M25.9895 44.8582C24.6179 44.8582 23.2213 44.6838 21.7998 44.3352C20.3783 44.0114 19.1938 43.5756 18.2461 43.0278L18.4331 37.9475H18.8072L19.9669 40.3756C20.316 41.0729 20.6901 41.6954 21.0891 42.2433C21.4881 42.7663 22.0368 43.1772 22.735 43.476C23.2338 43.7251 23.7076 43.8994 24.1565 43.999C24.6304 44.0737 25.1541 44.1111 25.7277 44.1111C27.2489 44.1111 28.446 43.7002 29.3188 42.8783C30.2166 42.0565 30.6655 40.9981 30.6655 39.7032C30.6655 38.4829 30.3663 37.5366 29.7677 36.8642C29.1692 36.1669 28.2091 35.4945 26.8873 34.847L25.3536 34.1747C23.2089 33.2283 21.5255 32.145 20.3035 30.9248C19.1065 29.6796 18.5079 28.036 18.5079 25.9939C18.5079 24.5247 18.882 23.2546 19.6302 22.1837C20.4033 21.1129 21.4632 20.2911 22.8099 19.7183C24.1815 19.1455 25.7776 18.8592 27.5981 18.8592C28.9198 18.8592 30.1667 19.0335 31.3389 19.3821C32.5359 19.7308 33.5709 20.2039 34.4437 20.8016L34.2193 25.2842H33.8452L32.3115 22.4826C31.8875 21.611 31.4636 21.0008 31.0396 20.6522C30.6156 20.2786 30.1293 20.0172 29.5807 19.8677C29.2565 19.7681 28.9572 19.7059 28.6829 19.681C28.4086 19.6312 28.0594 19.6063 27.6355 19.6063C26.3636 19.6063 25.2913 19.9798 24.4184 20.7269C23.5455 21.4491 23.1091 22.4328 23.1091 23.6779C23.1091 24.948 23.4458 25.969 24.1191 26.741C24.7925 27.4881 25.7776 28.1605 27.0744 28.7582L28.7951 29.5053C31.1892 30.5512 32.91 31.6719 33.9574 32.8672C35.0048 34.0377 35.5285 35.5568 35.5285 37.4245C35.5285 39.616 34.6931 41.4091 33.0222 42.8036C31.3763 44.1733 29.032 44.8582 25.9895 44.8582Z" fill="#102E46"/>
<path d="M37.0143 52.7774V52.4038L37.4632 52.2544C38.386 52.0054 38.8473 51.4077 38.8473 50.4614V30.1403C38.8473 29.5925 38.7476 29.1816 38.5481 28.9076C38.3735 28.6337 38.0368 28.4469 37.5381 28.3473L37.0143 28.2352V27.8617L43.3737 25.6951L43.7478 26.0687L44.0844 27.2267C44.9074 26.7286 45.8177 26.3426 46.8152 26.0687C47.8377 25.7947 48.8851 25.6577 49.9575 25.6577C52.1022 25.6577 53.798 26.4796 55.045 28.1232C56.3168 29.7419 56.9528 32.0703 56.9528 35.1085C56.9528 38.0969 56.2545 40.4503 54.8579 42.1686C53.4863 43.8869 51.5411 44.7461 49.0223 44.7461C47.0521 44.7461 45.3937 44.4597 44.047 43.8869V50.3493C44.047 51.3455 44.4959 51.968 45.3937 52.2171L46.1045 52.4038V52.7774H37.0143ZM47.2267 43.6628C48.4736 43.6628 49.4587 43.0153 50.1819 41.7203C50.9301 40.4254 51.3042 38.2712 51.3042 35.258C51.3042 32.2447 50.955 30.1403 50.2567 28.945C49.5585 27.7247 48.5485 27.1146 47.2267 27.1146C46.304 27.1146 45.2815 27.4134 44.1593 28.0111V43.0651C45.1069 43.4636 46.1294 43.6628 47.2267 43.6628Z" fill="#102E46"/>
<path d="M63.8832 44.7461C62.4367 44.7461 61.2147 44.3352 60.2172 43.5134C59.2446 42.6916 58.7583 41.5087 58.7583 39.9647C58.7583 38.7942 59.3568 37.7234 60.5539 36.7521C61.7509 35.756 63.6338 35.0089 66.2025 34.5109C66.6015 34.4361 67.0504 34.3614 67.5491 34.2867C68.0479 34.1871 68.5716 34.0875 69.1203 33.9879V31.0369C69.1203 29.3434 68.9083 28.1605 68.4843 27.4881C68.0853 26.7908 67.4494 26.4422 66.5765 26.4422C65.978 26.4422 65.5042 26.6414 65.155 27.0399C64.8059 27.4134 64.5814 28.0734 64.4817 29.0197L64.4069 29.4306C64.357 30.5014 64.0951 31.2859 63.6213 31.7839C63.1475 32.282 62.5614 32.531 61.8631 32.531C61.2147 32.531 60.6786 32.3318 60.2546 31.9334C59.8306 31.5349 59.6187 30.9995 59.6187 30.3271C59.6187 29.3061 59.9678 28.4469 60.6661 27.7496C61.3893 27.0523 62.337 26.5294 63.5091 26.1807C64.6812 25.8321 65.9531 25.6577 67.3247 25.6577C69.5442 25.6577 71.2525 26.2056 72.4496 27.3014C73.6716 28.3722 74.2826 30.1279 74.2826 32.5684V40.8238C74.2826 41.9445 74.8063 42.5048 75.8537 42.5048H76.6767L77.0133 42.8036C76.5395 43.4013 76.0158 43.862 75.4422 44.1858C74.8936 44.5095 74.108 44.6714 73.0855 44.6714C71.9882 44.6714 71.1154 44.4223 70.467 43.9243C69.8435 43.4013 69.432 42.7165 69.2325 41.8698C68.4843 42.6667 67.7112 43.3515 66.9132 43.9243C66.1401 44.4722 65.1301 44.7461 63.8832 44.7461ZM66.165 42.4674C66.6638 42.4674 67.1252 42.3554 67.5491 42.1312C67.998 41.8822 68.5217 41.5087 69.1203 41.0106V34.735C68.8709 34.7848 68.6215 34.8346 68.3721 34.8844C68.1227 34.9342 67.8359 34.984 67.5117 35.0338C66.3646 35.3327 65.4418 35.8432 64.7435 36.5654C64.0702 37.2627 63.7335 38.209 63.7335 39.4043C63.7335 40.4254 63.9704 41.1974 64.4443 41.7203C64.9181 42.2184 65.4917 42.4674 66.165 42.4674Z" fill="#102E46"/>
<path d="M78.3442 44.1858V43.8122L79.5787 43.4387C80.0276 43.3142 80.3518 43.0776 80.5513 42.7289C80.7508 42.3554 80.8506 41.9196 80.8506 41.4215V23.4538C80.5762 22.8561 80.3518 22.4079 80.1772 22.109C80.0276 21.8102 79.853 21.5612 79.6535 21.3619C79.454 21.1378 79.1797 20.8639 78.8305 20.5401L78.1946 19.9051V19.5316H84.8158L97.2352 36.4533V22.3705C97.2352 21.8725 97.148 21.4242 96.9734 21.0257C96.8238 20.6273 96.4995 20.3658 96.0008 20.2413L94.7663 19.9051V19.5316H100.116V19.9051L99.1056 20.2413C98.6567 20.3907 98.3824 20.6522 98.2827 21.0257C98.1829 21.3993 98.133 21.8351 98.133 22.3332V44.2978H96.0382L81.7484 24.6865V41.4215C81.7484 41.9196 81.8232 42.3429 81.9728 42.6916C82.1224 43.0402 82.4342 43.2892 82.908 43.4387L84.0303 43.8122V44.1858H78.3442Z" fill="#102E46"/>
<path d="M105.871 23.7153C105.023 23.7153 104.3 23.4538 103.702 22.9308C103.128 22.383 102.841 21.6981 102.841 20.8763C102.841 20.0296 103.128 19.3448 103.702 18.8218C104.3 18.2988 105.023 18.0374 105.871 18.0374C106.719 18.0374 107.43 18.2988 108.003 18.8218C108.577 19.3448 108.864 20.0296 108.864 20.8763C108.864 21.6981 108.577 22.383 108.003 22.9308C107.43 23.4538 106.719 23.7153 105.871 23.7153ZM101.457 44.1858V43.8122L101.981 43.6628C102.48 43.5134 102.816 43.2893 102.991 42.9904C103.19 42.6916 103.29 42.2931 103.29 41.7951V30.103C103.29 29.58 103.19 29.194 102.991 28.945C102.816 28.671 102.48 28.4843 101.981 28.3847L101.457 28.2726V27.899L108.303 25.6951L108.677 26.0687L108.565 31.373V41.8324C108.565 42.3305 108.652 42.7289 108.826 43.0278C109.026 43.3266 109.363 43.5507 109.836 43.7002L110.211 43.8122V44.1858H101.457Z" fill="#102E46"/>
<path d="M121.331 44.7461C119.436 44.7461 117.79 44.3601 116.393 43.5881C114.996 42.7912 113.912 41.6705 113.139 40.2262C112.39 38.7818 112.016 37.0883 112.016 35.1459C112.016 33.2034 112.415 31.5225 113.213 30.103C114.036 28.6835 115.146 27.5878 116.543 26.8158C117.964 26.0437 119.56 25.6577 121.331 25.6577C123.102 25.6577 124.685 26.0437 126.082 26.8158C127.478 27.5628 128.576 28.6461 129.374 30.0656C130.197 31.4851 130.608 33.1785 130.608 35.1459C130.608 37.1132 130.222 38.8191 129.448 40.2635C128.7 41.683 127.628 42.7912 126.231 43.5881C124.86 44.3601 123.226 44.7461 121.331 44.7461ZM121.331 43.999C122.204 43.999 122.902 43.75 123.426 43.2519C123.949 42.7538 124.324 41.8698 124.548 40.5997C124.797 39.3296 124.922 37.5366 124.922 35.2206C124.922 32.8797 124.797 31.0742 124.548 29.8041C124.324 28.5341 123.949 27.65 123.426 27.1519C122.902 26.6539 122.204 26.4048 121.331 26.4048C120.458 26.4048 119.747 26.6539 119.199 27.1519C118.675 27.65 118.288 28.5341 118.039 29.8041C117.815 31.0742 117.702 32.8797 117.702 35.2206C117.702 37.5366 117.815 39.3296 118.039 40.5997C118.288 41.8698 118.675 42.7538 119.199 43.2519C119.747 43.75 120.458 43.999 121.331 43.999Z" fill="#102E46"/>
<path d="M132.217 44.1858V43.8122L132.666 43.6628C133.564 43.364 134.013 42.7414 134.013 41.7951V21.8102C134.013 21.3121 133.913 20.9386 133.714 20.6896C133.514 20.4156 133.165 20.2164 132.666 20.0919L132.18 19.9798V19.6063L139.025 18L139.474 18.3362L139.325 23.5659V36.3412C139.325 37.2627 139.325 38.1841 139.325 39.1055C139.35 40.002 139.362 40.8985 139.362 41.7951C139.362 42.2931 139.462 42.704 139.661 43.0278C139.861 43.3266 140.198 43.5507 140.671 43.7002L141.158 43.8122V44.1858H132.217Z" fill="#102E46"/>
<path d="M73.4351 58.4241C72.3072 58.1004 71.4853 57.7037 70.9693 57.234C70.4578 56.7598 70.2021 56.1761 70.2021 55.483C70.2021 54.6987 70.5149 54.0512 71.1405 53.5404C71.7707 53.0252 72.5881 52.7675 73.5927 52.7675C74.2776 52.7675 74.8872 52.8998 75.4215 53.1643C75.9603 53.4287 76.3759 53.7935 76.6681 54.2586C76.9649 54.7237 77.1134 55.2322 77.1134 55.7839H75.7914C75.7914 55.182 75.5996 54.7101 75.216 54.3681C74.8324 54.0215 74.2913 53.8482 73.5927 53.8482C72.9442 53.8482 72.4374 53.9919 72.0721 54.2792C71.7113 54.5619 71.5309 54.9563 71.5309 55.4625C71.5309 55.8683 71.7022 56.2126 72.0447 56.4953C72.3917 56.7734 72.9785 57.0288 73.805 57.2613C74.6361 57.4939 75.2845 57.7515 75.7503 58.0342C76.2206 58.3124 76.5677 58.6384 76.7914 59.0123C77.0197 59.3863 77.1339 59.8263 77.1339 60.3324C77.1339 61.1396 76.8188 61.7871 76.1887 62.275C75.5585 62.7583 74.716 63 73.6612 63C72.9762 63 72.3369 62.87 71.7433 62.6101C71.1496 62.3457 70.6907 61.9854 70.3665 61.5294C70.0469 61.0734 69.887 60.5559 69.887 59.9768H71.209C71.209 60.5787 71.4305 61.0552 71.8734 61.4063C72.3209 61.7529 72.9168 61.9261 73.6612 61.9261C74.3553 61.9261 74.8872 61.7848 75.2571 61.5021C75.627 61.2194 75.8119 60.834 75.8119 60.3461C75.8119 59.8582 75.6407 59.482 75.2982 59.2175C74.9557 58.9485 74.3347 58.684 73.4351 58.4241Z" fill="#102E46"/>
<path d="M80.1409 58.9645V62.8632H78.8258V52.9043H82.504C83.5954 52.9043 84.4493 53.1825 85.0657 53.7388C85.6868 54.2951 85.9973 55.0315 85.9973 55.9481C85.9973 56.9148 85.6936 57.6603 85.0863 58.1847C84.4835 58.7046 83.6182 58.9645 82.4903 58.9645H80.1409ZM80.1409 57.8906H82.504C83.2072 57.8906 83.746 57.7265 84.1205 57.3981C84.4949 57.0653 84.6822 56.5865 84.6822 55.9618C84.6822 55.369 84.4949 54.8947 84.1205 54.5391C83.746 54.1834 83.2323 53.9987 82.5793 53.985H80.1409V57.8906Z" fill="#102E46"/>
<path d="M92.2373 60.264H88.059L87.1206 62.8632H85.7644L89.5728 52.9043H90.7235L94.5387 62.8632H93.1893L92.2373 60.264ZM88.4563 59.1833H91.8468L90.1481 54.5254L88.4563 59.1833Z" fill="#102E46"/>
<path d="M102.299 58.4241C101.171 58.1004 100.349 57.7037 99.8335 57.234C99.322 56.7598 99.0663 56.1761 99.0663 55.483C99.0663 54.6987 99.3791 54.0512 100.005 53.5404C100.635 53.0252 101.452 52.7675 102.457 52.7675C103.142 52.7675 103.751 52.8998 104.286 53.1643C104.825 53.4287 105.24 53.7935 105.532 54.2586C105.829 54.7237 105.978 55.2322 105.978 55.7839H104.656C104.656 55.182 104.464 54.7101 104.08 54.3681C103.697 54.0215 103.156 53.8482 102.457 53.8482C101.808 53.8482 101.302 53.9919 100.936 54.2792C100.575 54.5619 100.395 54.9563 100.395 55.4625C100.395 55.8683 100.566 56.2126 100.909 56.4953C101.256 56.7734 101.843 57.0288 102.669 57.2613C103.5 57.4939 104.149 57.7515 104.614 58.0342C105.085 58.3124 105.432 58.6384 105.656 59.0123C105.884 59.3863 105.998 59.8263 105.998 60.3324C105.998 61.1396 105.683 61.7871 105.053 62.275C104.423 62.7583 103.58 63 102.525 63C101.84 63 101.201 62.87 100.607 62.6101C100.014 62.3457 99.5549 61.9854 99.2307 61.5294C98.911 61.0734 98.7512 60.5559 98.7512 59.9768H100.073C100.073 60.5787 100.295 61.0552 100.738 61.4063C101.185 61.7529 101.781 61.9261 102.525 61.9261C103.219 61.9261 103.751 61.7848 104.121 61.5021C104.491 61.2194 104.676 60.834 104.676 60.3461C104.676 59.8582 104.505 59.482 104.162 59.2175C103.82 58.9485 103.199 58.684 102.299 58.4241Z" fill="#102E46"/>
<path d="M113.197 60.264H109.019L108.08 62.8632H106.724L110.533 52.9043H111.683L115.498 62.8632H114.149L113.197 60.264ZM109.416 59.1833H112.807L111.108 54.5254L109.416 59.1833Z" fill="#102E46"/>
<path d="M118.163 61.7893H122.889V62.8632H116.841V52.9043H118.163V61.7893Z" fill="#102E46"/>
<path d="M131.609 58.2052C131.609 59.1811 131.444 60.0338 131.116 60.7634C130.787 61.4884 130.321 62.0424 129.718 62.4254C129.115 62.8085 128.412 63 127.609 63C126.823 63 126.127 62.8085 125.519 62.4254C124.912 62.0379 124.439 61.4884 124.102 60.777C123.768 60.0611 123.597 59.2335 123.588 58.2942V57.576C123.588 56.6184 123.755 55.7725 124.088 55.0384C124.421 54.3042 124.892 53.7434 125.499 53.3558C126.111 52.9636 126.809 52.7675 127.595 52.7675C128.394 52.7675 129.097 52.9613 129.705 53.3489C130.316 53.732 130.787 54.2906 131.116 55.0247C131.444 55.7543 131.609 56.6047 131.609 57.576V58.2052ZM130.3 57.5623C130.3 56.3813 130.063 55.4761 129.588 54.8469C129.113 54.213 128.449 53.8961 127.595 53.8961C126.764 53.8961 126.108 54.213 125.629 54.8469C125.154 55.4761 124.91 56.3516 124.896 57.4734V58.2052C124.896 59.3498 125.136 60.2504 125.615 60.907C126.099 61.5591 126.764 61.8851 127.609 61.8851C128.458 61.8851 129.115 61.5773 129.581 60.9617C130.047 60.3416 130.287 59.4547 130.3 58.301V57.5623Z" fill="#102E46"/>
<path d="M141.246 62.8632H139.924L134.903 55.1889V62.8632H133.581V52.9043H134.903L139.938 60.6129V52.9043H141.246V62.8632Z" fill="#102E46"/>
</svg>
