<svg width="186" height="80" viewBox="0 0 186 80" fill="none" xmlns="http://www.w3.org/2000/svg">
<path d="M132.516 42.5483H149.405V59.4372H144.961V50.1803L128.593 66.5483L125.405 63.3608L141.773 46.9928H132.516V42.5483Z" fill="#102E46"/>
<path d="M37.4053 37.3759L47.6896 12.5483H54.7488L64.8898 37.3759H58.2247L55.9314 31.3818H46.1487L43.8195 37.3759H37.4053ZM48.0121 26.5227H54.1038L51.0938 18.5779L48.0121 26.5227Z" fill="#102E46"/>
<path d="M71.39 18.6134V29.3956C71.39 30.4124 71.7006 31.24 72.3217 31.8784C72.9667 32.4932 73.8028 32.8006 74.83 32.8006C75.5706 32.8006 76.2276 32.6705 76.8009 32.4104C77.3742 32.1503 77.852 31.7838 78.2343 31.3109V18.6134H84.0393V37.3759H78.2343V36.0991C77.5415 36.6193 76.7531 37.0212 75.8692 37.305C75.0092 37.5887 74.1014 37.7306 73.1459 37.7306C70.9242 37.7306 69.1086 37.0212 67.6991 35.6025C66.2897 34.1838 65.5849 32.3749 65.5849 30.1759V18.6134H71.39Z" fill="#102E46"/>
<path d="M90.322 31.6656V23.4015H86.4878V18.6134H90.322V13.7897L96.1271 12.5483V18.6134H101.43V23.4015H96.1271V30.5306C96.1271 31.3582 96.3062 31.9493 96.6646 32.304C97.0468 32.635 97.7038 32.8006 98.6354 32.8006C99.0893 32.8006 99.5193 32.7769 99.9255 32.7296C100.332 32.6587 100.774 32.5523 101.251 32.4104V37.0567C100.726 37.2222 100.057 37.3523 99.2446 37.4469C98.4324 37.5651 97.7515 37.6242 97.2021 37.6242C94.9326 37.6242 93.2126 37.1277 92.042 36.1345C90.8953 35.1178 90.322 33.6281 90.322 31.6656Z" fill="#102E46"/>
<path d="M102.837 28.0124C102.837 26.6646 103.099 25.3996 103.625 24.2173C104.174 23.0114 104.903 21.971 105.811 21.0961C106.743 20.2212 107.83 19.5355 109.072 19.039C110.338 18.5188 111.688 18.2587 113.121 18.2587C114.554 18.2587 115.892 18.5188 117.134 19.039C118.4 19.5355 119.487 20.2212 120.395 21.0961C121.327 21.971 122.056 23.0114 122.581 24.2173C123.131 25.3996 123.405 26.6646 123.405 28.0124C123.405 29.3602 123.131 30.637 122.581 31.8429C122.056 33.0252 121.327 34.0538 120.395 34.9286C119.487 35.8035 118.4 36.4892 117.134 36.9858C115.892 37.4823 114.554 37.7306 113.121 37.7306C111.688 37.7306 110.338 37.4823 109.072 36.9858C107.83 36.4892 106.743 35.8035 105.811 34.9286C104.903 34.0538 104.174 33.0252 103.625 31.8429C103.099 30.637 102.837 29.3602 102.837 28.0124ZM113.121 32.7651C114.411 32.7651 115.498 32.304 116.382 31.3818C117.29 30.4597 117.744 29.3365 117.744 28.0124C117.744 26.6646 117.29 25.5296 116.382 24.6075C115.498 23.6853 114.411 23.2242 113.121 23.2242C111.831 23.2242 110.732 23.6853 109.824 24.6075C108.94 25.5296 108.498 26.6646 108.498 28.0124C108.498 29.3365 108.94 30.4597 109.824 31.3818C110.732 32.304 111.831 32.7651 113.121 32.7651Z" fill="#102E46"/>
<path d="M38.3011 46.7572V41.3661H60.8764V46.7572H52.6705V66.1937H46.5071V46.7572H38.3011Z" fill="#102E46"/>
<path d="M61.8789 66.1937V47.4311H67.684V49.3109C68.3051 48.5779 69.0337 48.0104 69.8699 47.6084C70.706 47.2065 71.6377 47.0055 72.6649 47.0055C73.2143 47.0291 73.6563 47.0764 73.9907 47.1474C74.3252 47.1946 74.6119 47.301 74.8508 47.4666V52.4675C74.4685 52.302 74.0385 52.172 73.5607 52.0774C73.083 51.9592 72.5932 51.9001 72.0916 51.9001C71.1838 51.9001 70.3357 52.1129 69.5474 52.5385C68.7829 52.9641 68.1618 53.5434 67.684 54.2764V66.1937H61.8789Z" fill="#102E46"/>
<path d="M75.7864 56.8301C75.7864 55.4823 76.0491 54.2173 76.5747 53.035C77.1241 51.8291 77.8528 50.7887 78.7606 49.9139C79.6922 49.039 80.7792 48.3533 82.0214 47.8567C83.2876 47.3365 84.6373 47.0764 86.0707 47.0764C87.504 47.0764 88.8418 47.3365 90.084 47.8567C91.3502 48.3533 92.4371 49.039 93.3449 49.9139C94.2766 50.7887 95.0052 51.8291 95.5308 53.035C96.0802 54.2173 96.355 55.4823 96.355 56.8301C96.355 58.1779 96.0802 59.4547 95.5308 60.6607C95.0052 61.8429 94.2766 62.8715 93.3449 63.7464C92.4371 64.6212 91.3502 65.307 90.084 65.8035C88.8418 66.3001 87.504 66.5483 86.0707 66.5483C84.6373 66.5483 83.2876 66.3001 82.0214 65.8035C80.7792 65.307 79.6922 64.6212 78.7606 63.7464C77.8528 62.8715 77.1241 61.8429 76.5747 60.6607C76.0491 59.4547 75.7864 58.1779 75.7864 56.8301ZM86.0707 61.5828C87.3607 61.5828 88.4476 61.1217 89.3315 60.1996C90.2393 59.2774 90.6932 58.1543 90.6932 56.8301C90.6932 55.4823 90.2393 54.3474 89.3315 53.4252C88.4476 52.503 87.3607 52.0419 86.0707 52.0419C84.7806 52.0419 83.6817 52.503 82.7739 53.4252C81.89 54.3474 81.4481 55.4823 81.4481 56.8301C81.4481 58.1543 81.89 59.2774 82.7739 60.1996C83.6817 61.1217 84.7806 61.5828 86.0707 61.5828Z" fill="#102E46"/>
<path d="M95.3219 66.1937L102.525 56.6882L95.4294 47.4311H102.166L105.893 52.4675L109.584 47.4311H116.07L109.082 56.6173L116.464 66.1937H109.727L105.75 60.838L101.808 66.1937H95.3219Z" fill="#102E46"/>
</svg>
