<svg width="186" height="80" viewBox="0 0 186 80" fill="none" xmlns="http://www.w3.org/2000/svg">
<path d="M68.2168 42.4898L66.7311 42.6803C66.7128 43.4422 66.6945 44.2041 66.6761 44.966C66.6761 45.7098 66.6761 46.4717 66.6761 47.2517V48.4218C65.704 48.9478 64.7411 49.3379 63.7873 49.5918C62.8336 49.8639 61.8064 50 60.706 50C59.257 50 57.9455 49.7642 56.7717 49.2925C55.5978 48.8209 54.589 48.1769 53.7453 47.3605C52.92 46.5261 52.278 45.5465 51.8195 44.4218C51.3793 43.2789 51.1592 42.0363 51.1592 40.6939C51.1592 39.3515 51.3884 38.1088 51.847 36.966C52.3055 35.8231 52.9567 34.8435 53.8004 34.0272C54.6624 33.1927 55.6987 32.5397 56.9093 32.068C58.1198 31.5964 59.4771 31.3605 60.9811 31.3605C61.8615 31.3605 62.7419 31.4603 63.6223 31.6599C64.5027 31.8413 65.4289 32.1678 66.401 32.6395L66.511 36.5034H64.3101L63.8148 33.483C62.9528 33.0658 62.0724 32.8571 61.1737 32.8571C59.3945 32.8571 57.9822 33.5374 56.9368 34.898C55.8913 36.2585 55.3686 38.1905 55.3686 40.6939C55.3686 41.9274 55.5153 43.034 55.8088 44.0136C56.1206 44.9751 56.5333 45.7914 57.0468 46.4626C57.5787 47.1338 58.2023 47.6417 58.9177 47.9864C59.633 48.3311 60.4125 48.5034 61.2562 48.5034C61.7881 48.5034 62.2742 48.4399 62.7143 48.3129V47.2517C62.7143 46.4898 62.7052 45.737 62.6868 44.9932C62.6868 44.2494 62.6777 43.4966 62.6593 42.7347L60.6234 42.4898V41.1293H68.2168V42.4898Z" fill="#102E46"/>
<path d="M84.5333 48.3946V49.5918L79.4711 49.8639L79.2785 47.6054C78.5815 48.3855 77.857 48.9841 77.105 49.4014C76.353 49.8005 75.5368 50 74.6564 50C74.0695 50 73.5376 49.9093 73.0607 49.7279C72.6022 49.5646 72.1986 49.2925 71.8502 48.9116C71.52 48.5125 71.2632 48.0045 71.0798 47.3878C70.8964 46.771 70.8139 46.0091 70.8322 45.102L70.9422 38.1633L69.4291 37.8912V36.8027L74.3813 36.3129L74.7114 36.5306L74.5739 40.3946V44.585C74.5739 45.7823 74.7298 46.6168 75.0416 47.0884C75.3534 47.542 75.7569 47.7687 76.2521 47.7687C76.729 47.7687 77.2151 47.6145 77.7103 47.3061C78.2238 46.9977 78.7191 46.6168 79.1959 46.1633L79.306 38.1633L77.7928 37.8912V36.8571L82.69 36.3129L83.0202 36.5306L82.9376 40.3946V48.068L84.5333 48.3946Z" fill="#102E46"/>
<path d="M93.8755 42.5714C93.527 42.6621 93.1968 42.7619 92.885 42.8707C92.5916 42.9615 92.3348 43.0522 92.1147 43.1429C91.3077 43.4512 90.7482 43.8413 90.4364 44.3129C90.1246 44.7846 89.9687 45.3107 89.9687 45.8912C89.9687 46.254 90.0146 46.5442 90.1063 46.7619C90.2163 46.9796 90.3447 47.161 90.4915 47.3061C90.8766 47.6871 91.3902 47.8776 92.0322 47.8776C92.3256 47.8776 92.6099 47.8322 92.885 47.7415C93.1602 47.6327 93.4903 47.4422 93.8755 47.1701V42.5714ZM99.9832 47.8776C99.6164 48.6213 99.1945 49.1383 98.7176 49.4286C98.2591 49.7188 97.6814 49.8639 96.9844 49.8639C96.2324 49.8639 95.6088 49.7188 95.1135 49.4286C94.6183 49.1383 94.2698 48.7574 94.0681 48.2857C93.4445 48.8481 92.8392 49.2744 92.2523 49.5646C91.6837 49.8549 90.9683 50 90.1063 50C89.0058 50 88.1071 49.7279 87.4101 49.1837C86.7314 48.6213 86.3921 47.805 86.3921 46.7347C86.3921 46.3175 86.4563 45.9093 86.5847 45.5102C86.7314 45.093 86.9882 44.6939 87.3551 44.3129C87.7402 43.9138 88.263 43.5329 88.9233 43.1701C89.5836 42.8073 90.4364 42.4535 91.4819 42.1088C91.7937 42 92.1605 41.8912 92.5824 41.7823C93.0043 41.6553 93.4353 41.5283 93.8755 41.4014V40.585C93.8755 39.4422 93.7012 38.6258 93.3527 38.1361C93.0043 37.6463 92.3898 37.4014 91.5094 37.4014C91.3627 37.4014 91.216 37.4104 91.0692 37.4286C90.9408 37.4286 90.8033 37.4376 90.6565 37.4558L90.4364 39.034C90.3447 39.7415 90.1246 40.2676 89.7761 40.6122C89.4277 40.9569 89.015 41.1293 88.5381 41.1293C88.1162 41.1293 87.7494 41.0023 87.4376 40.7483C87.1441 40.4943 86.9515 40.1587 86.8598 39.7415C86.9882 38.6712 87.566 37.7914 88.5931 37.102C89.6202 36.3946 91.0142 36.0408 92.775 36.0408C93.637 36.0408 94.3707 36.1406 94.976 36.3401C95.5996 36.5215 96.104 36.8299 96.4891 37.2653C96.8743 37.6825 97.1586 38.2449 97.342 38.9524C97.5254 39.6417 97.6172 40.4943 97.6172 41.5102V47.1156C97.6172 47.4059 97.6722 47.6417 97.7822 47.8231C97.8923 48.0045 98.0665 48.0952 98.305 48.0952C98.4884 48.0952 98.6351 48.0408 98.7452 47.932C98.8552 47.8231 98.9836 47.6871 99.1303 47.5238L99.2679 47.3605L99.9832 47.8776Z" fill="#102E46"/>
<path d="M106.343 38.9796C106.857 38.0544 107.444 37.3379 108.104 36.8299C108.765 36.3039 109.416 36.0408 110.058 36.0408C110.443 36.0408 110.837 36.1587 111.241 36.3946C111.663 36.6304 111.947 37.0748 112.094 37.7279C112.094 38.3265 111.919 38.8163 111.571 39.1973C111.222 39.5601 110.755 39.7415 110.168 39.7415C109.452 39.7415 108.746 39.3696 108.049 38.6258L107.994 38.5714C107.664 38.8798 107.352 39.2336 107.059 39.6327C106.784 40.0136 106.545 40.458 106.343 40.966V43.8776C106.343 44.458 106.343 45.1202 106.343 45.8639C106.343 46.6077 106.353 47.3152 106.371 47.9864L108.462 48.3946V49.5918H100.896V48.3946L102.574 48.068C102.593 47.3968 102.602 46.6803 102.602 45.9184C102.602 45.1383 102.602 44.458 102.602 43.8776V42.2993C102.602 41.9184 102.602 41.5918 102.602 41.3197C102.602 41.0476 102.593 40.7937 102.574 40.5578C102.574 40.3039 102.565 40.068 102.547 39.8503C102.547 39.6145 102.538 39.3605 102.519 39.0884L100.676 38.8435V37.8095L105.656 36.0408L106.068 36.3129L106.343 38.9796Z" fill="#102E46"/>
<path d="M122.204 39.034C121.819 38.7619 121.434 38.5442 121.049 38.381C120.682 38.2177 120.306 38.1361 119.921 38.1361C119.517 38.1361 119.132 38.2358 118.765 38.4354C118.398 38.6349 118.068 38.9342 117.775 39.3333C117.5 39.7324 117.27 40.2404 117.087 40.8571C116.922 41.4558 116.839 42.1723 116.839 43.0068C116.839 44.6576 117.115 45.8821 117.665 46.6803C118.233 47.4785 118.93 47.8776 119.756 47.8776C120.159 47.8776 120.563 47.7959 120.966 47.6327C121.388 47.4512 121.801 47.2245 122.204 46.9524V39.034ZM127.542 48.3946V49.5918L122.534 49.8639L122.314 48.2585C121.764 48.8209 121.168 49.2562 120.526 49.5646C119.884 49.8549 119.141 50 118.298 50C117.527 50 116.803 49.8549 116.124 49.5646C115.464 49.2744 114.886 48.839 114.391 48.2585C113.914 47.678 113.538 46.9615 113.263 46.1088C112.988 45.2381 112.85 44.2313 112.85 43.0884C112.85 42 112.997 41.0204 113.29 40.1497C113.602 39.2789 114.024 38.5442 114.556 37.9456C115.088 37.3288 115.702 36.8571 116.399 36.5306C117.115 36.2041 117.885 36.0408 118.71 36.0408C119.481 36.0408 120.159 36.1678 120.746 36.4218C121.333 36.6757 121.865 37.0385 122.342 37.5102V32.585L120.141 32.3129V31.2245L125.671 30L126.056 30.2177L125.946 34.0816V48.068L127.542 48.3946Z" fill="#102E46"/>
<path d="M136.622 42.5714C136.273 42.6621 135.943 42.7619 135.631 42.8707C135.338 42.9615 135.081 43.0522 134.861 43.1429C134.054 43.4512 133.494 43.8413 133.183 44.3129C132.871 44.7846 132.715 45.3107 132.715 45.8912C132.715 46.254 132.761 46.5442 132.852 46.7619C132.963 46.9796 133.091 47.161 133.238 47.3061C133.623 47.6871 134.136 47.8776 134.778 47.8776C135.072 47.8776 135.356 47.8322 135.631 47.7415C135.906 47.6327 136.236 47.4422 136.622 47.1701V42.5714ZM142.729 47.8776C142.363 48.6213 141.941 49.1383 141.464 49.4286C141.005 49.7188 140.428 49.8639 139.731 49.8639C138.979 49.8639 138.355 49.7188 137.86 49.4286C137.364 49.1383 137.016 48.7574 136.814 48.2857C136.191 48.8481 135.585 49.2744 134.998 49.5646C134.43 49.8549 133.715 50 132.852 50C131.752 50 130.853 49.7279 130.156 49.1837C129.478 48.6213 129.138 47.805 129.138 46.7347C129.138 46.3175 129.202 45.9093 129.331 45.5102C129.478 45.093 129.734 44.6939 130.101 44.3129C130.486 43.9138 131.009 43.5329 131.669 43.1701C132.33 42.8073 133.183 42.4535 134.228 42.1088C134.54 42 134.907 41.8912 135.329 41.7823C135.75 41.6553 136.181 41.5283 136.622 41.4014V40.585C136.622 39.4422 136.447 38.6258 136.099 38.1361C135.75 37.6463 135.136 37.4014 134.256 37.4014C134.109 37.4014 133.962 37.4104 133.815 37.4286C133.687 37.4286 133.549 37.4376 133.403 37.4558L133.183 39.034C133.091 39.7415 132.871 40.2676 132.522 40.6122C132.174 40.9569 131.761 41.1293 131.284 41.1293C130.862 41.1293 130.496 41.0023 130.184 40.7483C129.89 40.4943 129.698 40.1587 129.606 39.7415C129.734 38.6712 130.312 37.7914 131.339 37.102C132.366 36.3946 133.76 36.0408 135.521 36.0408C136.383 36.0408 137.117 36.1406 137.722 36.3401C138.346 36.5215 138.85 36.8299 139.235 37.2653C139.62 37.6825 139.905 38.2449 140.088 38.9524C140.272 39.6417 140.363 40.4943 140.363 41.5102V47.1156C140.363 47.4059 140.418 47.6417 140.528 47.8231C140.638 48.0045 140.813 48.0952 141.051 48.0952C141.235 48.0952 141.381 48.0408 141.491 47.932C141.601 47.8231 141.73 47.6871 141.877 47.5238L142.014 47.3605L142.729 47.8776Z" fill="#102E46"/>
<path d="M159.159 48.3946V49.5918H152.116V48.3946L153.794 48.068C153.813 47.3968 153.822 46.6803 153.822 45.9184C153.822 45.1565 153.822 44.4762 153.822 43.8776V41.2653C153.822 40.2313 153.712 39.4785 153.492 39.0068C153.272 38.517 152.841 38.2721 152.199 38.2721C151.667 38.2721 151.144 38.4172 150.63 38.7075C150.135 38.9796 149.622 39.3696 149.09 39.8776V43.8776C149.09 44.458 149.09 45.1383 149.09 45.9184C149.09 46.6803 149.099 47.3968 149.117 48.068L150.685 48.3946V49.5918H143.642V48.3946L145.32 48.068C145.339 47.3787 145.348 46.6531 145.348 45.8912C145.348 45.1293 145.348 44.458 145.348 43.8776V42.3265C145.348 41.9456 145.348 41.619 145.348 41.3469C145.348 41.0567 145.339 40.7937 145.32 40.5578C145.32 40.3039 145.311 40.068 145.293 39.8503C145.293 39.6145 145.284 39.3605 145.265 39.0884L143.422 38.8435V37.8095L148.402 36.0408L148.815 36.3129L149.007 38.4626C149.392 38.0272 149.75 37.6644 150.08 37.3741C150.429 37.0658 150.777 36.8118 151.126 36.6122C151.474 36.4127 151.832 36.2676 152.199 36.1769C152.584 36.0862 153.015 36.0408 153.492 36.0408C154.812 36.0408 155.821 36.4308 156.518 37.2109C157.215 37.9728 157.563 39.1791 157.563 40.8299V43.8776C157.563 44.4762 157.563 45.1655 157.563 45.9456C157.563 46.7075 157.573 47.415 157.591 48.068L159.159 48.3946Z" fill="#102E46"/>
<path d="M5.15918 20C2.95004 20 1.15918 21.7909 1.15918 24V56C1.15918 57.8602 2.42904 59.4239 4.14919 59.8714C4.79203 58.0769 6.39338 56.5734 8.95326 55.3609C7.67655 54.8212 6.74991 54.1155 6.17334 53.2437C5.63794 52.3719 5.37025 51.4171 5.37025 50.3792C5.37025 48.9262 5.78209 47.5563 6.60577 46.2693C7.42945 44.9409 8.6032 43.6124 10.127 42.284C8.43846 41.4122 7.18235 40.2498 6.35866 38.7968C5.57617 37.3438 5.18492 35.7248 5.18492 33.9397C5.18492 32.4867 5.43202 31.1582 5.92623 29.9543C6.46163 28.7089 7.26471 27.6295 8.3355 26.7162C9.40628 25.8029 10.7448 25.0972 12.3509 24.599C13.9983 24.1008 15.9134 23.8518 18.0961 23.8518C20.3201 23.8518 22.2351 24.1008 23.8413 24.599C25.4887 25.0972 26.8477 25.8029 27.9185 26.7162L34.8374 23.7272L35.8258 24.3499V29.1448H29.9571C30.6984 30.5148 31.0691 32.1131 31.0691 33.9397C31.0691 35.3511 30.8014 36.6588 30.266 37.8627C29.7306 39.0667 28.9275 40.1253 27.8567 41.0386C26.7859 41.9104 25.4269 42.6161 23.7795 43.1558C22.1733 43.654 20.2789 43.903 18.0961 43.903C15.9545 43.903 14.0807 43.654 12.4745 43.1558C11.9803 44.0276 11.7332 44.9824 11.7332 46.0203C11.7332 46.726 12.0009 47.3072 12.5363 47.7638C13.0717 48.179 13.9983 48.3866 15.3162 48.3866H22.544C24.8915 48.3866 26.8683 48.6149 28.4745 49.0715C30.0807 49.4867 31.378 50.1094 32.3664 50.9397C33.396 51.7284 34.1167 52.6833 34.5285 53.8041C34.9816 54.8835 35.2081 56.1082 35.2081 57.4781C35.2081 58.3505 35.0884 59.1911 34.8492 60H37.1592C39.3683 60 41.1592 58.2091 41.1592 56V24C41.1592 21.7909 39.3683 20 37.1592 20H5.15918Z" fill="#102E46"/>
<path d="M27.3763 60C27.2631 59.3165 26.9496 58.6834 26.4359 58.1008C25.7769 57.3951 24.6032 57.0422 22.9146 57.0422H16.4282C14.163 57.0422 12.2892 56.8554 10.8065 56.4818C10.4771 57.063 10.23 57.6234 10.0652 58.1631C9.90741 58.6802 9.82518 59.2924 9.81856 60H27.3763Z" fill="#102E46"/>
<path d="M15.0073 28.7089C15.7074 27.4635 16.7576 26.8408 18.1579 26.8408C19.517 26.8408 20.5466 27.4635 21.2467 28.7089C21.988 29.9128 22.3587 31.6149 22.3587 33.8151C22.3587 36.0569 21.988 37.8212 21.2467 39.1082C20.5466 40.3536 19.4758 40.9763 18.0343 40.9763C16.5929 40.9763 15.5427 40.3536 14.8838 39.1082C14.266 37.8627 13.9571 36.1192 13.9571 33.8774C13.9571 31.6356 14.3072 29.9128 15.0073 28.7089Z" fill="#102E46"/>
</svg>
