<svg width="186" height="80" viewBox="0 0 186 80" fill="none" xmlns="http://www.w3.org/2000/svg">
<path d="M69.7559 43.737L72.3809 43.7005V44.7031C72.3809 45.566 72.1925 46.3863 71.8158 47.1641C71.439 47.9297 70.9165 48.5312 70.248 48.9688C69.5918 49.4062 68.8626 49.625 68.0605 49.625C67.3435 49.625 66.7663 49.4002 66.3288 48.9505C65.9034 48.4887 65.6908 47.7899 65.6908 46.8542C65.6908 46.125 65.8184 45.5417 66.0736 45.1042C66.3409 44.6667 66.7237 44.3446 67.222 44.138C67.7203 43.9193 68.5649 43.7856 69.7559 43.737Z" fill="#102E46"/>
<path fill-rule="evenodd" clip-rule="evenodd" d="M29.123 5C25.2571 5 22.123 8.13401 22.123 12V68C22.123 71.866 25.2571 75 29.123 75H85.123C88.989 75 92.123 71.866 92.123 68V37.0174C92.0173 37.0127 91.914 37.0104 91.8132 37.0104C90.5371 37.0104 89.5406 37.5269 88.8236 38.5599C88.1187 39.5929 87.7663 41.1241 87.7663 43.1536V52.8333H82.6439V37.7396C82.6439 36.658 82.6257 35.7587 82.5892 35.0417C82.5649 34.3125 82.5345 33.6684 82.498 33.1094H87.3835C87.4199 33.3281 87.4685 33.9965 87.5293 35.1146C87.5901 36.2205 87.6204 36.9557 87.6204 37.3203H87.6934C88.1916 35.9349 88.6352 34.9627 89.0241 34.4036C89.413 33.8325 89.8748 33.4132 90.4095 33.1458C90.878 32.9009 91.4492 32.7633 92.123 32.733V12C92.123 8.13401 88.989 5 85.123 5H29.123ZM45.3652 45.4323C45.3652 47.9479 44.4295 49.8741 42.5579 51.2109C40.6986 52.5356 37.9642 53.1979 34.3548 53.1979C31.0614 53.1979 28.4789 52.6146 26.6074 51.4479C24.7359 50.2812 23.5328 48.513 22.998 46.1432L28.1934 45.2865C28.5458 46.6476 29.2324 47.638 30.2533 48.2578C31.2741 48.8655 32.6899 49.1693 34.5007 49.1693C38.2559 49.1693 40.1335 48.0269 40.1335 45.7422C40.1335 45.013 39.9147 44.4115 39.4772 43.9375C39.0519 43.4635 38.4442 43.0686 37.6543 42.7526C36.8765 42.4366 35.3757 42.0538 33.1517 41.6042C31.2316 41.1545 29.8947 40.796 29.1413 40.5286C28.3878 40.2491 27.7072 39.9271 27.0996 39.5625C26.492 39.1858 25.9755 38.7361 25.5501 38.2135C25.1248 37.691 24.7906 37.0773 24.5475 36.3724C24.3166 35.6675 24.2012 34.8594 24.2012 33.9479C24.2012 31.6267 25.0701 29.8524 26.8079 28.625C28.5579 27.3854 31.0979 26.7656 34.4277 26.7656C37.6118 26.7656 39.9998 27.2639 41.5918 28.2604C43.196 29.2569 44.229 30.9036 44.6908 33.2005L39.4772 33.9115C39.2099 32.8056 38.663 31.9731 37.8366 31.4141C37.0224 30.855 35.8496 30.5755 34.3184 30.5755C31.0614 30.5755 29.4329 31.5964 29.4329 33.638C29.4329 34.3064 29.6031 34.8533 29.9434 35.2786C30.2958 35.704 30.8123 36.0686 31.4928 36.3724C32.1734 36.6641 33.5527 37.0347 35.6309 37.4844C38.0979 38.0069 39.86 38.4931 40.9173 38.9427C41.9868 39.3802 42.8314 39.8967 43.4512 40.4922C44.071 41.0755 44.5449 41.7804 44.873 42.6068C45.2012 43.421 45.3652 44.3628 45.3652 45.4323ZM54.4798 53.1615C52.9729 53.1615 51.8123 52.7543 50.998 51.9401C50.1838 51.1137 49.7767 49.8681 49.7767 48.2031V36.5729H47.2793V33.1094H50.0319L51.6361 28.4792H54.8444V33.1094H58.5814V36.5729H54.8444V46.8177C54.8444 47.7778 55.0267 48.4887 55.3913 48.9505C55.7559 49.4002 56.321 49.625 57.0866 49.625C57.4876 49.625 58.0588 49.5399 58.8001 49.3698V52.5417C57.5362 52.9549 56.0961 53.1615 54.4798 53.1615ZM61.9538 51.6484C63.0232 52.6814 64.5119 53.1979 66.4199 53.1979C69.3123 53.1979 71.4755 51.9036 72.9095 49.3151H73.0189C73.1404 50.5425 73.505 51.4722 74.1126 52.1042C74.7324 52.7361 75.6864 53.0521 76.9746 53.0521C77.3392 53.0521 77.6552 53.0399 77.9225 53.0156C78.202 52.9913 78.4633 52.9609 78.7064 52.9245C78.9494 52.888 79.1925 52.8394 79.4355 52.7786C79.6786 52.7179 79.952 52.651 80.2559 52.5781V49.8073C79.8913 49.8802 79.5145 49.9167 79.1257 49.9167C78.5423 49.9167 78.123 49.7101 77.8678 49.2969C77.6248 48.8715 77.5033 48.1059 77.5033 47V39.8177C77.5033 37.5573 76.8288 35.8134 75.4798 34.5859C74.1309 33.3585 72.2107 32.7448 69.7194 32.7448C67.2524 32.7448 65.3019 33.2431 63.8678 34.2396C62.446 35.224 61.571 36.6762 61.2428 38.5964L66.584 38.8516C66.6934 37.855 66.9668 37.1441 67.4043 36.7188C67.854 36.2812 68.5527 36.0625 69.5007 36.0625C70.5215 36.0625 71.2567 36.3785 71.7064 37.0104C72.156 37.6302 72.3809 38.5842 72.3809 39.8724V40.875L68.1335 40.9479C65.6057 40.9722 63.6734 41.5191 62.3366 42.5885C61.0119 43.658 60.3496 45.2135 60.3496 47.2552C60.3496 49.1389 60.8843 50.6033 61.9538 51.6484Z" fill="#102E46"/>
<path d="M92.123 37.2653C92.3049 37.2412 92.4933 37.2292 92.6882 37.2292C93.3201 37.2292 94.0493 37.3203 94.8757 37.5026V33.2188C94.4746 33.0365 93.946 32.9453 93.2897 32.9453C92.863 32.9453 92.4741 32.9849 92.123 33.064V37.2653Z" fill="#102E46"/>
<path d="M110.498 29.7734V26H115.62V29.7734H110.498Z" fill="#102E46"/>
<path d="M110.498 53.0521V33.3281H115.62V53.0521H110.498Z" fill="#102E46"/>
<path d="M99.6335 52.1589C100.448 52.9731 101.608 53.3802 103.115 53.3802C104.732 53.3802 106.172 53.1736 107.436 52.7604V49.5885C106.694 49.7587 106.123 49.8438 105.722 49.8438C104.956 49.8438 104.391 49.6189 104.027 49.1693C103.662 48.7075 103.48 47.9965 103.48 47.0365V36.7917H107.217V33.3281H103.48V28.6979H100.271L98.6673 33.3281H95.9147V36.7917H98.4121V48.4219C98.4121 50.0868 98.8192 51.3325 99.6335 52.1589Z" fill="#102E46"/>
<path d="M128.618 45.9063L133.212 53.0521H138.771L131.498 42.8073L138.37 33.3281H132.811L128.618 39.7813L124.407 33.3281H118.883L125.756 42.862L118.537 53.0521H123.988L128.618 45.9063Z" fill="#102E46"/>
</svg>
