<svg width="48" height="48" viewBox="0 0 48 48" fill="none" xmlns="http://www.w3.org/2000/svg">
<path d="M45.4389 12.0176H2.5606C1.73541 12.0176 1.06641 12.6866 1.06641 13.5118V19.5901C1.06641 20.4152 1.73541 21.0843 2.5606 21.0843H45.4389C46.2641 21.0843 46.9331 20.4152 46.9331 19.5901V13.5118C46.9331 12.6865 46.2641 12.0176 45.4389 12.0176Z" fill="#FAB32A"/>
<path d="M43.1999 21.0842H4.7998V45.1901C4.7998 46.0153 5.46881 46.6843 6.294 46.6843H41.7057C42.5309 46.6843 43.1999 46.0153 43.1999 45.1901V21.0842Z" fill="#FAB32A"/>
<path d="M27.7329 12.0181H20.2666V46.6848H27.7329V12.0181Z" fill="#C6E2EB"/>
<path d="M16.1435 1.98366L19.1716 3.69263C22.1549 5.37629 23.9999 8.53624 23.9999 11.9616V12.0176H14.0772C11.0153 12.0176 8.5332 9.53543 8.5332 6.47355C8.5332 6.47355 8.53423 6.2342 8.53639 6.17092C8.66455 2.37938 12.8397 0.119156 16.1435 1.98366Z" fill="#C6E2EB"/>
<path d="M31.8564 1.98366L28.8282 3.69263C25.845 5.37629 24 8.53624 24 11.9616V12.0176H33.9227C36.9846 12.0176 39.4667 9.53543 39.4667 6.47355C39.4667 6.47355 39.4657 6.2342 39.4635 6.17092C39.3354 2.37938 35.1602 0.119156 31.8564 1.98366Z" fill="#C6E2EB"/>
<path d="M45.4392 10.9508H38.7809C39.8679 9.77232 40.5335 8.19938 40.5335 6.47353C40.5335 6.47353 40.5321 6.21009 40.5296 6.13491C40.4577 4.00509 39.2962 2.10571 37.4228 1.05365C35.5115 -0.0194185 33.2346 -0.0191372 31.3322 1.05468L28.304 2.76365C26.4076 3.834 24.9234 5.44725 24 7.34419C23.0767 5.44725 21.5925 3.834 19.6962 2.76374L16.668 1.05458C14.7656 -0.0191372 12.4886 -0.0195122 10.5774 1.05355C8.70395 2.10552 7.54248 4.005 7.47058 6.13481C7.46805 6.21 7.46673 6.47344 7.46673 6.47344C7.46673 8.19929 8.13227 9.77223 9.2193 10.9508H2.56088C1.14881 10.9508 0 12.0997 0 13.5117V19.5899C0 21.002 1.14881 22.1508 2.56088 22.1508H3.73332V45.19C3.73332 46.6021 4.88213 47.7509 6.2942 47.7509H41.7058C43.1179 47.7509 44.2667 46.6021 44.2667 45.19V22.1507H45.4391C46.8512 22.1507 48 21.0019 48 19.5898V13.5116C48.0001 12.0997 46.8513 10.9508 45.4392 10.9508ZM29.3525 4.6215L32.3807 2.91252C33.6284 2.20827 35.1229 2.20884 36.3784 2.91384C37.5962 3.59756 38.351 4.82859 38.3974 6.207C38.3991 6.25819 38.4 6.47353 38.4 6.47353C38.4 8.94235 36.3915 10.9509 33.9227 10.9509H25.1277C25.4475 8.31197 27.0052 5.94619 29.3525 4.6215ZM26.6665 45.6174H21.3335V13.084H26.6665V45.6174ZM9.60002 6.47353C9.60002 6.47353 9.60086 6.25819 9.60255 6.207C9.64914 4.82868 10.4039 3.59765 11.6216 2.91384C12.25 2.56106 12.9377 2.38481 13.6247 2.38481C14.3107 2.38481 14.9959 2.56068 15.6192 2.91262L18.6474 4.62159C20.9947 5.94628 22.5525 8.31207 22.8721 10.9508H14.0772C11.6085 10.9508 9.60002 8.94216 9.60002 6.47353ZM2.13338 19.59V13.5118C2.13338 13.276 2.32519 13.0842 2.56088 13.0842H19.2001V20.0176H2.56088C2.3251 20.0174 2.13338 19.8257 2.13338 19.59ZM5.8667 45.19V22.1507H19.2001V25.3956H14.8087C14.2196 25.3956 13.742 25.8733 13.742 26.4623C13.742 27.0513 14.2196 27.529 14.8087 27.529H19.2001V45.6174H6.2942C6.05851 45.6174 5.8667 45.4258 5.8667 45.19ZM42.1334 45.19C42.1334 45.4257 41.9416 45.6175 41.7059 45.6175H28.7999V27.529H32.8644C33.4535 27.529 33.9311 27.0513 33.9311 26.4623C33.9311 25.8733 33.4535 25.3956 32.8644 25.3956H28.7999V22.1507H42.1335V45.19H42.1334ZM45.8667 19.59C45.8667 19.8257 45.6749 20.0175 45.4392 20.0175H28.7999V13.0841H45.4393C45.675 13.0841 45.8668 13.276 45.8668 13.5117V19.59H45.8667Z" fill="#102E46"/>
<path d="M37.9309 27.5289H38.0376C38.6268 27.5289 39.1043 27.0512 39.1043 26.4622C39.1043 25.8732 38.6268 25.3955 38.0376 25.3955H37.9309C37.3418 25.3955 36.8643 25.8732 36.8643 26.4622C36.8643 27.0512 37.3418 27.5289 37.9309 27.5289Z" fill="#102E46"/>
<path d="M9.74174 25.3958H9.63505C9.04592 25.3958 8.56836 25.8734 8.56836 26.4624C8.56836 27.0515 9.04592 27.5291 9.63505 27.5291H9.74174C10.3309 27.5291 10.8084 27.0515 10.8084 26.4624C10.8084 25.8734 10.3307 25.3958 9.74174 25.3958Z" fill="#102E46"/>
</svg>
