<svg width="119" height="34" viewBox="0 0 119 34" fill="none" xmlns="http://www.w3.org/2000/svg">
<path d="M12.1506 29.5087C12.8306 31.16 15.1694 31.16 15.8494 29.5087L26.8629 2.7615C27.4049 1.44516 26.4371 9.53674e-07 25.0136 9.53674e-07H2.98645C1.56287 9.53674e-07 0.595064 1.44516 1.13709 2.7615L12.1506 29.5087Z" fill="#506D2F"/>
<path d="M12.1506 16.5087C12.8306 18.16 15.1694 18.16 15.8494 16.5087L19.8629 6.7615C20.4049 5.44516 19.4371 4 18.0136 4H9.98644C8.56287 4 7.59506 5.44516 8.13709 6.7615L12.1506 16.5087Z" fill="#171922"/>
<path d="M41.0469 16.082V22.8438C40.7812 23.1641 40.3711 23.5117 39.8164 23.8867C39.2617 24.2539 38.5469 24.5703 37.6719 24.8359C36.7969 25.1016 35.7383 25.2344 34.4961 25.2344C33.3945 25.2344 32.3906 25.0547 31.4844 24.6953C30.5781 24.3281 29.7969 23.793 29.1406 23.0898C28.4922 22.3867 27.9922 21.5273 27.6406 20.5117C27.2891 19.4883 27.1133 18.3203 27.1133 17.0078V15.9414C27.1133 14.6289 27.2812 13.4609 27.6172 12.4375C27.9609 11.4141 28.4492 10.5508 29.082 9.84766C29.7148 9.14453 30.4688 8.60938 31.3438 8.24219C32.2188 7.875 33.1914 7.69141 34.2617 7.69141C35.7461 7.69141 36.9648 7.93359 37.918 8.41797C38.8711 8.89453 39.5977 9.55859 40.0977 10.4102C40.6055 11.2539 40.918 12.2227 41.0352 13.3164H37.625C37.5391 12.7383 37.375 12.2344 37.1328 11.8047C36.8906 11.375 36.543 11.0391 36.0898 10.7969C35.6445 10.5547 35.0664 10.4336 34.3555 10.4336C33.7695 10.4336 33.2461 10.5547 32.7852 10.7969C32.332 11.0312 31.9492 11.3789 31.6367 11.8398C31.3242 12.3008 31.0859 12.8711 30.9219 13.5508C30.7578 14.2305 30.6758 15.0195 30.6758 15.918V17.0078C30.6758 17.8984 30.7617 18.6875 30.9336 19.375C31.1055 20.0547 31.3594 20.6289 31.6953 21.0977C32.0391 21.5586 32.4609 21.9062 32.9609 22.1406C33.4609 22.375 34.043 22.4922 34.707 22.4922C35.2617 22.4922 35.7227 22.4453 36.0898 22.3516C36.4648 22.2578 36.7656 22.1445 36.9922 22.0117C37.2266 21.8711 37.4062 21.7383 37.5312 21.6133V18.5898H34.3203V16.082H41.0469ZM51.1719 21.9648V12.3203H54.5469V25H51.3711L51.1719 21.9648ZM51.5469 19.3633L52.543 19.3398C52.543 20.1836 52.4453 20.9688 52.25 21.6953C52.0547 22.4141 51.7617 23.0391 51.3711 23.5703C50.9805 24.0938 50.4883 24.5039 49.8945 24.8008C49.3008 25.0898 48.6016 25.2344 47.7969 25.2344C47.1797 25.2344 46.6094 25.1484 46.0859 24.9766C45.5703 24.7969 45.125 24.5195 44.75 24.1445C44.3828 23.7617 44.0938 23.2734 43.8828 22.6797C43.6797 22.0781 43.5781 21.3555 43.5781 20.5117V12.3203H46.9531V20.5352C46.9531 20.9102 46.9961 21.2266 47.082 21.4844C47.1758 21.7422 47.3047 21.9531 47.4688 22.1172C47.6328 22.2812 47.8242 22.3984 48.043 22.4688C48.2695 22.5391 48.5195 22.5742 48.793 22.5742C49.4883 22.5742 50.0352 22.4336 50.4336 22.1523C50.8398 21.8711 51.125 21.4883 51.2891 21.0039C51.4609 20.5117 51.5469 19.9648 51.5469 19.3633ZM63.9688 22.1406V16.4922C63.9688 16.0859 63.9023 15.7383 63.7695 15.4492C63.6367 15.1523 63.4297 14.9219 63.1484 14.7578C62.875 14.5938 62.5195 14.5117 62.082 14.5117C61.707 14.5117 61.3828 14.5781 61.1094 14.7109C60.8359 14.8359 60.625 15.0195 60.4766 15.2617C60.3281 15.4961 60.2539 15.7734 60.2539 16.0938H56.8789C56.8789 15.5547 57.0039 15.043 57.2539 14.5586C57.5039 14.0742 57.8672 13.6484 58.3438 13.2812C58.8203 12.9062 59.3867 12.6133 60.043 12.4023C60.707 12.1914 61.4492 12.0859 62.2695 12.0859C63.2539 12.0859 64.1289 12.25 64.8945 12.5781C65.6602 12.9062 66.2617 13.3984 66.6992 14.0547C67.1445 14.7109 67.3672 15.5312 67.3672 16.5156V21.9414C67.3672 22.6367 67.4102 23.207 67.4961 23.6523C67.582 24.0898 67.707 24.4727 67.8711 24.8008V25H64.4609C64.2969 24.6562 64.1719 24.2266 64.0859 23.7109C64.0078 23.1875 63.9688 22.6641 63.9688 22.1406ZM64.4141 17.2773L64.4375 19.1875H62.5508C62.1055 19.1875 61.7188 19.2383 61.3906 19.3398C61.0625 19.4414 60.793 19.5859 60.582 19.7734C60.3711 19.9531 60.2148 20.1641 60.1133 20.4062C60.0195 20.6484 59.9727 20.9141 59.9727 21.2031C59.9727 21.4922 60.0391 21.7539 60.1719 21.9883C60.3047 22.2148 60.4961 22.3945 60.7461 22.5273C60.9961 22.6523 61.2891 22.7148 61.625 22.7148C62.1328 22.7148 62.5742 22.6133 62.9492 22.4102C63.3242 22.207 63.6133 21.957 63.8164 21.6602C64.0273 21.3633 64.1367 21.082 64.1445 20.8164L65.0352 22.2461C64.9102 22.5664 64.7383 22.8984 64.5195 23.2422C64.3086 23.5859 64.0391 23.9102 63.7109 24.2148C63.3828 24.5117 62.9883 24.7578 62.5273 24.9531C62.0664 25.1406 61.5195 25.2344 60.8867 25.2344C60.082 25.2344 59.3516 25.0742 58.6953 24.7539C58.0469 24.4258 57.5312 23.9766 57.1484 23.4062C56.7734 22.8281 56.5859 22.1719 56.5859 21.4375C56.5859 20.7734 56.7109 20.1836 56.9609 19.668C57.2109 19.1523 57.5781 18.7188 58.0625 18.3672C58.5547 18.0078 59.168 17.7383 59.9023 17.5586C60.6367 17.3711 61.4883 17.2773 62.457 17.2773H64.4141ZM73.3438 15.0859V25H69.9688V12.3203H73.1445L73.3438 15.0859ZM77.1641 12.2383L77.1055 15.3672C76.9414 15.3438 76.7422 15.3242 76.5078 15.3086C76.2812 15.2852 76.0742 15.2734 75.8867 15.2734C75.4102 15.2734 74.9961 15.3359 74.6445 15.4609C74.3008 15.5781 74.0117 15.7539 73.7773 15.9883C73.5508 16.2227 73.3789 16.5078 73.2617 16.8438C73.1523 17.1797 73.0898 17.5625 73.0742 17.9922L72.3945 17.7812C72.3945 16.9609 72.4766 16.207 72.6406 15.5195C72.8047 14.8242 73.043 14.2188 73.3555 13.7031C73.6758 13.1875 74.0664 12.7891 74.5273 12.5078C74.9883 12.2266 75.5156 12.0859 76.1094 12.0859C76.2969 12.0859 76.4883 12.1016 76.6836 12.1328C76.8789 12.1562 77.0391 12.1914 77.1641 12.2383ZM86.2461 22.2344V7H89.6445V25H86.5859L86.2461 22.2344ZM78.2305 18.8125V18.5664C78.2305 17.5977 78.3398 16.7188 78.5586 15.9297C78.7773 15.1328 79.0977 14.4492 79.5195 13.8789C79.9414 13.3086 80.4609 12.8672 81.0781 12.5547C81.6953 12.2422 82.3984 12.0859 83.1875 12.0859C83.9297 12.0859 84.5781 12.2422 85.1328 12.5547C85.6953 12.8672 86.1719 13.3125 86.5625 13.8906C86.9609 14.4609 87.2812 15.1367 87.5234 15.918C87.7656 16.6914 87.9414 17.5391 88.0508 18.4609V19C87.9414 19.8828 87.7656 20.7031 87.5234 21.4609C87.2812 22.2188 86.9609 22.8828 86.5625 23.4531C86.1719 24.0156 85.6953 24.4531 85.1328 24.7656C84.5703 25.0781 83.9141 25.2344 83.1641 25.2344C82.375 25.2344 81.6719 25.0742 81.0547 24.7539C80.4453 24.4336 79.9297 23.9844 79.5078 23.4062C79.0938 22.8281 78.7773 22.1484 78.5586 21.3672C78.3398 20.5859 78.2305 19.7344 78.2305 18.8125ZM81.6055 18.5664V18.8125C81.6055 19.3359 81.6445 19.8242 81.7227 20.2773C81.8086 20.7305 81.9453 21.1328 82.1328 21.4844C82.3281 21.8281 82.5781 22.0977 82.8828 22.293C83.1953 22.4805 83.5742 22.5742 84.0195 22.5742C84.5977 22.5742 85.0742 22.4453 85.4492 22.1875C85.8242 21.9219 86.1094 21.5586 86.3047 21.0977C86.5078 20.6367 86.625 20.1055 86.6562 19.5039V17.9688C86.6328 17.4766 86.5625 17.0352 86.4453 16.6445C86.3359 16.2461 86.1719 15.9062 85.9531 15.625C85.7422 15.3438 85.4766 15.125 85.1562 14.9688C84.8438 14.8125 84.4727 14.7344 84.043 14.7344C83.6055 14.7344 83.2305 14.8359 82.918 15.0391C82.6055 15.2344 82.3516 15.5039 82.1562 15.8477C81.9688 16.1914 81.8281 16.5977 81.7344 17.0664C81.6484 17.5273 81.6055 18.0273 81.6055 18.5664ZM95.8438 12.3203V25H92.457V12.3203H95.8438ZM92.2461 9.01562C92.2461 8.52344 92.418 8.11719 92.7617 7.79688C93.1055 7.47656 93.5664 7.31641 94.1445 7.31641C94.7148 7.31641 95.1719 7.47656 95.5156 7.79688C95.8672 8.11719 96.043 8.52344 96.043 9.01562C96.043 9.50781 95.8672 9.91406 95.5156 10.2344C95.1719 10.5547 94.7148 10.7148 94.1445 10.7148C93.5664 10.7148 93.1055 10.5547 92.7617 10.2344C92.418 9.91406 92.2461 9.50781 92.2461 9.01562ZM102.934 25H99.5352V11.1953C99.5352 10.2344 99.7227 9.42578 100.098 8.76953C100.48 8.10547 101.016 7.60547 101.703 7.26953C102.398 6.92578 103.223 6.75391 104.176 6.75391C104.488 6.75391 104.789 6.77734 105.078 6.82422C105.367 6.86328 105.648 6.91406 105.922 6.97656L105.887 9.51953C105.738 9.48047 105.582 9.45312 105.418 9.4375C105.254 9.42188 105.062 9.41406 104.844 9.41406C104.438 9.41406 104.09 9.48438 103.801 9.625C103.52 9.75781 103.305 9.95703 103.156 10.2227C103.008 10.4883 102.934 10.8125 102.934 11.1953V25ZM105.465 12.3203V14.7109H97.6484V12.3203H105.465ZM110.996 23.5703L114.359 12.3203H117.98L112.883 26.9102C112.773 27.2305 112.625 27.5742 112.438 27.9414C112.258 28.3086 112.012 28.6562 111.699 28.9844C111.395 29.3203 111.008 29.5938 110.539 29.8047C110.078 30.0156 109.512 30.1211 108.84 30.1211C108.52 30.1211 108.258 30.1016 108.055 30.0625C107.852 30.0234 107.609 29.9688 107.328 29.8984V27.4258C107.414 27.4258 107.504 27.4258 107.598 27.4258C107.691 27.4336 107.781 27.4375 107.867 27.4375C108.312 27.4375 108.676 27.3867 108.957 27.2852C109.238 27.1836 109.465 27.0273 109.637 26.8164C109.809 26.6133 109.945 26.3477 110.047 26.0195L110.996 23.5703ZM109.59 12.3203L112.344 21.5078L112.824 25.082L110.527 25.3281L105.969 12.3203H109.59Z" fill="#171922"/>
<circle cx="94" cy="8" r="3" fill="#506D2F"/>
</svg>
